<?xml version="1.0" standalone="no"?>
<!DOCTYPE svg PUBLIC "-//W3C//DTD SVG 1.1//EN" "http://www.w3.org/Graphics/SVG/1.1/DTD/svg11.dtd" >
<svg xmlns="http://www.w3.org/2000/svg">
<metadata></metadata>
<defs>
<font id="xenotronnormal" horiz-adv-x="1069" >
<font-face units-per-em="2048" ascent="1638" descent="-410" />
<missing-glyph horiz-adv-x="1024" />
<glyph horiz-adv-x="0" />
<glyph unicode="&#xd;" horiz-adv-x="1024" />
<glyph unicode=" "  horiz-adv-x="1024" />
<glyph unicode="&#x09;" horiz-adv-x="1024" />
<glyph unicode="&#xa0;" horiz-adv-x="1024" />
<glyph unicode="!" horiz-adv-x="409" d="M0 0v203h205v-203h-205zM0 412v612h205v-612h-205z" />
<glyph unicode="&#x22;" horiz-adv-x="819" d="M0 614v410h205v-205q0 -100 -74 -157q-61 -47 -131 -48zM410 614v410h204v-205q0 -100 -73 -157q-61 -47 -131 -48z" />
<glyph unicode="#" horiz-adv-x="1228" d="M0 203v207h205v204h-205v205h205v205h205v-205h204v205h205v-205h205v-205h-205v-204h205v-205h-205v-205h-205v205h-204v-205h-205v205zM410 410h204v204h-204v-204z" />
<glyph unicode="$" horiz-adv-x="1945" d="M0 205h768v205h-563q-96 0 -156 75q-49 63 -49 129v205q0 100 74 158q59 47 131 47h563v102h205v-102h563q98 0 156 -74q49 -61 49 -131h-768v-205h563q98 0 156 -73q49 -61 49 -131v-205q0 -96 -76 -156q-63 -49 -129 -49h-563v-102h-205v102h-563q-100 0 -158 76 q-47 61 -47 129zM205 614h563v205h-563v-205zM973 205h563v205h-563v-205z" />
<glyph unicode="%" horiz-adv-x="1740" d="M0 614v205q0 100 74 158q59 47 131 47h205q98 0 155 -74q49 -61 49 -131v-205q0 -96 -75 -155q-63 -49 -129 -49h-205q-98 0 -156 73q-49 61 -49 131zM205 614h205v205h-205v-205zM563 0l205 1024h205l-205 -1024h-205zM922 205v205q0 100 73 157q59 47 131 47h205 q98 0 156 -73q49 -61 49 -131v-205q0 -96 -76 -156q-63 -49 -129 -49h-205q-98 0 -155 74q-49 61 -49 131zM1126 205h205v205h-205v-205z" />
<glyph unicode="&#x26;" horiz-adv-x="1382" d="M0 203v616q0 98 74 156q61 49 131 49h409l-102 -205h-307v-205h563v205h205v-205h205v-204h-205v-410h-768q-96 0 -156 74q-49 61 -49 129zM205 205h563v205h-563v-205z" />
<glyph unicode="'" horiz-adv-x="409" d="M0 614v410h205v-205q0 -100 -74 -157q-61 -47 -131 -48z" />
<glyph unicode="(" horiz-adv-x="819" d="M0 203v616q0 98 74 156q61 49 131 49h205q98 0 155 -74q49 -61 49 -131h-409v-614h409q0 -98 -73 -156q-61 -49 -131 -49h-205q-96 0 -156 74q-49 61 -49 129z" />
<glyph unicode=")" horiz-adv-x="819" d="M0 205h410v614h-410q0 70 47 129q59 76 158 76h205q70 0 129 -47q76 -59 75 -158v-616q0 -68 -47 -127q-59 -76 -157 -76h-205q-70 0 -129 47q-76 59 -76 158z" />
<glyph unicode="*" horiz-adv-x="1228" d="M0 205l307 307l-307 307h205l205 -205v308h204v-308l205 205h205l-287 -307l287 -307h-205l-205 205v-312h-204v312l-205 -205h-205z" />
<glyph unicode="+" horiz-adv-x="1228" d="M-6 410v204h416v410h204v-410h410v-204h-410v-410h-204v410h-416z" />
<glyph unicode="," horiz-adv-x="409" d="M0 -205v410h205v-205q0 -102 -74 -160q-57 -45 -131 -45z" />
<glyph unicode="-" horiz-adv-x="972" d="M0 410v204h768v-204h-768z" />
<glyph unicode="." horiz-adv-x="409" d="M0 0v205h205v-205h-205z" />
<glyph unicode="/" horiz-adv-x="614" d="M0 0l205 1024h205l-205 -1024h-205z" />
<glyph unicode="0" horiz-adv-x="1945" d="M0 205v614q0 100 74 158q59 47 131 47h1331q98 0 156 -74q49 -61 49 -131v-614q0 -96 -76 -156q-63 -49 -129 -49h-1331q-98 0 -156 74q-49 61 -49 131zM205 205h502l122 614h-624v-614zM911 205h625v614h-502z" />
<glyph unicode="1" horiz-adv-x="614" d="M0 819q0 96 76 156q63 49 129 49h205v-1024h-205v819h-205z" />
<glyph unicode="2" horiz-adv-x="1945" d="M0 0v410q0 70 47 129q59 76 158 75h1331v205h-1536q0 70 47 129q59 76 158 76h1331q70 0 129 -47q76 -59 76 -158v-205q0 -68 -47 -129q-59 -76 -158 -75h-1331v-205h1536q0 -68 -45 -127q-59 -78 -160 -78h-1536z" />
<glyph unicode="3" horiz-adv-x="1945" d="M0 0v205h1536v205h-1536v204h1536v205h-1536v205h1536q70 0 129 -47q76 -59 76 -158v-614q0 -70 -47 -129q-59 -76 -158 -76h-1536z" />
<glyph unicode="4" horiz-adv-x="1945" d="M0 614v410h205v-410h1331v410h205v-1024h-205v410h-1331q-98 0 -156 73q-49 61 -49 131z" />
<glyph unicode="5" horiz-adv-x="1945" d="M0 205h1536v205h-1536v614h1536q98 0 156 -74q49 -61 49 -131h-1536v-205h1331q98 0 156 -73q49 -61 49 -131v-205q0 -96 -76 -156q-63 -49 -129 -49h-1331q-100 0 -158 76q-47 61 -47 129z" />
<glyph unicode="6" horiz-adv-x="1945" d="M0 205v614q0 72 47 131q59 74 158 74h307l102 -205h-409v-205h1331q68 0 129 -47q76 -59 76 -157v-205q0 -68 -47 -129q-59 -76 -158 -76h-1331q-68 0 -129 47q-76 59 -76 158zM205 205h1331v205h-1331v-205z" />
<glyph unicode="7" horiz-adv-x="1945" d="M0 819q0 96 76 156q63 49 129 49h1331q98 0 156 -74q49 -61 49 -131v-819h-205v819h-1536z" />
<glyph unicode="8" horiz-adv-x="1945" d="M0 205v614q0 100 74 158q59 47 131 47h1331q98 0 156 -74q49 -61 49 -131v-614q0 -96 -76 -156q-63 -49 -129 -49h-1331q-98 0 -156 74q-49 61 -49 131zM205 205h1331v205h-1331v-205zM205 614h1331v205h-1331v-205z" />
<glyph unicode="9" horiz-adv-x="1945" d="M0 614v205q0 68 47 129q59 76 158 76h1331q68 0 129 -47q76 -59 76 -158v-614q0 -72 -47 -131q-59 -74 -158 -74h-922l-102 205h1024v205h-1331q-68 0 -129 47q-76 59 -76 157zM205 614h1331v205h-1331v-205z" />
<glyph unicode=":" horiz-adv-x="409" d="M0 203v209h205v-209h-205zM0 614v205h205v-205h-205z" />
<glyph unicode=";" horiz-adv-x="409" d="M0 -2v414h203v-209q0 -96 -74 -156q-61 -49 -129 -49zM0 614v205h205v-205h-205z" />
<glyph unicode="&#x3c;" d="M-10 219l295 295l-289 289l143 145l291 -291l289 291l145 -145l-291 -289l291 -291l-145 -143l-289 289l-295 -295z" />
<glyph unicode="=" horiz-adv-x="972" d="M0 203v209h768v-209h-768zM0 614v205h768v-205h-768z" />
<glyph unicode="&#x3e;" d="M-10 219l295 295l-289 289l143 145l291 -291l289 291l145 -145l-291 -289l291 -291l-145 -143l-289 289l-295 -295z" />
<glyph unicode="?" horiz-adv-x="1945" d="M0 819q0 70 47 129q59 76 158 76h1331q70 0 129 -47q76 -59 76 -158v-205q0 -68 -47 -129q-59 -76 -158 -75h-563v-105h-205v105q0 70 47 129q59 76 158 75h563v205h-1536zM768 0v203h205v-203h-205z" />
<glyph unicode="@" horiz-adv-x="1382" d="M0 205v614q0 96 76 156q63 49 129 49h768q96 0 155 -76q49 -63 50 -129v-205q0 -96 -76 -155q-63 -49 -129 -49h-180v-131h-209q-96 0 -164 67.5t-68 163.5t67.5 163.5t164.5 67.5q68 0 122 -33.5t85 -93.5h182v205h-768v-616h973q0 -96 -76 -156q-61 -47 -129 -47h-768 q-96 0 -156 76q-49 63 -49 129zM483 512q0 -43 29 -71.5t72 -28.5t71.5 28.5t28.5 71.5q0 41 -28.5 71.5t-71.5 30.5q-41 0 -71 -29.5t-30 -72.5z" />
<glyph unicode="A" horiz-adv-x="1945" d="M0 203v616q0 96 76 156q63 49 129 49h1331q96 0 156 -76q49 -63 49 -129v-614q0 -96 -76 -156q-63 -49 -129 -49v410h-1331v-410q-100 0 -158 74q-47 59 -47 129zM205 614h1331v205h-1331v-205z" />
<glyph unicode="B" horiz-adv-x="1945" d="M0 0v1024h1536q96 0 154 -76q47 -61 47 -129v-614q0 -96 -74 -156q-61 -49 -127 -49h-1536zM205 205h1331v205h-1331v-205zM205 614h1331v205h-1331v-205z" />
<glyph unicode="C" horiz-adv-x="1945" d="M0 203v616q0 98 74 156q61 49 131 49h1331q98 0 156 -74q49 -61 49 -131h-1536v-614h1536q0 -98 -74 -156q-61 -49 -131 -49h-1331q-96 0 -156 74q-49 61 -49 129z" />
<glyph unicode="D" horiz-adv-x="1945" d="M0 0v1024h1536q96 0 154 -74q47 -61 47 -129v-616q0 -96 -74 -156q-61 -49 -127 -49h-1536zM205 205h1331v616h-1331v-616z" />
<glyph unicode="E" horiz-adv-x="1945" d="M0 0v1024h1536q96 0 156 -76q49 -63 49 -129h-1536v-205h1536v-204h-1536v-205h1536q0 -96 -74 -156q-61 -49 -129 -49h-1538z" />
<glyph unicode="F" horiz-adv-x="1945" d="M0 0v1024h1536q96 0 156 -76q49 -63 49 -129h-1536v-205h1536v-204h-1536v-410h-205z" />
<glyph unicode="G" horiz-adv-x="1945" d="M0 205v614q0 96 74 156q61 49 129 49h1333q96 0 156 -74q49 -61 49 -129l-1536 -2v-614h1331v207h-922l-102 202h1024q96 0 156 -73q49 -61 49 -129v-207q0 -96 -76 -156q-63 -49 -129 -49h-1331q-96 0 -156 76q-49 63 -49 129z" />
<glyph unicode="H" horiz-adv-x="1945" d="M0 205v819h205v-410h1331v410h205v-819q0 -88 -63.5 -146.5t-141.5 -58.5v410h-1331v-410q-86 0 -145.5 59.5t-59.5 145.5z" />
<glyph unicode="I" horiz-adv-x="409" d="M0 0v1024h205v-1024h-205z" />
<glyph unicode="J" horiz-adv-x="1945" d="M0 205v207h205v-207h1331v819h205v-819q0 -70 -47 -129q-59 -76 -158 -76h-1331q-68 0 -129 47q-76 59 -76 158z" />
<glyph unicode="K" horiz-adv-x="1945" d="M0 0v1024h205v-410h1126l205 410h205l-205 -410q86 -12 141 -59q63 -55 64 -145v-410h-205v410h-1331v-410h-205z" />
<glyph unicode="L" horiz-adv-x="1945" d="M0 205v819h205v-819h1536q0 -96 -76 -156q-63 -49 -129 -49h-1331q-98 0 -156 74q-49 61 -49 131z" />
<glyph unicode="M" horiz-adv-x="1945" d="M0 205v614q0 96 76 156q63 49 129 49h1331q98 0 156 -74q49 -61 49 -131v-614q0 -98 -74 -156q-61 -49 -131 -49v819h-563v-819h-205v819h-563v-819q-98 0 -156 74q-49 61 -49 131z" />
<glyph unicode="N" horiz-adv-x="1945" d="M0 205v614q0 96 76 156q63 49 129 49h1331q98 0 156 -74q49 -61 49 -131v-614q0 -98 -74 -156q-61 -49 -131 -49v819h-1331v-819q-98 0 -156 74q-49 61 -49 131z" />
<glyph unicode="O" horiz-adv-x="1945" d="M0 205v614q0 100 74 158q59 47 131 47h1331q98 0 156 -74q49 -61 49 -131v-614q0 -96 -76 -156q-63 -49 -129 -49h-1331q-98 0 -156 74q-49 61 -49 131zM205 205h1331v614h-1331v-614z" />
<glyph unicode="P" horiz-adv-x="1945" d="M0 0v819q0 96 76 156q63 49 129 49h1331q96 0 156 -76q49 -63 49 -129v-205q0 -96 -76 -155q-63 -49 -129 -49h-1331v-410h-205zM205 614h1331v205h-1331v-205z" />
<glyph unicode="Q" horiz-adv-x="1945" d="M0 205v614q0 100 74 158q59 47 131 47h1331q98 0 156 -74q49 -61 49 -131v-614q0 -96 -76 -154q-59 -45 -129 -51v819h-1331v-614h973l-103 207h205l205 -412h-1280q-98 0 -156 74q-49 61 -49 131z" />
<glyph unicode="R" horiz-adv-x="1945" d="M0 0v819q0 86 59.5 145.5t145.5 59.5h1331q96 0 156 -76q49 -63 49 -129v-205q0 -92 -60.5 -148t-144.5 -56l205 -410h-205l-205 410h-1126v-410h-205zM205 614h1331v205h-1331v-205z" />
<glyph unicode="S" horiz-adv-x="1945" d="M0 205h1536v205h-1331q-96 0 -156 75q-49 63 -49 129v205q0 100 74 158q59 47 131 47h1331q98 0 156 -74q49 -61 49 -131h-1536v-205h1331q98 0 156 -73q49 -61 49 -131v-205q0 -96 -76 -156q-63 -49 -129 -49h-1331q-100 0 -158 76q-47 61 -47 129z" />
<glyph unicode="T" horiz-adv-x="1945" d="M0 819q0 96 76 156q63 49 129 49h1331q98 0 156 -74q49 -61 49 -131h-768v-819h-205v819h-768z" />
<glyph unicode="U" horiz-adv-x="1945" d="M0 205v614q0 100 74 158q59 47 131 47v-819h1331v819q98 0 156 -74q49 -61 49 -131v-614q0 -96 -76 -156q-63 -49 -129 -49h-1331q-98 0 -156 74q-49 61 -49 131z" />
<glyph unicode="V" horiz-adv-x="1945" d="M0 205v614q0 100 74 158q59 47 131 47v-819h1044l287 819h205l-287 -819q-35 -100 -91 -152.5t-114 -52.5h-1044q-98 0 -156 74q-49 61 -49 131z" />
<glyph unicode="W" horiz-adv-x="1945" d="M0 203v614q0 70 47 129q59 76 158 76v-819h563v819h205v-819h563v819q70 0 129 -47q76 -59 76 -158v-614q0 -70 -47 -129q-59 -76 -158 -76h-1331q-68 0 -129 47q-76 59 -76 158z" />
<glyph unicode="X" horiz-adv-x="1224" d="M0 166l344 346l-344 344l168 168l348 -342l340 342l168 -168l-338 -344l338 -344l-168 -168l-340 340l-348 -340z" />
<glyph unicode="Y" horiz-adv-x="1945" d="M0 614v205q0 123 102 176q33 16 103 29v-410h1331v410q98 0 156 -74q49 -61 49 -131v-205q0 -96 -76 -155q-63 -49 -129 -49h-563v-410h-205v410h-563q-98 0 -156 73q-49 61 -49 131z" />
<glyph unicode="Z" horiz-adv-x="1945" d="M0 0v410q0 70 47 129q58 75 155 75h3h1331v205h-1536q0 70 47 129q59 76 158 76h1536v-410q0 -68 -47 -129q-58 -75 -155 -75h-3h-1331v-205h1536q0 -68 -45 -127q-59 -78 -160 -78h-1536z" />
<glyph unicode="[" horiz-adv-x="614" d="M0 0v1024h410v-205h-205v-616h205v-203h-410z" />
<glyph unicode="\" horiz-adv-x="614" d="M0 1024h205l205 -1024h-205z" />
<glyph unicode="]" horiz-adv-x="614" d="M0 0v203h205v616h-205v205h410v-1024h-410z" />
<glyph unicode="^" d="M-10 219l295 295l-289 289l143 145l291 -291l289 291l145 -145l-291 -289l291 -291l-145 -143l-289 289l-295 -295z" />
<glyph unicode="_" horiz-adv-x="1945" d="M0 0v205h1741v-205h-1741z" />
<glyph unicode="`" horiz-adv-x="409" d="M0 819v205h205v-410q-72 0 -129 45q-76 59 -76 160z" />
<glyph unicode="a" horiz-adv-x="1945" d="M0 203v616q0 96 76 156q63 49 129 49h1331q96 0 156 -76q49 -63 49 -129v-614q0 -96 -76 -156q-63 -49 -129 -49v410h-1331v-207h409l-102 -203h-307q-100 0 -158 74q-47 59 -47 129zM205 614h1331v205h-1331v-205z" />
<glyph unicode="b" horiz-adv-x="1945" d="M0 0v1024h1536q96 0 154 -76q47 -61 47 -129v-614q0 -96 -74 -156q-61 -49 -127 -49h-1536zM205 205h1331v205h-1331v-205zM205 614h1331v205h-1331v-205z" />
<glyph unicode="c" horiz-adv-x="1945" d="M0 203v616q0 98 74 156q61 49 131 49h1331q98 0 156 -74q49 -61 49 -131h-1536v-614h1536q0 -98 -74 -156q-61 -49 -131 -49h-1331q-96 0 -156 74q-49 61 -49 129z" />
<glyph unicode="d" horiz-adv-x="1945" d="M0 0v1024h1536q96 0 154 -74q47 -61 47 -129v-616q0 -96 -74 -156q-61 -49 -127 -49h-1536zM205 205h1331v616h-1331v-616z" />
<glyph unicode="e" horiz-adv-x="1945" d="M0 0v1024h1536q96 0 156 -76q49 -63 49 -129h-1536v-205h1536v-204h-1536v-205h1536q0 -96 -74 -156q-61 -49 -129 -49h-1538z" />
<glyph unicode="f" horiz-adv-x="1945" d="M0 0v1024h1536q96 0 156 -76q49 -63 49 -129h-1536v-205h1536v-204h-1536v-410h-205z" />
<glyph unicode="g" horiz-adv-x="1945" d="M0 205v614q0 96 74 156q61 49 129 49h1333q96 0 156 -74q49 -61 49 -129l-1536 -2v-614h1331v207h-922l-102 202h1024q96 0 156 -73q49 -61 49 -129v-207q0 -96 -76 -156q-63 -49 -129 -49h-1331q-96 0 -156 76q-49 63 -49 129z" />
<glyph unicode="h" horiz-adv-x="1945" d="M0 205v819h205v-410h1331v410h205v-819q0 -88 -63.5 -146.5t-141.5 -58.5v410h-1331v-410q-86 0 -145.5 59.5t-59.5 145.5z" />
<glyph unicode="i" horiz-adv-x="409" d="M0 0v1024h205v-1024h-205z" />
<glyph unicode="j" horiz-adv-x="1945" d="M0 205v207h205v-207h1331v819h205v-819q0 -70 -47 -129q-59 -76 -158 -76h-1331q-68 0 -129 47q-76 59 -76 158z" />
<glyph unicode="k" horiz-adv-x="1945" d="M0 0v1024h205v-410h1126l205 410h205l-205 -410q86 -12 141 -59q63 -55 64 -145v-410h-205v410h-1331v-410h-205z" />
<glyph unicode="l" horiz-adv-x="1945" d="M0 205v819h205v-819h1536q0 -96 -76 -156q-63 -49 -129 -49h-1331q-98 0 -156 74q-49 61 -49 131z" />
<glyph unicode="m" horiz-adv-x="1945" d="M0 205v614q0 96 76 156q63 49 129 49h1331q98 0 156 -74q49 -61 49 -131v-614q0 -98 -74 -156q-61 -49 -131 -49v819h-563v-819h-205v819h-563v-819q-98 0 -156 74q-49 61 -49 131z" />
<glyph unicode="n" horiz-adv-x="1945" d="M0 205v614q0 96 76 156q63 49 129 49h1331q98 0 156 -74q49 -61 49 -131v-614q0 -98 -74 -156q-61 -49 -131 -49v819h-1331v-819q-98 0 -156 74q-49 61 -49 131z" />
<glyph unicode="o" horiz-adv-x="1945" d="M0 205v614q0 100 74 158q59 47 131 47h1331q98 0 156 -74q49 -61 49 -131v-614q0 -96 -76 -156q-63 -49 -129 -49h-1331q-98 0 -156 74q-49 61 -49 131zM205 205h1331v614h-1331v-614z" />
<glyph unicode="p" horiz-adv-x="1945" d="M0 205v614q0 96 76 156q63 49 129 49h1331q96 0 156 -76q49 -63 49 -129v-205q0 -96 -76 -155q-63 -49 -129 -49h-1331v-205h409l-102 -205h-307q-98 0 -156 72q-49 61 -49 133zM205 614h1331v205h-1331v-205z" />
<glyph unicode="q" horiz-adv-x="1945" d="M0 205v614q0 100 74 158q59 47 131 47h1331q98 0 156 -74q49 -61 49 -131v-614q0 -96 -76 -154q-59 -45 -129 -51v819h-1331v-614h973l-103 207h205l205 -412h-1280q-98 0 -156 74q-49 61 -49 131z" />
<glyph unicode="r" horiz-adv-x="1945" d="M0 0v819q0 86 59.5 145.5t145.5 59.5h1331q96 0 156 -76q49 -63 49 -129v-205q0 -92 -60.5 -148t-144.5 -56l205 -410h-205l-205 410h-1126v-410h-205zM205 614h1331v205h-1331v-205z" />
<glyph unicode="s" horiz-adv-x="1945" d="M0 205h1536v205h-1331q-96 0 -156 75q-49 63 -49 129v205q0 100 74 158q59 47 131 47h1331q98 0 156 -74q49 -61 49 -131h-1536v-205h1331q98 0 156 -73q49 -61 49 -131v-205q0 -96 -76 -156q-63 -49 -129 -49h-1331q-100 0 -158 76q-47 61 -47 129z" />
<glyph unicode="t" horiz-adv-x="1945" d="M0 819q0 96 76 156q63 49 129 49h1331q98 0 156 -74q49 -61 49 -131h-768v-819h-205v819h-768z" />
<glyph unicode="u" horiz-adv-x="1945" d="M0 205v614q0 100 74 158q59 47 131 47v-819h1331v819q98 0 156 -74q49 -61 49 -131v-614q0 -96 -76 -156q-63 -49 -129 -49h-1331q-98 0 -156 74q-49 61 -49 131z" />
<glyph unicode="v" horiz-adv-x="1945" d="M0 205v614q0 100 74 158q59 47 131 47v-819h1044l287 819h205l-287 -819q-35 -100 -91 -152.5t-114 -52.5h-1044q-98 0 -156 74q-49 61 -49 131z" />
<glyph unicode="w" horiz-adv-x="1945" d="M0 203v614q0 70 47 129q59 76 158 76v-819h563v819h205v-819h563v819q70 0 129 -47q76 -59 76 -158v-614q0 -70 -47 -129q-59 -76 -158 -76h-1331q-68 0 -129 47q-76 59 -76 158z" />
<glyph unicode="x" horiz-adv-x="1945" d="M0 0l205 410q-86 12 -142 59q-63 55 -63 145v410h205v-410h1126l205 410h205l-205 -410q86 -12 141 -59q63 -55 64 -145v-410h-205v410h-1126l-205 -410h-205z" />
<glyph unicode="y" horiz-adv-x="1945" d="M0 614v205q0 123 102 176q33 16 103 29v-410h1331v410q98 0 156 -74q49 -61 49 -131v-205q0 -96 -76 -155q-63 -49 -129 -49h-563v-410h-205v410h-563q-98 0 -156 73q-49 61 -49 131z" />
<glyph unicode="z" horiz-adv-x="1945" d="M0 0v410q0 70 47 129q58 75 155 75h3h1331v205h-1536q0 70 47 129q59 76 158 76h1536v-410q0 -68 -47 -129q-58 -75 -155 -75h-3h-1331v-205h1536q0 -68 -45 -127q-59 -78 -160 -78h-1536z" />
<glyph unicode="{" d="M-10 219l295 295l-289 289l143 145l291 -291l289 291l145 -145l-291 -289l291 -291l-145 -143l-289 289l-295 -295z" />
<glyph unicode="|" d="M-10 219l295 295l-289 289l143 145l291 -291l289 291l145 -145l-291 -289l291 -291l-145 -143l-289 289l-295 -295z" />
<glyph unicode="}" d="M-10 219l295 295l-289 289l143 145l291 -291l289 291l145 -145l-291 -289l291 -291l-145 -143l-289 289l-295 -295z" />
<glyph unicode="~" horiz-adv-x="1228" d="M0 410v204q0 68 47 129q59 76 158 76h205q70 0 129 -47q76 -59 75 -158v-204h205v409q70 0 129 -47q76 -59 76 -158v-204q0 -70 -47 -129q-59 -76 -158 -76h-205q-68 0 -129 47q-76 59 -75 158v204h-205v-409q-68 0 -127 45q-78 59 -78 160z" />
<glyph unicode="&#xa1;" d="M-10 219l295 295l-289 289l143 145l291 -291l289 291l145 -145l-291 -289l291 -291l-145 -143l-289 289l-295 -295z" />
<glyph unicode="&#xa2;" d="M-10 219l295 295l-289 289l143 145l291 -291l289 291l145 -145l-291 -289l291 -291l-145 -143l-289 289l-295 -295z" />
<glyph unicode="&#xa3;" d="M-10 219l295 295l-289 289l143 145l291 -291l289 291l145 -145l-291 -289l291 -291l-145 -143l-289 289l-295 -295z" />
<glyph unicode="&#xa4;" d="M-10 219l295 295l-289 289l143 145l291 -291l289 291l145 -145l-291 -289l291 -291l-145 -143l-289 289l-295 -295z" />
<glyph unicode="&#xa5;" d="M-10 219l295 295l-289 289l143 145l291 -291l289 291l145 -145l-291 -289l291 -291l-145 -143l-289 289l-295 -295z" />
<glyph unicode="&#xa6;" horiz-adv-x="409" d="M0 -102v514h205v-514h-205zM0 614v512h205v-512h-205z" />
<glyph unicode="&#xa7;" horiz-adv-x="1382" d="M0 205v614q0 96 76 156q63 49 129 49h768q96 0 155 -76q49 -63 50 -129v-205q0 -96 -76 -155q-63 -49 -129 -49h-180q-29 -57 -85.5 -94t-123.5 -37q-96 0 -164 67.5t-68 163.5t67.5 163.5t164.5 67.5q68 0 122 -33.5t85 -93.5h182v205h-768v-616h973q0 -96 -76 -156 q-61 -47 -129 -47h-768q-96 0 -156 76q-49 63 -49 129zM483 512q0 -43 29 -71.5t72 -28.5t71.5 28.5t28.5 71.5q0 41 -28.5 71.5t-71.5 30.5q-41 0 -71 -29.5t-30 -72.5z" />
<glyph unicode="&#xa8;" d="M-10 219l295 295l-289 289l143 145l291 -291l289 291l145 -145l-291 -289l291 -291l-145 -143l-289 289l-295 -295z" />
<glyph unicode="&#xa9;" horiz-adv-x="2101" d="M0 326v61q0 20 20 21h134q20 0 20 -21h-154v-61h134v20h-93l-10 21h103q20 0 20 -21v-20q0 -20 -20 -21h-134q-8 0 -12 6t-8 15zM0 461v256h51v-103h283l51 103h51l-51 -103q16 -2 27 -8q25 -14 24 -43v-102h-51v102h-334v-102h-51zM211 326v61q0 8 6 12t14 9h134 q20 0 20 -21v-61q0 -20 -20 -21v41h-134v-41q-20 0 -20 21zM231 367h134v20h-134v-20zM424 326v20h20v-20h136v82h20v-82q0 -20 -20 -21h-136q-8 2 -14 6t-6 15zM489 461v256h385q25 0 38.5 -16.5t13.5 -34.5h-385v-52h385v-51h-385v-51h385q0 -25 -17.5 -38t-34.5 -13h-385 zM641 305v103h154q20 0 20 -21h-153v-20h153v-21h-153v-20h153q0 -20 -20 -21h-154zM860 326v61q0 8 6 12t15 9h133q20 0 20 -21v-61q0 -20 -20 -21v82h-133v-82q-20 0 -21 21zM973 461v256h385q25 0 38 -16.5t13 -34.5h-385v-52h385v-51h-385v-51h385q0 -25 -17.5 -38 t-33.5 -13h-385zM1075 387q0 8 6 12t15 9h135q8 0 12 -6.5t8 -14.5h-77v-84h-21v84h-78zM1288 326v61q0 8 6 12t15 9h133q20 0 20 -21v-61q0 -20 -20 -21v41h-133v-41q-20 0 -21 21zM1309 367h133v20h-133v-20zM1464 512h383v51h-331q-25 0 -38.5 17.5t-13.5 33.5v52 q0 25 17.5 38t34.5 13h331q25 0 38 -17.5t13 -33.5h-382v-52h331q25 0 38 -17t13 -34v-51q0 -25 -16 -38t-35 -13h-331q-23 0 -37.5 18.5t-14.5 32.5zM1507 326v61q0 8 6.5 12t14.5 9h133q20 0 20 -21v-61q0 -20 -20 -21v41h-133v-41q-20 0 -21 21zM1528 367h133v20h-133 v-20zM1722 326v61q0 8 6.5 12t14.5 9h133q20 0 20 -21v-61q0 -20 -20 -21v82h-133v-82q-20 0 -21 21z" />
<glyph unicode="&#xaa;" d="M-10 219l295 295l-289 289l143 145l291 -291l289 291l145 -145l-291 -289l291 -291l-145 -143l-289 289l-295 -295z" />
<glyph unicode="&#xab;" d="M-10 219l295 295l-289 289l143 145l291 -291l289 291l145 -145l-291 -289l291 -291l-145 -143l-289 289l-295 -295z" />
<glyph unicode="&#xac;" d="M-10 219l295 295l-289 289l143 145l291 -291l289 291l145 -145l-291 -289l291 -291l-145 -143l-289 289l-295 -295z" />
<glyph unicode="&#xad;" d="M-10 219l295 295l-289 289l143 145l291 -291l289 291l145 -145l-291 -289l291 -291l-145 -143l-289 289l-295 -295z" />
<glyph unicode="&#xae;" horiz-adv-x="1253" d="M4 532v369q0 59 40 91t83 32h799q59 0 94 -43q29 -37 29 -80v-369q0 -59 -45 -94q-37 -29 -78 -28h-799q-59 0 -91 39.5t-32 82.5zM127 532h799v369h-799v-369zM260 551v246q0 25 18.5 43t43.5 18h401q29 0 45 -20.5t16 -40.5v-62q0 -27 -18 -42t-43 -19l61 -123h-61 l-61 123h-340v-123h-62zM322 735h401v62h-401v-62z" />
<glyph unicode="&#xaf;" d="M-10 219l295 295l-289 289l143 145l291 -291l289 291l145 -145l-291 -289l291 -291l-145 -143l-289 289l-295 -295z" />
<glyph unicode="&#xb0;" horiz-adv-x="819" d="M0 614v205q0 100 74 158q59 47 131 47h205q98 0 155 -74q49 -61 49 -131v-205q0 -96 -75 -155q-63 -49 -129 -49h-205q-98 0 -156 73q-49 61 -49 131zM205 614h205v205h-205v-205z" />
<glyph unicode="&#xb1;" d="M-10 219l295 295l-289 289l143 145l291 -291l289 291l145 -145l-291 -289l291 -291l-145 -143l-289 289l-295 -295z" />
<glyph unicode="&#xb2;" d="M-10 219l295 295l-289 289l143 145l291 -291l289 291l145 -145l-291 -289l291 -291l-145 -143l-289 289l-295 -295z" />
<glyph unicode="&#xb3;" d="M-10 219l295 295l-289 289l143 145l291 -291l289 291l145 -145l-291 -289l291 -291l-145 -143l-289 289l-295 -295z" />
<glyph unicode="&#xb4;" horiz-adv-x="409" d="M0 614v410h205v-205q0 -100 -74 -157q-61 -47 -131 -48z" />
<glyph unicode="&#xb5;" d="M-10 219l295 295l-289 289l143 145l291 -291l289 291l145 -145l-291 -289l291 -291l-145 -143l-289 289l-295 -295z" />
<glyph unicode="&#xb6;" d="M-10 219l295 295l-289 289l143 145l291 -291l289 291l145 -145l-291 -289l291 -291l-145 -143l-289 289l-295 -295z" />
<glyph unicode="&#xb7;" d="M-10 219l295 295l-289 289l143 145l291 -291l289 291l145 -145l-291 -289l291 -291l-145 -143l-289 289l-295 -295z" />
<glyph unicode="&#xb8;" d="M-10 219l295 295l-289 289l143 145l291 -291l289 291l145 -145l-291 -289l291 -291l-145 -143l-289 289l-295 -295z" />
<glyph unicode="&#xb9;" d="M-10 219l295 295l-289 289l143 145l291 -291l289 291l145 -145l-291 -289l291 -291l-145 -143l-289 289l-295 -295z" />
<glyph unicode="&#xba;" d="M-10 219l295 295l-289 289l143 145l291 -291l289 291l145 -145l-291 -289l291 -291l-145 -143l-289 289l-295 -295z" />
<glyph unicode="&#xbb;" d="M-10 219l295 295l-289 289l143 145l291 -291l289 291l145 -145l-291 -289l291 -291l-145 -143l-289 289l-295 -295z" />
<glyph unicode="&#xbc;" d="M-10 219l295 295l-289 289l143 145l291 -291l289 291l145 -145l-291 -289l291 -291l-145 -143l-289 289l-295 -295z" />
<glyph unicode="&#xbd;" d="M-10 219l295 295l-289 289l143 145l291 -291l289 291l145 -145l-291 -289l291 -291l-145 -143l-289 289l-295 -295z" />
<glyph unicode="&#xbe;" d="M-10 219l295 295l-289 289l143 145l291 -291l289 291l145 -145l-291 -289l291 -291l-145 -143l-289 289l-295 -295z" />
<glyph unicode="&#xbf;" d="M-10 219l295 295l-289 289l143 145l291 -291l289 291l145 -145l-291 -289l291 -291l-145 -143l-289 289l-295 -295z" />
<glyph unicode="&#xc0;" d="M-10 219l295 295l-289 289l143 145l291 -291l289 291l145 -145l-291 -289l291 -291l-145 -143l-289 289l-295 -295z" />
<glyph unicode="&#xc1;" d="M-10 219l295 295l-289 289l143 145l291 -291l289 291l145 -145l-291 -289l291 -291l-145 -143l-289 289l-295 -295z" />
<glyph unicode="&#xc2;" d="M-10 219l295 295l-289 289l143 145l291 -291l289 291l145 -145l-291 -289l291 -291l-145 -143l-289 289l-295 -295z" />
<glyph unicode="&#xc3;" d="M-10 219l295 295l-289 289l143 145l291 -291l289 291l145 -145l-291 -289l291 -291l-145 -143l-289 289l-295 -295z" />
<glyph unicode="&#xc4;" d="M-10 219l295 295l-289 289l143 145l291 -291l289 291l145 -145l-291 -289l291 -291l-145 -143l-289 289l-295 -295z" />
<glyph unicode="&#xc5;" d="M-10 219l295 295l-289 289l143 145l291 -291l289 291l145 -145l-291 -289l291 -291l-145 -143l-289 289l-295 -295z" />
<glyph unicode="&#xc6;" d="M-10 219l295 295l-289 289l143 145l291 -291l289 291l145 -145l-291 -289l291 -291l-145 -143l-289 289l-295 -295z" />
<glyph unicode="&#xc7;" d="M-10 219l295 295l-289 289l143 145l291 -291l289 291l145 -145l-291 -289l291 -291l-145 -143l-289 289l-295 -295z" />
<glyph unicode="&#xc8;" d="M-10 219l295 295l-289 289l143 145l291 -291l289 291l145 -145l-291 -289l291 -291l-145 -143l-289 289l-295 -295z" />
<glyph unicode="&#xc9;" d="M-10 219l295 295l-289 289l143 145l291 -291l289 291l145 -145l-291 -289l291 -291l-145 -143l-289 289l-295 -295z" />
<glyph unicode="&#xca;" d="M-10 219l295 295l-289 289l143 145l291 -291l289 291l145 -145l-291 -289l291 -291l-145 -143l-289 289l-295 -295z" />
<glyph unicode="&#xcb;" d="M-10 219l295 295l-289 289l143 145l291 -291l289 291l145 -145l-291 -289l291 -291l-145 -143l-289 289l-295 -295z" />
<glyph unicode="&#xcc;" d="M-10 219l295 295l-289 289l143 145l291 -291l289 291l145 -145l-291 -289l291 -291l-145 -143l-289 289l-295 -295z" />
<glyph unicode="&#xcd;" d="M-10 219l295 295l-289 289l143 145l291 -291l289 291l145 -145l-291 -289l291 -291l-145 -143l-289 289l-295 -295z" />
<glyph unicode="&#xcf;" d="M-10 219l295 295l-289 289l143 145l291 -291l289 291l145 -145l-291 -289l291 -291l-145 -143l-289 289l-295 -295z" />
<glyph unicode="&#xd0;" d="M-10 219l295 295l-289 289l143 145l291 -291l289 291l145 -145l-291 -289l291 -291l-145 -143l-289 289l-295 -295z" />
<glyph unicode="&#xd1;" d="M-10 219l295 295l-289 289l143 145l291 -291l289 291l145 -145l-291 -289l291 -291l-145 -143l-289 289l-295 -295z" />
<glyph unicode="&#xd2;" d="M-10 219l295 295l-289 289l143 145l291 -291l289 291l145 -145l-291 -289l291 -291l-145 -143l-289 289l-295 -295z" />
<glyph unicode="&#xd3;" d="M-10 219l295 295l-289 289l143 145l291 -291l289 291l145 -145l-291 -289l291 -291l-145 -143l-289 289l-295 -295z" />
<glyph unicode="&#xd4;" d="M-10 219l295 295l-289 289l143 145l291 -291l289 291l145 -145l-291 -289l291 -291l-145 -143l-289 289l-295 -295z" />
<glyph unicode="&#xd5;" d="M-10 219l295 295l-289 289l143 145l291 -291l289 291l145 -145l-291 -289l291 -291l-145 -143l-289 289l-295 -295z" />
<glyph unicode="&#xd6;" d="M-10 219l295 295l-289 289l143 145l291 -291l289 291l145 -145l-291 -289l291 -291l-145 -143l-289 289l-295 -295z" />
<glyph unicode="&#xd7;" d="M-10 219l295 295l-289 289l143 145l291 -291l289 291l145 -145l-291 -289l291 -291l-145 -143l-289 289l-295 -295z" />
<glyph unicode="&#xd8;" horiz-adv-x="1945" d="M0 205v614q0 100 74 158q59 47 131 47h1331q98 0 156 -74q49 -61 49 -131v-614q0 -96 -76 -156q-63 -49 -129 -49h-1331q-98 0 -156 74q-49 61 -49 131zM205 205h502l122 614h-624v-614zM911 205h625v614h-502z" />
<glyph unicode="&#xd9;" d="M-10 219l295 295l-289 289l143 145l291 -291l289 291l145 -145l-291 -289l291 -291l-145 -143l-289 289l-295 -295z" />
<glyph unicode="&#xda;" d="M-10 219l295 295l-289 289l143 145l291 -291l289 291l145 -145l-291 -289l291 -291l-145 -143l-289 289l-295 -295z" />
<glyph unicode="&#xdb;" d="M-10 219l295 295l-289 289l143 145l291 -291l289 291l145 -145l-291 -289l291 -291l-145 -143l-289 289l-295 -295z" />
<glyph unicode="&#xdc;" d="M-10 219l295 295l-289 289l143 145l291 -291l289 291l145 -145l-291 -289l291 -291l-145 -143l-289 289l-295 -295z" />
<glyph unicode="&#xdd;" d="M-10 219l295 295l-289 289l143 145l291 -291l289 291l145 -145l-291 -289l291 -291l-145 -143l-289 289l-295 -295z" />
<glyph unicode="&#xde;" d="M-10 219l295 295l-289 289l143 145l291 -291l289 291l145 -145l-291 -289l291 -291l-145 -143l-289 289l-295 -295z" />
<glyph unicode="&#xdf;" d="M-10 219l295 295l-289 289l143 145l291 -291l289 291l145 -145l-291 -289l291 -291l-145 -143l-289 289l-295 -295z" />
<glyph unicode="&#xe0;" d="M-10 219l295 295l-289 289l143 145l291 -291l289 291l145 -145l-291 -289l291 -291l-145 -143l-289 289l-295 -295z" />
<glyph unicode="&#xe1;" d="M-10 219l295 295l-289 289l143 145l291 -291l289 291l145 -145l-291 -289l291 -291l-145 -143l-289 289l-295 -295z" />
<glyph unicode="&#xe2;" d="M-10 219l295 295l-289 289l143 145l291 -291l289 291l145 -145l-291 -289l291 -291l-145 -143l-289 289l-295 -295z" />
<glyph unicode="&#xe3;" d="M-10 219l295 295l-289 289l143 145l291 -291l289 291l145 -145l-291 -289l291 -291l-145 -143l-289 289l-295 -295z" />
<glyph unicode="&#xe4;" d="M-10 219l295 295l-289 289l143 145l291 -291l289 291l145 -145l-291 -289l291 -291l-145 -143l-289 289l-295 -295z" />
<glyph unicode="&#xe5;" d="M-10 219l295 295l-289 289l143 145l291 -291l289 291l145 -145l-291 -289l291 -291l-145 -143l-289 289l-295 -295z" />
<glyph unicode="&#xe6;" d="M-10 219l295 295l-289 289l143 145l291 -291l289 291l145 -145l-291 -289l291 -291l-145 -143l-289 289l-295 -295z" />
<glyph unicode="&#xe7;" d="M-10 219l295 295l-289 289l143 145l291 -291l289 291l145 -145l-291 -289l291 -291l-145 -143l-289 289l-295 -295z" />
<glyph unicode="&#xe8;" d="M-10 219l295 295l-289 289l143 145l291 -291l289 291l145 -145l-291 -289l291 -291l-145 -143l-289 289l-295 -295z" />
<glyph unicode="&#xe9;" d="M-10 219l295 295l-289 289l143 145l291 -291l289 291l145 -145l-291 -289l291 -291l-145 -143l-289 289l-295 -295z" />
<glyph unicode="&#xea;" d="M-10 219l295 295l-289 289l143 145l291 -291l289 291l145 -145l-291 -289l291 -291l-145 -143l-289 289l-295 -295z" />
<glyph unicode="&#xeb;" d="M-10 219l295 295l-289 289l143 145l291 -291l289 291l145 -145l-291 -289l291 -291l-145 -143l-289 289l-295 -295z" />
<glyph unicode="&#xec;" d="M-10 219l295 295l-289 289l143 145l291 -291l289 291l145 -145l-291 -289l291 -291l-145 -143l-289 289l-295 -295z" />
<glyph unicode="&#xed;" d="M-10 219l295 295l-289 289l143 145l291 -291l289 291l145 -145l-291 -289l291 -291l-145 -143l-289 289l-295 -295z" />
<glyph unicode="&#xef;" d="M-10 219l295 295l-289 289l143 145l291 -291l289 291l145 -145l-291 -289l291 -291l-145 -143l-289 289l-295 -295z" />
<glyph unicode="&#xf0;" d="M-10 219l295 295l-289 289l143 145l291 -291l289 291l145 -145l-291 -289l291 -291l-145 -143l-289 289l-295 -295z" />
<glyph unicode="&#xf1;" d="M-10 219l295 295l-289 289l143 145l291 -291l289 291l145 -145l-291 -289l291 -291l-145 -143l-289 289l-295 -295z" />
<glyph unicode="&#xf2;" d="M-10 219l295 295l-289 289l143 145l291 -291l289 291l145 -145l-291 -289l291 -291l-145 -143l-289 289l-295 -295z" />
<glyph unicode="&#xf3;" d="M-10 219l295 295l-289 289l143 145l291 -291l289 291l145 -145l-291 -289l291 -291l-145 -143l-289 289l-295 -295z" />
<glyph unicode="&#xf4;" d="M-10 219l295 295l-289 289l143 145l291 -291l289 291l145 -145l-291 -289l291 -291l-145 -143l-289 289l-295 -295z" />
<glyph unicode="&#xf5;" d="M-10 219l295 295l-289 289l143 145l291 -291l289 291l145 -145l-291 -289l291 -291l-145 -143l-289 289l-295 -295z" />
<glyph unicode="&#xf6;" d="M-10 219l295 295l-289 289l143 145l291 -291l289 291l145 -145l-291 -289l291 -291l-145 -143l-289 289l-295 -295z" />
<glyph unicode="&#xf7;" d="M-10 219l295 295l-289 289l143 145l291 -291l289 291l145 -145l-291 -289l291 -291l-145 -143l-289 289l-295 -295z" />
<glyph unicode="&#xf8;" horiz-adv-x="1945" d="M0 205v614q0 100 74 158q59 47 131 47h1331q98 0 156 -74q49 -61 49 -131v-614q0 -96 -76 -156q-63 -49 -129 -49h-1331q-98 0 -156 74q-49 61 -49 131zM205 205h502l122 614h-624v-614zM911 205h625v614h-502z" />
<glyph unicode="&#xf9;" d="M-10 219l295 295l-289 289l143 145l291 -291l289 291l145 -145l-291 -289l291 -291l-145 -143l-289 289l-295 -295z" />
<glyph unicode="&#xfa;" d="M-10 219l295 295l-289 289l143 145l291 -291l289 291l145 -145l-291 -289l291 -291l-145 -143l-289 289l-295 -295z" />
<glyph unicode="&#xfb;" d="M-10 219l295 295l-289 289l143 145l291 -291l289 291l145 -145l-291 -289l291 -291l-145 -143l-289 289l-295 -295z" />
<glyph unicode="&#xfc;" d="M-10 219l295 295l-289 289l143 145l291 -291l289 291l145 -145l-291 -289l291 -291l-145 -143l-289 289l-295 -295z" />
<glyph unicode="&#xfd;" d="M-10 219l295 295l-289 289l143 145l291 -291l289 291l145 -145l-291 -289l291 -291l-145 -143l-289 289l-295 -295z" />
<glyph unicode="&#xfe;" d="M-10 219l295 295l-289 289l143 145l291 -291l289 291l145 -145l-291 -289l291 -291l-145 -143l-289 289l-295 -295z" />
<glyph unicode="&#xff;" d="M-10 219l295 295l-289 289l143 145l291 -291l289 291l145 -145l-291 -289l291 -291l-145 -143l-289 289l-295 -295z" />
<glyph unicode="&#x152;" d="M-10 219l295 295l-289 289l143 145l291 -291l289 291l145 -145l-291 -289l291 -291l-145 -143l-289 289l-295 -295z" />
<glyph unicode="&#x153;" d="M-10 219l295 295l-289 289l143 145l291 -291l289 291l145 -145l-291 -289l291 -291l-145 -143l-289 289l-295 -295z" />
<glyph unicode="&#x178;" d="M-10 219l295 295l-289 289l143 145l291 -291l289 291l145 -145l-291 -289l291 -291l-145 -143l-289 289l-295 -295z" />
<glyph unicode="&#x2c6;" d="M-10 219l295 295l-289 289l143 145l291 -291l289 291l145 -145l-291 -289l291 -291l-145 -143l-289 289l-295 -295z" />
<glyph unicode="&#x2dc;" horiz-adv-x="1228" d="M0 410v204q0 68 47 129q59 76 158 76h205q70 0 129 -47q76 -59 75 -158v-204h205v409q70 0 129 -47q76 -59 76 -158v-204q0 -70 -47 -129q-59 -76 -158 -76h-205q-68 0 -129 47q-76 59 -75 158v204h-205v-409q-68 0 -127 45q-78 59 -78 160z" />
<glyph unicode="&#x2000;" horiz-adv-x="682" />
<glyph unicode="&#x2001;" horiz-adv-x="1365" />
<glyph unicode="&#x2002;" horiz-adv-x="682" />
<glyph unicode="&#x2003;" horiz-adv-x="1365" />
<glyph unicode="&#x2004;" horiz-adv-x="455" />
<glyph unicode="&#x2005;" horiz-adv-x="341" />
<glyph unicode="&#x2006;" horiz-adv-x="227" />
<glyph unicode="&#x2007;" horiz-adv-x="227" />
<glyph unicode="&#x2008;" horiz-adv-x="170" />
<glyph unicode="&#x2009;" horiz-adv-x="273" />
<glyph unicode="&#x200a;" horiz-adv-x="75" />
<glyph unicode="&#x2010;" horiz-adv-x="972" d="M0 410v204h768v-204h-768z" />
<glyph unicode="&#x2011;" horiz-adv-x="972" d="M0 410v204h768v-204h-768z" />
<glyph unicode="&#x2012;" horiz-adv-x="972" d="M0 410v204h768v-204h-768z" />
<glyph unicode="&#x2013;" horiz-adv-x="972" d="M0 410v204h768v-204h-768z" />
<glyph unicode="&#x2014;" horiz-adv-x="972" d="M0 410v204h768v-204h-768z" />
<glyph unicode="&#x2018;" horiz-adv-x="409" d="M0 614v410h205v-205q0 -100 -74 -157q-61 -47 -131 -48z" />
<glyph unicode="&#x2019;" horiz-adv-x="409" d="M0 614v410h205v-205q0 -100 -74 -157q-61 -47 -131 -48z" />
<glyph unicode="&#x201a;" horiz-adv-x="409" d="M0 203h205v-205q0 -100 -74 -158q-61 -47 -131 -47v410z" />
<glyph unicode="&#x201c;" horiz-adv-x="819" d="M0 614v410h205v-205q0 -100 -74 -157q-61 -47 -131 -48zM410 614v410h204v-205q0 -100 -73 -157q-61 -47 -131 -48z" />
<glyph unicode="&#x201d;" horiz-adv-x="819" d="M0 614v410h205v-205q0 -100 -74 -157q-61 -47 -131 -48zM410 614v410h204v-205q0 -100 -73 -157q-61 -47 -131 -48z" />
<glyph unicode="&#x201e;" horiz-adv-x="819" d="M0 203h205v-205q0 -100 -74 -158q-61 -47 -131 -47v410zM410 203h204v-205q0 -100 -73 -158q-61 -47 -131 -47v410z" />
<glyph unicode="&#x2022;" d="M-10 219l295 295l-289 289l143 145l291 -291l289 291l145 -145l-291 -289l291 -291l-145 -143l-289 289l-295 -295z" />
<glyph unicode="&#x2026;" d="M-10 219l295 295l-289 289l143 145l291 -291l289 291l145 -145l-291 -289l291 -291l-145 -143l-289 289l-295 -295z" />
<glyph unicode="&#x202f;" horiz-adv-x="273" />
<glyph unicode="&#x2039;" d="M-10 219l295 295l-289 289l143 145l291 -291l289 291l145 -145l-291 -289l291 -291l-145 -143l-289 289l-295 -295z" />
<glyph unicode="&#x203a;" d="M-10 219l295 295l-289 289l143 145l291 -291l289 291l145 -145l-291 -289l291 -291l-145 -143l-289 289l-295 -295z" />
<glyph unicode="&#x205f;" horiz-adv-x="341" />
<glyph unicode="&#x2122;" horiz-adv-x="2101" d="M0 326v61q0 20 20 21h134q20 0 20 -21h-154v-61h134v20h-93l-10 21h103q20 0 20 -21v-20q0 -20 -20 -21h-134q-8 0 -12 6t-8 15zM0 461v256h51v-103h283l51 103h51l-51 -103q16 -2 27 -8q25 -14 24 -43v-102h-51v102h-334v-102h-51zM211 326v61q0 8 6 12t14 9h134 q20 0 20 -21v-61q0 -20 -20 -21v41h-134v-41q-20 0 -20 21zM231 367h134v20h-134v-20zM424 326v20h20v-20h136v82h20v-82q0 -20 -20 -21h-136q-8 2 -14 6t-6 15zM489 461v256h385q25 0 38.5 -16.5t13.5 -34.5h-385v-52h385v-51h-385v-51h385q0 -25 -17.5 -38t-34.5 -13h-385 zM641 305v103h154q20 0 20 -21h-153v-20h153v-21h-153v-20h153q0 -20 -20 -21h-154zM860 326v61q0 8 6 12t15 9h133q20 0 20 -21v-61q0 -20 -20 -21v82h-133v-82q-20 0 -21 21zM973 461v256h385q25 0 38 -16.5t13 -34.5h-385v-52h385v-51h-385v-51h385q0 -25 -17.5 -38 t-33.5 -13h-385zM1075 387q0 8 6 12t15 9h135q8 0 12 -6.5t8 -14.5h-77v-84h-21v84h-78zM1288 326v61q0 8 6 12t15 9h133q20 0 20 -21v-61q0 -20 -20 -21v41h-133v-41q-20 0 -21 21zM1309 367h133v20h-133v-20zM1464 512h383v51h-331q-25 0 -38.5 17.5t-13.5 33.5v52 q0 25 17.5 38t34.5 13h331q25 0 38 -17.5t13 -33.5h-382v-52h331q25 0 38 -17t13 -34v-51q0 -25 -16 -38t-35 -13h-331q-23 0 -37.5 18.5t-14.5 32.5zM1507 326v61q0 8 6.5 12t14.5 9h133q20 0 20 -21v-61q0 -20 -20 -21v41h-133v-41q-20 0 -21 21zM1528 367h133v20h-133 v-20zM1722 326v61q0 8 6.5 12t14.5 9h133q20 0 20 -21v-61q0 -20 -20 -21v82h-133v-82q-20 0 -21 21z" />
<glyph unicode="&#x25fc;" horiz-adv-x="1024" d="M0 0v1024h1024v-1024h-1024z" />
</font>
</defs>
</svg>
