<?xml version="1.0" standalone="no"?>
<!DOCTYPE svg PUBLIC "-//W3C//DTD SVG 1.1//EN" "http://www.w3.org/Graphics/SVG/1.1/DTD/svg11.dtd" >
<svg xmlns="http://www.w3.org/2000/svg">
<metadata></metadata>
<defs>
<font id="neuropolregular" horiz-adv-x="1247" >
<font-face units-per-em="2048" ascent="1618" descent="-430" />
<missing-glyph horiz-adv-x="714" />
<glyph horiz-adv-x="0" />
<glyph unicode="&#xd;" horiz-adv-x="714" />
<glyph horiz-adv-x="714" />
<glyph unicode=" "  horiz-adv-x="714" />
<glyph unicode="&#x09;" horiz-adv-x="714" />
<glyph unicode="&#xa0;" horiz-adv-x="714" />
<glyph unicode="!" horiz-adv-x="516" d="M96 119q0 66 38 96.5t124 30.5t124 -31t38 -96q0 -66 -38 -96.5t-124 -30.5t-124 30.5t-38 96.5zM123 422v975q0 59 35 77.5t100 18.5q68 0 102.5 -18.5t34.5 -77.5v-975q0 -59 -34.5 -77.5t-102.5 -18.5q-66 0 -100.5 18t-34.5 78z" />
<glyph unicode="&#x22;" horiz-adv-x="798" d="M74 965zM74 1057v368q0 55 31.5 74t93.5 19q63 0 95 -18.5t32 -74.5v-368q0 -55 -32 -73.5t-95 -18.5q-61 0 -93 18t-32 74zM473 1057v368q0 55 31.5 74t93.5 19q63 0 95 -18.5t32 -74.5v-368q0 -55 -32 -73.5t-95 -18.5q-61 0 -93 18t-32 74z" />
<glyph unicode="#" horiz-adv-x="1787" d="M55 543q0 51 13.5 77.5t60.5 26.5h305l68 184h-232q-47 0 -60 26t-13 77t13 77.5t60 26.5h308l149 408q10 25 38 36t69 11q20 0 46.5 -4t49 -13.5t38 -23.5t15.5 -37q0 -12 -8 -35l-125 -342h307l150 408q10 25 37.5 36t68.5 11q20 0 47 -4t49.5 -13.5t38 -23.5t15.5 -37 q0 -12 -9 -35l-124 -342h227q47 0 60.5 -26.5t13.5 -77.5t-13.5 -77t-60.5 -26h-303l-68 -184h230q47 0 60 -26.5t13 -77.5t-13 -77t-60 -26h-306l-147 -401q-10 -25 -38 -36t-69 -11q-23 0 -48 4t-47.5 13t-38 23.5t-15.5 37.5q0 12 8 34l123 336h-307l-148 -401 q-10 -25 -37.5 -36t-68.5 -11q-23 0 -48.5 4t-48 13t-38 23.5t-15.5 37.5q0 12 9 34l122 336h-229q-47 0 -60.5 26t-13.5 77zM707 647h307l67 184h-307z" />
<glyph unicode="$" horiz-adv-x="1822" d="M66 152q0 55 15 82.5t64 27.5h646v381h-119q-606 0 -606 381v39q0 381 606 381h119v55q0 59 31.5 77.5t97.5 18.5t98.5 -18t32.5 -78v-635h98q606 0 606 -381v-61q0 -381 -606 -381h-98v-55q0 -59 -33 -78t-98 -19q-66 0 -97.5 18.5t-31.5 78.5v55h-646q-49 0 -64 27.5 t-15 83.5zM336 1024q0 -66 74.5 -113t255.5 -47h125v359h-125q-180 0 -255 -46.5t-75 -113.5v-39zM1051 262h104q180 0 255 46t75 114v61q0 66 -75 113t-255 47h-104v-381z" />
<glyph unicode="%" horiz-adv-x="2582" d="M78 0zM78 860v398q0 227 351 227h327q350 0 350 -227v-398q0 -225 -350 -225h-327q-350 0 -351 225zM261 860q0 -29 40.5 -50t131.5 -21h319q90 0 131 21.5t41 49.5v398q0 31 -41 51t-131 20h-319q-90 0 -131 -20.5t-41 -50.5v-398zM680 55q0 6 5 20.5t23 41.5l1014 1339 q16 23 38.5 30t55.5 7q90 0 90 -63q0 -10 -6 -23.5t-22 -36.5l-1014 -1339q-31 -39 -94 -39q-90 0 -90 63zM1476 225v398q0 227 351 227h327q350 0 350 -227v-398q0 -225 -350 -225h-327q-350 0 -351 225zM1659 225q0 -29 40.5 -50t131.5 -21h319q90 0 131 21.5t41 49.5v398 q0 31 -41 51t-131 20h-319q-90 0 -131 -20.5t-41 -50.5v-398z" />
<glyph unicode="&#x26;" horiz-adv-x="2113" d="M76 356v76q0 45 8 88t30.5 81t61.5 67.5t100 48.5l226 65l-121 74q-74 45 -106.5 97.5t-32.5 115.5v107q0 145 116.5 227t358.5 82h344q137 0 234.5 -21.5t157.5 -61.5t88 -97.5t28 -130.5v-64q0 -111 -55.5 -173.5t-170.5 -98.5l-331 -107l639 -364v319q0 59 32.5 77.5 t98.5 18.5t97.5 -18.5t31.5 -77.5v-330q0 -35 -7.5 -65.5t-17.5 -59.5l127 -71q29 -16 44.5 -37t15.5 -49q0 -45 -35 -63.5t-107 -18.5q-68 0 -105.5 12t-53.5 23l-60 34q-66 -33 -142.5 -47t-150.5 -14h-764q-580 0 -579 356zM336 356q0 -61 78 -105t250 -44h692 q55 0 102 6l-723 430l-309 -98q-47 -16 -68.5 -47t-21.5 -66v-76zM502 1073q0 -31 22.5 -53.5t75.5 -52.5l178 -103l449 133q41 12 61.5 38t20.5 77v62q0 51 -57.5 77.5t-194.5 26.5h-314q-109 0 -175 -25.5t-66 -113.5v-66z" />
<glyph unicode="'" horiz-adv-x="399" d="M74 1057v368q0 55 31.5 74t93.5 19q63 0 95 -18.5t32 -74.5v-368q0 -55 -32 -73.5t-95 -18.5q-61 0 -93 18t-32 74z" />
<glyph unicode="(" horiz-adv-x="727" d="M166 2v1413q0 92 32.5 171t88 137.5t131.5 91t162 32.5q63 0 91.5 -20.5t28.5 -71.5q0 -45 -19 -59.5t-48 -24.5q-47 -16 -89 -32.5t-74 -43t-50.5 -69.5t-18.5 -111v-1413q0 -68 18.5 -111t50.5 -69.5t74 -44t89 -31.5q29 -10 48 -24.5t19 -59.5q0 -51 -28.5 -71.5 t-91.5 -20.5q-86 0 -162 32.5t-131.5 91t-88 137.5t-32.5 171z" />
<glyph unicode=")" horiz-adv-x="727" d="M27 -338q0 45 19.5 59.5t47.5 24.5q47 14 89 31.5t74 44t50.5 69.5t18.5 111v1413q0 68 -18.5 111t-50.5 69.5t-74 43t-89 32.5q-29 10 -48 24.5t-19 59.5q0 51 28.5 71.5t91.5 20.5q86 0 162 -32.5t131.5 -91t88 -137.5t32.5 -171v-1413q0 -92 -32.5 -171t-88 -137.5 t-131.5 -91t-162 -32.5q-63 0 -91.5 20.5t-28.5 71.5z" />
<glyph unicode="*" horiz-adv-x="1200" d="M96 1067q0 29 19.5 49.5t56.5 26.5l162 28l-162 31q-37 6 -56.5 26.5t-19.5 49.5q0 23 13.5 51.5t34 53t44 41t45.5 16.5q12 0 22.5 -2t27.5 -13l215 -118q-12 43 -18.5 71.5t-10.5 48t-5 30.5t-1 22q0 47 28.5 61t108.5 14t108.5 -14t28.5 -61q0 -10 -1 -21.5t-5 -31 t-10 -48t-19 -71.5l216 118q16 10 26 12.5t23 2.5q20 0 44.5 -16.5t45 -41t34 -53.5t13.5 -51q0 -29 -19.5 -49.5t-56.5 -26.5l-162 -31l162 -28q37 -6 56.5 -26.5t19.5 -49.5q0 -23 -13.5 -51.5t-34 -53t-45 -41t-44.5 -16.5q-12 0 -22.5 2t-26.5 13l-216 118 q12 -43 18.5 -71.5t10.5 -48t5 -31t1 -21.5q0 -47 -28.5 -61t-108.5 -14t-108.5 14t-28.5 61q0 10 1 21.5t5 31t10 48t19 71.5l-215 -118q-16 -10 -26.5 -12.5t-23.5 -2.5q-23 0 -46 16.5t-43.5 41t-34 53t-13.5 51.5z" />
<glyph unicode="+" d="M78 741q0 59 16.5 88t69.5 29h342v344q0 53 28.5 69.5t88.5 16.5q59 0 88.5 -16.5t29.5 -69.5v-344h342q53 0 69.5 -28.5t16.5 -88.5q0 -59 -16 -88.5t-70 -29.5h-342v-340q0 -53 -29.5 -69.5t-88.5 -16.5t-88 16t-29 70v340h-342q-53 0 -69.5 29.5t-16.5 88.5z" />
<glyph unicode="," horiz-adv-x="516" d="M86 -119q0 12 2 29.5t6 36.5l53 329q8 47 39 64.5t103 17.5t101.5 -16t29.5 -63q0 -10 -1 -23.5t-3 -24.5l-56 -342q-8 -47 -38.5 -64.5t-102.5 -17.5q-70 0 -101.5 16.5t-31.5 57.5z" />
<glyph unicode="-" horiz-adv-x="966" d="M25 731q0 51 13 78t60 27h770q47 0 60.5 -27t13.5 -78t-13.5 -76.5t-60.5 -25.5h-770q-47 0 -60 25.5t-13 76.5z" />
<glyph unicode="." horiz-adv-x="516" d="M96 119q0 66 38 96.5t124 30.5t124 -31t38 -96q0 -66 -38 -96.5t-124 -30.5t-124 30.5t-38 96.5z" />
<glyph unicode="/" horiz-adv-x="1705" d="M0 -250q0 14 8 33.5t31 50.5l1415 1880q23 29 52.5 40t74.5 11q125 0 125 -86q0 -14 -8 -33.5t-31 -50.5l-1415 -1880q-23 -29 -52.5 -40t-74.5 -11q-125 0 -125 86z" />
<glyph unicode="0" horiz-adv-x="1964" d="M78 381v723q0 381 606 381h596q606 0 606 -381v-723q0 -381 -606 -381h-596q-606 0 -606 381zM348 381q0 -66 82 -113t262 -47h580q180 0 262 47t82 113v723q0 68 -82 114t-262 46h-580q-180 0 -262 -46.5t-82 -113.5v-723z" />
<glyph unicode="1" horiz-adv-x="464" d="M96 88v1309q0 59 35 77.5t100 18.5q68 0 103 -18.5t35 -77.5v-1309q0 -59 -35 -77.5t-103 -18.5q-66 0 -100.5 18.5t-34.5 77.5z" />
<glyph unicode="2" horiz-adv-x="2084" d="M86 100v363q0 381 606 381h705q180 0 254.5 47t74.5 113v100q0 68 -74.5 114t-254.5 46h-318q-49 0 -64.5 27.5t-15.5 82.5t15.5 83t64.5 28h312q606 0 606 -381v-100q0 -381 -606 -381h-705q-180 0 -255 -47.5t-75 -112.5v-242h1561q49 0 64.5 -27.5t15.5 -82.5 t-15.5 -83t-64.5 -28h-1735q-96 0 -96 100z" />
<glyph unicode="3" horiz-adv-x="2045" d="M82 111q0 55 15.5 82.5t64.5 27.5h1247q100 0 161.5 11.5t94.5 35t43 60.5t10 88q0 59 -12 101t-49 67.5t-103.5 38t-173.5 12.5h-1216q-49 0 -64.5 27.5t-15.5 82.5t15.5 83t64.5 28h1231q92 0 153.5 8t99.5 29.5t53 61.5t15 106q0 53 -12 92t-46 63.5t-95.5 36 t-157.5 11.5h-309q-49 0 -64.5 27.5t-15.5 82.5t15.5 83t64.5 28h280q133 0 244 -18.5t190.5 -66.5t123.5 -130t44 -211q0 -109 -40 -188.5t-148 -133.5q94 -35 150.5 -105.5t56.5 -207.5q0 -131 -52.5 -214t-136.5 -129t-193.5 -63.5t-221.5 -17.5h-1231q-49 0 -64.5 27.5 t-15.5 83.5z" />
<glyph unicode="4" horiz-adv-x="2205" d="M86 477v920q0 59 35 77.5t100 18.5q68 0 102.5 -18.5t34.5 -77.5v-783h1479v783q0 59 35 77.5t102 18.5q66 0 100.5 -18.5t34.5 -77.5v-1309q0 -59 -34.5 -77.5t-100.5 -18.5q-68 0 -102.5 18.5t-34.5 77.5v305h-1651q-43 0 -71.5 19.5t-28.5 64.5z" />
<glyph unicode="5" horiz-adv-x="2091" d="M88 111q0 55 15.5 82.5t64.5 27.5h1268q180 0 254.5 46t74.5 114v217q0 66 -74.5 113t-254.5 47h-1248q-43 0 -68.5 23.5t-25.5 64.5v538q0 100 96 101h904q49 0 64.5 -27.5t15.5 -83.5q0 -55 -15.5 -82.5t-64.5 -27.5h-729v-285h1065q606 0 606 -381v-217 q0 -381 -606 -381h-1262q-49 0 -64.5 27.5t-15.5 83.5z" />
<glyph unicode="6" horiz-adv-x="2119" d="M78 381v723q0 381 606 381h369q49 0 64.5 -27.5t15.5 -83.5q0 -55 -15.5 -82.5t-64.5 -27.5h-361q-180 0 -262 -46.5t-82 -113.5v-121h1106q606 0 606 -381v-221q0 -381 -606 -381h-770q-606 0 -606 381zM348 381q0 -66 82 -113t262 -47h754q180 0 262 47t82 113v221 q0 68 -82 114t-262 46h-1098v-381z" />
<glyph unicode="7" horiz-adv-x="1980" d="M37 1374q0 55 15.5 83t64.5 28h1601q111 0 168.5 -29t57.5 -113q0 -27 -8.5 -48t-32.5 -50l-1031 -1198q-29 -33 -60.5 -44t-78.5 -11q-68 0 -98.5 20.5t-30.5 63.5q0 16 8.5 39.5t40.5 60.5l940 1088h-1476q-49 0 -64.5 27.5t-15.5 82.5z" />
<glyph unicode="8" horiz-adv-x="1951" d="M49 424q0 137 56.5 207.5t150.5 105.5q-109 53 -148.5 133t-39.5 189q0 129 44 211t123.5 130t190.5 66.5t244 18.5h612q133 0 243.5 -18.5t190.5 -66.5t124 -130t44 -211q0 -109 -40 -188.5t-148 -133.5q94 -35 150.5 -105.5t56.5 -207.5q0 -131 -52.5 -214t-136.5 -129 t-193.5 -63.5t-222.5 -17.5h-645q-115 0 -223 17.5t-192 63.5t-136.5 129t-52.5 214zM328 416q0 -51 10 -88t43 -60.5t93.5 -35t162.5 -11.5h678q100 0 161.5 11.5t94.5 35t43 60.5t10 88q0 59 -12.5 101t-49 67.5t-103 38t-173.5 12.5h-620q-109 0 -174.5 -12.5t-102.5 -38 t-49 -67.5t-12 -101zM330 1061q0 -66 15 -106t53 -61.5t99.5 -29.5t153.5 -8h649q92 0 154 8t99.5 29.5t53 61.5t15.5 106q0 53 -12.5 92t-46 63.5t-95 36t-157.5 11.5h-670q-96 0 -157.5 -11.5t-95.5 -36t-46 -63.5t-12 -92z" />
<glyph unicode="9" horiz-adv-x="1998" d="M59 883v221q0 381 607 381h649q606 0 606 -381v-723q0 -381 -606 -381h-291q-49 0 -64.5 27.5t-15.5 83.5q0 55 15.5 82.5t64.5 27.5h283q180 0 262 46t82 114v121h-985q-606 0 -607 381zM330 883q0 -68 82 -114t262 -46h977v381q0 66 -82 113t-262 47h-633 q-180 0 -262 -47.5t-82 -112.5v-221z" />
<glyph unicode=":" horiz-adv-x="577" d="M129 119q0 66 38 96.5t124 30.5t124 -31t38 -96q0 -66 -38 -96.5t-124 -30.5t-124 30.5t-38 96.5zM129 707q0 66 38 96.5t124 30.5t124 -31t38 -96q0 -66 -38 -96.5t-124 -30.5t-124 30.5t-38 96.5z" />
<glyph unicode=";" horiz-adv-x="577" d="M78 -119q0 12 2 29.5t6 36.5l53 329q8 47 39 64.5t103 17.5t101.5 -16t29.5 -63q0 -10 -1 -23.5t-3 -24.5l-56 -342q-8 -47 -38.5 -64.5t-102.5 -17.5q-70 0 -101.5 16.5t-31.5 57.5zM129 707q0 66 38 96.5t124 30.5t124 -31t38 -96q0 -66 -38 -96.5t-124 -30.5 t-124 30.5t-38 96.5z" />
<glyph unicode="&#x3c;" d="M76 748q0 53 15 76.5t42 33.5l752 326q59 27 151 26q66 0 97.5 -19.5t31.5 -68.5q0 -33 -13 -53t-48 -35l-713 -286l713 -287q35 -14 48 -34.5t13 -53.5q0 -49 -31.5 -68.5t-97.5 -19.5q-92 0 -151 26l-752 326q-27 10 -42 33t-15 78z" />
<glyph unicode="=" d="M78 455q0 59 16.5 87.5t69.5 28.5h919q53 0 69.5 -28.5t16.5 -87.5t-16 -89t-70 -30h-919q-53 0 -69.5 29.5t-16.5 89.5zM78 1028q0 59 16.5 88t69.5 29h919q53 0 69.5 -29t16.5 -88t-16 -89t-70 -30h-919q-53 0 -69.5 30t-16.5 89z" />
<glyph unicode="&#x3e;" d="M76 373q0 33 13 53t48 35l713 287l-713 286q-35 14 -48 35t-13 53q0 49 31.5 68.5t97.5 19.5q92 0 151 -26l752 -326q27 -10 42 -33.5t15 -76.5q0 -55 -15 -78t-42 -33l-752 -326q-59 -27 -151 -26q-66 0 -97.5 19.5t-31.5 68.5z" />
<glyph unicode="?" horiz-adv-x="1374" d="M59 119q0 66 38 96.5t124 30.5t124 -31t38 -96q0 -66 -38 -96.5t-124 -30.5t-124 30.5t-38 96.5zM88 420v115q0 76 29.5 128t78 83.5t110 45t124.5 13.5h285q180 0 259 47t79 113v139q0 68 -79 114t-259 46h-86q-49 0 -64.5 27.5t-15.5 82.5t15.5 83t64.5 28h80 q606 0 606 -381v-139q0 -193 -150.5 -284t-455.5 -91h-281q-51 0 -62.5 -18.5t-11.5 -63.5v-88q0 -57 -33.5 -75.5t-99.5 -18.5t-99.5 18t-33.5 76z" />
<glyph unicode="@" horiz-adv-x="1630" d="M78 -47v1022q0 289 497 289h480q248 0 372.5 -75t124.5 -214v-619q0 -137 -112.5 -205.5t-317.5 -68.5h-213q-193 0 -304 68.5t-111 205.5v187q0 274 473 274h372v158q0 49 -71.5 85t-218.5 36h-467q-147 0 -214 -34t-67 -87v-1022q0 -51 66.5 -86t214.5 -35h878 q39 0 50.5 -21.5t11.5 -62.5t-11.5 -62.5t-50.5 -21.5h-885q-498 0 -497 289zM707 356q0 -47 55 -80.5t147 -33.5h213q104 0 160.5 33.5t56.5 80.5v301h-364q-141 0 -204.5 -33.5t-63.5 -80.5v-187z" />
<glyph unicode="A" horiz-adv-x="2131" d="M25 100q0 20 14 45l840 1274q23 35 61.5 53.5t99.5 18.5q59 0 97.5 -18.5t62.5 -53.5l893 -1274q14 -23 14 -47q0 -23 -13 -43t-34.5 -34.5t-48 -22.5t-53.5 -8q-29 0 -51.5 9t-38.5 32l-242 352h-1139l-227 -352q-14 -23 -37.5 -32t-50.5 -9q-25 0 -51.5 8t-48 23.5 t-34.5 35t-13 43.5zM629 604h846l-435 637z" />
<glyph unicode="B" horiz-adv-x="2000" d="M96 96v1295q0 94 94 94h1141q133 0 244 -18.5t190.5 -66.5t123.5 -130t44 -211q0 -109 -40 -188.5t-148 -133.5q94 -35 150.5 -105.5t56.5 -207.5q0 -131 -52.5 -214t-136.5 -129t-193.5 -63.5t-221.5 -17.5h-1158q-94 0 -94 96zM369 221h995q100 0 161.5 11.5t94.5 35 t43 60.5t10 88q0 59 -12 100t-49 67.5t-103.5 38t-173.5 11.5h-966v-412zM375 856h975q92 0 153.5 8t99 29.5t53 61.5t15.5 106q0 53 -12 92t-46 63.5t-95.5 36t-157.5 11.5h-985v-408z" />
<glyph unicode="C" horiz-adv-x="1835" d="M78 381v723q0 381 606 381h1004q49 0 64 -27.5t15 -83.5q0 -55 -15 -82.5t-64 -27.5h-996q-180 0 -262 -46.5t-82 -113.5v-723q0 -66 82 -113t262 -47h998q49 0 63 -27.5t14 -82.5q0 -53 -14 -82t-63 -29h-1006q-606 0 -606 381z" />
<glyph unicode="D" horiz-adv-x="2035" d="M96 96v1295q0 94 94 94h1162q606 0 606 -381v-723q0 -381 -606 -381h-1162q-94 0 -94 96zM369 221h974q180 0 263.5 47t83.5 113v723q0 68 -83 114t-264 46h-974v-1043z" />
<glyph unicode="E" horiz-adv-x="1826" d="M78 381v723q0 381 606 381h305q47 0 62.5 -27.5t15.5 -83.5q0 -55 -15.5 -82.5t-62.5 -27.5h-297q-180 0 -262 -46.5t-82 -113.5v-262h1329q49 0 64.5 -28t15.5 -83t-15.5 -82.5t-64.5 -27.5h-1329v-240q0 -66 82 -113t262 -47h979q49 0 64.5 -27.5t15.5 -82.5 q0 -53 -15.5 -82t-64.5 -29h-987q-606 0 -606 381z" />
<glyph unicode="F" horiz-adv-x="1792" d="M88 88v1016q0 381 606 381h224q49 0 63 -27.5t14 -83.5q0 -55 -14 -82.5t-63 -27.5h-216q-180 0 -261 -46.5t-81 -113.5v-262h1328q49 0 64 -28t15 -83t-15 -82.5t-64 -27.5h-1328v-533q0 -59 -34.5 -77.5t-102.5 -18.5q-66 0 -100.5 18.5t-34.5 77.5z" />
<glyph unicode="G" horiz-adv-x="1986" d="M78 381v723q0 381 606 381h289q49 0 64.5 -27.5t15.5 -83.5q0 -55 -15.5 -82.5t-64.5 -27.5h-281q-180 0 -262 -46.5t-82 -113.5v-723q0 -66 82 -113t262 -47h604q180 0 261 47t81 113v364q0 59 34 78t102 19t103.5 -18.5t35.5 -78.5v-364q0 -197 -154.5 -289t-453.5 -92 h-621q-606 0 -606 381z" />
<glyph unicode="H" horiz-adv-x="2056" d="M96 88v1309q0 59 35 77.5t100 18.5q68 0 103 -18.5t35 -77.5v-555h1319v555q0 59 34.5 77.5t102.5 18.5q66 0 100.5 -18.5t34.5 -77.5v-1309q0 -59 -35 -77.5t-100 -18.5q-68 0 -102.5 18.5t-34.5 77.5v533h-1319v-533q0 -59 -35 -77.5t-103 -18.5q-66 0 -100.5 18.5 t-34.5 77.5z" />
<glyph unicode="I" horiz-adv-x="464" d="M96 88v1309q0 59 35 77.5t100 18.5q68 0 103 -18.5t35 -77.5v-1309q0 -59 -35 -77.5t-103 -18.5q-66 0 -100.5 18.5t-34.5 77.5z" />
<glyph unicode="J" horiz-adv-x="944" d="M25 113q0 53 14 80.5t63 27.5h140q180 0 261 47t81 113v1016q0 59 34.5 77.5t102.5 18.5q66 0 100.5 -18.5t34.5 -77.5v-1016q0 -381 -608 -381h-146q-49 0 -63 28.5t-14 84.5z" />
<glyph unicode="K" horiz-adv-x="1800" d="M96 88v1309q0 59 35 77.5t100 18.5q68 0 103 -18.5t35 -77.5v-514l1079 581q29 16 62.5 22.5t103.5 6.5q45 0 77.5 -23.5t32.5 -70.5q0 -61 -65 -94l-1094 -551l1131 -574q65 -33 65 -92q-1 -48 -33 -72t-77 -24q-70 0 -104 6t-62 22l-1116 592v-524q0 -59 -35 -77.5 t-103 -18.5q-66 0 -100.5 18.5t-34.5 77.5z" />
<glyph unicode="L" horiz-adv-x="1808" d="M88 381v1016q0 59 35 77.5t100 18.5q68 0 102.5 -18.5t34.5 -77.5v-1016q0 -66 81 -113t261 -47h1004q49 0 63.5 -27.5t14.5 -80.5q0 -55 -14.5 -84t-63.5 -29h-1012q-606 0 -606 381z" />
<glyph unicode="M" horiz-adv-x="2709" d="M96 88v1253q0 139 150 140q100 0 162 -72l942 -1137l950 1137q33 39 73 55.5t89 16.5q152 0 151 -140v-1253q0 -59 -34.5 -77.5t-102.5 -18.5t-102.5 18.5t-34.5 77.5v971l-817 -989q-35 -41 -72 -59.5t-90 -18.5q-59 0 -99 18.5t-73 59.5l-819 989v-971q0 -59 -35 -77.5 t-103 -18.5q-66 0 -100.5 18.5t-34.5 77.5z" />
<glyph unicode="N" horiz-adv-x="2041" d="M96 88v1309q0 57 33 76.5t96 19.5q68 0 107 -17.5t86 -58.5l1255 -1069v1049q0 59 35 77.5t100 18.5q68 0 103 -18.5t35 -77.5v-1309q0 -59 -35 -77.5t-107 -18.5q-29 0 -47 2t-34.5 10t-35 21.5t-45.5 35.5l-1273 1074v-1047q0 -59 -35 -77.5t-103 -18.5 q-66 0 -100.5 18.5t-34.5 77.5z" />
<glyph unicode="O" horiz-adv-x="1964" d="M78 381v723q0 381 606 381h596q606 0 606 -381v-723q0 -381 -606 -381h-596q-606 0 -606 381zM348 381q0 -66 82 -113t262 -47h580q180 0 262 47t82 113v723q0 68 -82 114t-262 46h-580q-180 0 -262 -46.5t-82 -113.5v-723z" />
<glyph unicode="P" horiz-adv-x="2015" d="M96 88v1303q0 94 97 94h1161q139 0 250.5 -23.5t189.5 -66.5t120 -104.5t42 -137.5v-297q0 -76 -42 -137.5t-120 -104.5t-189.5 -66.5t-250.5 -23.5h-985v-436q0 -59 -35 -77.5t-103 -18.5q-66 0 -100.5 18.5t-34.5 77.5zM369 745h960q104 0 173 10.5t110 28t57.5 41 t16.5 52.5v256q0 27 -16.5 51t-57.5 41.5t-109.5 28t-173.5 10.5h-960v-519z" />
<glyph unicode="Q" horiz-adv-x="2004" d="M78 387v717q0 381 606 381h637q606 0 606 -381v-717q0 -121 -64.5 -201t-185.5 -125l131 -69q66 -35 66 -96q0 -47 -33 -70t-106 -23q-82 0 -138 29l-309 174h-604q-606 0 -606 381zM348 381q0 -66 82 -113t262 -47h621q100 0 165.5 12.5t105.5 34t56.5 51t16.5 62.5v723 q0 68 -82 114t-262 46h-621q-180 0 -262 -46.5t-82 -113.5v-723z" />
<glyph unicode="R" horiz-adv-x="2017" d="M96 88v1303q0 94 97 94h1150q139 0 251 -23.5t190 -66.5t120 -104.5t42 -137.5v-258q0 -76 -42 -137.5t-120 -104.5t-189.5 -66.5t-251.5 -23.5h-81h-157t-118 1t-92 3t-80 4v-4q33 -12 71 -25.5t93 -34t134 -51t196 -77.5l493 -199q66 -27 66 -92q0 -55 -36 -75.5 t-103 -20.5q-14 0 -36 1t-44.5 4t-44 8t-37.5 15l-1198 519v-451q0 -59 -35 -77.5t-103 -18.5q-66 0 -100.5 18.5t-34.5 77.5zM369 780h950q104 0 173 10.5t109.5 28t57 41t16.5 51.5v222q0 27 -16.5 51t-57 41.5t-109.5 28t-173 10.5h-950v-484z" />
<glyph unicode="S" horiz-adv-x="1816" d="M70 111q0 55 15 82.5t65 27.5h1009q180 0 255 46t75 114v102q0 66 -75 113t-255 47h-483q-606 0 -606 381v80q0 381 606 381h205q49 0 64.5 -27.5t15.5 -83.5q0 -55 -15.5 -82.5t-64.5 -27.5h-211q-180 0 -255 -46.5t-75 -113.5v-80q0 -66 74.5 -113t255.5 -47h483 q606 0 606 -381v-102q0 -381 -606 -381h-1003q-49 0 -64.5 27.5t-15.5 83.5z" />
<glyph unicode="T" horiz-adv-x="1716" d="M25 1374q0 55 15 83t64 28h1508q49 0 64.5 -27.5t15.5 -83.5q0 -55 -15.5 -82.5t-64.5 -27.5h-619v-1176q0 -59 -34.5 -77.5t-102.5 -18.5q-66 0 -100.5 18.5t-34.5 77.5v1176h-617q-49 0 -64 27.5t-15 82.5z" />
<glyph unicode="U" horiz-adv-x="2019" d="M88 381v1016q0 59 35 77.5t100 18.5q68 0 102.5 -18.5t34.5 -77.5v-1016q0 -66 81 -113t261 -47h615q180 0 261 47t81 113v1016q0 59 35 77.5t102 18.5q66 0 100.5 -18.5t34.5 -77.5v-1016q0 -381 -606 -381h-631q-606 0 -606 381z" />
<glyph unicode="V" horiz-adv-x="2195" d="M25 1384q0 23 14 42.5t37.5 35t51.5 23.5t54 8q27 0 54.5 -10t44.5 -33l827 -1190l819 1190q27 43 90 43q27 0 53.5 -8t49 -23.5t37 -35t14.5 -44.5t-17 -45l-890 -1274q-25 -35 -64 -53t-98 -18t-97 18.5t-63 52.5l-901 1274q-16 27 -16 47z" />
<glyph unicode="W" horiz-adv-x="2848" d="M25 1397q0 45 42 70.5t107 25.5q47 0 74.5 -15.5t42.5 -45.5l479 -1125l498 1084q29 59 61.5 80.5t93.5 21.5q66 0 93.5 -21.5t54.5 -80.5l495 -1084l492 1125q27 61 117 61q66 0 107.5 -25.5t41.5 -70.5q0 -23 -12 -47l-582 -1264q-43 -94 -168 -94q-55 0 -97 20.5 t-64 67.5l-484 1053l-485 -1053q-39 -88 -158 -88q-59 0 -102 22.5t-66 71.5l-569 1264q-12 25 -12 47z" />
<glyph unicode="X" horiz-adv-x="1943" d="M39 76q0 29 13.5 47t51.5 53l674 576l-651 548q-41 35 -54.5 53.5t-13.5 47.5q0 53 37 68.5t97 15.5q47 0 75.5 -7.5t53.5 -29.5l659 -555l647 555q27 23 57.5 30t79.5 7q25 0 48.5 -2t42 -11.5t29.5 -25.5t11 -45t-13 -47.5t-52 -53.5l-662 -565l668 -559 q41 -35 54.5 -53.5t13.5 -46.5q0 -55 -38 -69.5t-98 -14.5q-45 0 -71.5 7t-55.5 30l-675 565l-660 -565q-29 -23 -58.5 -30t-74.5 -7q-25 0 -49.5 2t-44 11t-30.5 25.5t-11 45.5z" />
<glyph unicode="Y" horiz-adv-x="1882" d="M23 1411q0 33 34.5 57.5t112.5 24.5q45 0 68.5 -9t46.5 -30l657 -639l655 639q20 20 45 29.5t70 9.5q78 0 113 -23.5t35 -58.5q0 -43 -43 -82l-740 -715v-526q0 -59 -34.5 -77.5t-102.5 -18.5q-66 0 -100.5 18.5t-34.5 77.5v526l-739 715q-43 39 -43 82z" />
<glyph unicode="Z" horiz-adv-x="1818" d="M37 141q0 35 10 56.5t33 40.5l1380 1210q25 23 59.5 30t82.5 7q23 0 45 -2t40.5 -11.5t30 -25.5t11.5 -45q0 -31 -15.5 -50.5t-50.5 -50.5l-1253 -1079h1235q49 0 64 -27.5t15 -82.5t-15 -83t-64 -28h-1383q-111 0 -168 28.5t-57 112.5z" />
<glyph unicode="[" horiz-adv-x="727" d="M199 -324v2065q0 106 100 106h317q43 0 55.5 -23.5t12.5 -70.5t-12.5 -69.5t-55.5 -22.5h-182v-1905h182q43 0 55.5 -22.5t12.5 -69.5t-12.5 -70.5t-55.5 -23.5h-317q-100 0 -100 106z" />
<glyph unicode="\" horiz-adv-x="1705" d="M0 1679q0 86 125 86q45 0 74.5 -11t52.5 -40l1415 -1880q23 -31 31 -50.5t8 -33.5q0 -86 -125 -86q-45 0 -74.5 11.5t-52.5 39.5l-1415 1880q-23 31 -31 50.5t-8 33.5z" />
<glyph unicode="]" horiz-adv-x="727" d="M43 -336q0 47 12.5 69.5t55.5 22.5h182v1905h-182q-43 0 -55.5 22.5t-12.5 69.5t12.5 70.5t55.5 23.5h317q100 0 100 -106v-2065q0 -106 -100 -106h-317q-43 0 -55.5 23.5t-12.5 70.5z" />
<glyph unicode="^" d="M80 588q0 16 12 39l377 792q18 39 58 56.5t96 17.5q55 0 95 -17.5t58 -56.5l377 -792q12 -23 12 -39q0 -35 -39 -54.5t-102 -19.5q-90 0 -111 47l-290 672l-291 -672q-20 -47 -111 -47q-63 0 -102 19.5t-39 54.5z" />
<glyph unicode="_" horiz-adv-x="1824" d="M0 -266q0 55 15.5 82.5t64.5 27.5h1665q49 0 64.5 -27.5t15.5 -82.5t-15.5 -83t-64.5 -28h-1665q-49 0 -64.5 27.5t-15.5 83.5z" />
<glyph unicode="`" horiz-adv-x="888" d="M78 1612q0 45 30.5 66.5t71.5 21.5q66 0 95.5 -6t58.5 -21l416 -225q61 -33 61 -88q0 -43 -30.5 -64.5t-71.5 -21.5q-66 0 -95.5 6t-58.5 20l-416 226q-61 33 -61 86z" />
<glyph unicode="a" horiz-adv-x="1859" d="M66 356v109q0 356 579 356h877v2q0 59 -77 93t-251 34h-193q-47 0 -61 25.5t-14 77.5q0 53 14 78.5t61 25.5h201q580 0 580 -356v-445q0 -356 -580 -356h-557q-580 0 -579 356zM326 356q0 -61 77.5 -105t249.5 -44h541q172 0 250 44t78 105v267h-869q-172 0 -249.5 -43 t-77.5 -107v-117z" />
<glyph unicode="b" horiz-adv-x="1806" d="M88 356v1041q0 59 32 77.5t97 18.5q66 0 98.5 -18.5t32.5 -77.5v-240h801q580 0 580 -356v-445q0 -356 -580 -356h-481q-580 0 -580 356zM348 356q0 -61 78 -105t250 -44h465q172 0 249.5 44t77.5 105v445q0 63 -77.5 106t-249.5 43h-793v-594z" />
<glyph unicode="c" horiz-adv-x="1828" d="M78 356v445q0 356 579 356h1024q47 0 61.5 -25.5t14.5 -78.5q0 -51 -14 -77t-62 -26h-1015q-172 0 -250 -43t-78 -106v-445q0 -61 78 -105t250 -44h1022q47 0 60 -25.5t13 -77.5q0 -51 -13 -77.5t-60 -26.5h-1031q-580 0 -579 356z" />
<glyph unicode="d" horiz-adv-x="1816" d="M78 356v445q0 356 579 356h811v240q0 59 33 77.5t98 18.5q66 0 98 -18.5t32 -77.5v-1041q0 -356 -580 -356h-492q-580 0 -579 356zM338 356q0 -61 78 -105t250 -44h475q172 0 249.5 44t77.5 105v594h-802q-172 0 -250 -43t-78 -106v-445z" />
<glyph unicode="e" horiz-adv-x="1771" d="M78 356v445q0 356 579 356h473q307 0 443.5 -88t136.5 -268v-236q0 -59 -22.5 -81.5t-100.5 -22.5h-1249v-105q0 -61 78 -105t250 -44h235q47 0 60.5 -25.5t13.5 -77.5q0 -51 -13.5 -77.5t-60.5 -26.5h-244q-580 0 -579 356zM338 664h1112v137q0 72 -77 110.5t-251 38.5 h-456q-172 0 -250 -43t-78 -106v-137z" />
<glyph unicode="f" horiz-adv-x="901" d="M88 88v1042q0 178 136 266.5t394 88.5h148q47 0 60.5 -26.5t13.5 -78.5q0 -51 -13.5 -76.5t-60.5 -25.5h-148q-139 0 -198.5 -30.5t-69.5 -90.5h416q47 0 60.5 -26.5t13.5 -77.5t-13.5 -77t-60.5 -26h-418v-862q0 -59 -32.5 -77.5t-98.5 -18.5t-97.5 18.5t-31.5 77.5z " />
<glyph unicode="g" horiz-adv-x="1794" d="M78 385v416q0 356 579 356h469q580 0 580 -356v-783q0 -178 -136 -266t-394 -88h-283q-47 0 -60.5 26.5t-13.5 78.5q0 51 13.5 76.5t60.5 25.5h283q152 0 211 38t59 109v11h-789q-580 0 -579 356zM338 381q0 -63 78 -106.5t250 -43.5h780v570q0 61 -78 105t-250 44h-452 q-172 0 -250 -44t-78 -105v-420z" />
<glyph unicode="h" horiz-adv-x="1810" d="M96 88v1309q0 59 32 77.5t97 18.5q66 0 98.5 -18.5t32.5 -77.5v-240h787q580 0 579 -356v-713q0 -59 -32.5 -77.5t-98.5 -18.5t-97.5 18.5t-31.5 77.5v713q0 63 -77.5 106t-249.5 43h-779v-862q0 -59 -32.5 -77.5t-98.5 -18.5t-97.5 18.5t-31.5 77.5z" />
<glyph unicode="i" horiz-adv-x="452" d="M63 1366q0 66 38 96.5t124 30.5t124 -30.5t38 -96.5t-38 -96.5t-124 -30.5t-124 30.5t-38 96.5zM96 88v967q0 59 32 77.5t97 18.5q66 0 98.5 -18.5t32.5 -77.5v-967q0 -59 -32.5 -77.5t-98.5 -18.5t-97.5 18.5t-31.5 77.5z" />
<glyph unicode="j" horiz-adv-x="573" d="M-295 -231q0 51 13.5 76.5t60.5 25.5h168q152 0 211 38t59 109v1037q0 59 33 77.5t98 18.5q66 0 97.5 -18.5t31.5 -77.5v-1037q0 -178 -136 -266t-394 -88h-168q-47 0 -60.5 26.5t-13.5 78.5zM184 1366q0 66 38 96.5t124 30.5t124 -30.5t38 -96.5t-38 -96.5t-124 -30.5 t-124 30.5t-38 96.5z" />
<glyph unicode="k" horiz-adv-x="1509" d="M96 88v1309q0 59 32 77.5t97 18.5q66 0 98.5 -18.5t32.5 -77.5v-697l840 443q27 14 60.5 18t97.5 4q41 0 70.5 -18.5t29.5 -56.5q0 -29 -16.5 -45.5t-40.5 -28.5l-824 -432l838 -424q59 -31 59 -86q0 -45 -35.5 -63.5t-107.5 -18.5q-66 0 -103.5 10t-54.5 21l-813 430 v-365q0 -59 -32.5 -77.5t-98.5 -18.5t-97.5 18.5t-31.5 77.5z" />
<glyph unicode="l" horiz-adv-x="452" d="M96 88v1309q0 59 32 77.5t97 18.5q66 0 98.5 -18.5t32.5 -77.5v-1309q0 -59 -32.5 -77.5t-98.5 -18.5t-97.5 18.5t-31.5 77.5z" />
<glyph unicode="m" horiz-adv-x="2402" d="M88 88v713q0 180 138.5 268t387.5 88h203q258 0 383 -102q127 102 385 102h203q250 0 388 -88t138 -268v-713q0 -59 -31.5 -77.5t-97.5 -18.5t-98.5 18.5t-32.5 77.5v713q0 63 -69.5 106t-241.5 43h-115q-86 0 -142 -11t-91 -31.5t-49.5 -48.5t-14.5 -58v-713 q0 -59 -32.5 -77.5t-98.5 -18.5q-70 0 -99.5 20.5t-29.5 75.5v713q0 31 -14.5 58.5t-49 48t-91 31.5t-142.5 11h-115q-172 0 -241.5 -43t-69.5 -106v-713q0 -59 -32.5 -77.5t-98.5 -18.5t-97.5 18.5t-31.5 77.5z" />
<glyph unicode="n" horiz-adv-x="1781" d="M88 88v713q0 356 580 356h446q580 0 580 -356v-713q0 -59 -33 -77.5t-98 -18.5q-66 0 -97.5 18.5t-31.5 77.5v713q0 63 -78 106t-250 43h-430q-172 0 -250 -43t-78 -106v-713q0 -59 -32.5 -77.5t-98.5 -18.5t-97.5 18.5t-31.5 77.5z" />
<glyph unicode="o" horiz-adv-x="1761" d="M78 356v445q0 356 579 356h447q580 0 579 -356v-445q0 -356 -579 -356h-447q-580 0 -579 356zM338 356q0 -61 78 -105t250 -44h430q172 0 249.5 44t77.5 105v445q0 63 -77.5 106t-249.5 43h-430q-172 0 -250 -43t-78 -106v-445z" />
<glyph unicode="p" horiz-adv-x="1816" d="M88 -248v1049q0 356 580 356h491q580 0 580 -356v-445q0 -356 -580 -356h-811v-248q0 -59 -32.5 -77.5t-98.5 -18.5t-97.5 18.5t-31.5 77.5zM348 207h803q172 0 250 43t78 106v445q0 61 -78 105t-250 44h-475q-172 0 -250 -44t-78 -105v-594z" />
<glyph unicode="q" horiz-adv-x="1794" d="M78 356v445q0 356 579 356h469q580 0 580 -356v-1049q0 -59 -32 -77.5t-97 -18.5q-66 0 -98.5 18.5t-32.5 77.5v248h-789q-580 0 -579 356zM338 356q0 -63 78 -106t250 -43h780v594q0 61 -78 105t-250 44h-452q-172 0 -250 -44t-78 -105v-445z" />
<glyph unicode="r" horiz-adv-x="897" d="M88 88v715q0 178 136 266t394 88h160q47 0 60.5 -26.5t13.5 -77.5t-13.5 -77t-60.5 -26h-160q-152 0 -211 -39t-59 -108v-715q0 -59 -32.5 -77.5t-98.5 -18.5t-97.5 18.5t-31.5 77.5z" />
<glyph unicode="s" horiz-adv-x="1615" d="M70 791v59q0 143 122.5 225t364.5 82h281q47 0 61 -25.5t14 -78.5q0 -51 -14 -77t-61 -26h-283q-117 0 -172 -27.5t-55 -74.5v-53q0 -47 57 -76t180 -29h453q287 0 414 -82t127 -229v-66q0 -74 -33 -132t-102.5 -98t-180 -61.5t-264.5 -21.5h-829q-47 0 -61.5 25.5 t-14.5 78.5q0 51 14 77t62 26h868q82 0 136 7t86 20.5t44 32t12 42.5v74q0 25 -12 43t-43 32.5t-83 21.5t-132 7h-459q-248 0 -372.5 81t-124.5 223z" />
<glyph unicode="t" horiz-adv-x="1005" d="M25 1053q0 51 13 77.5t60 26.5h117v240q0 59 32 77.5t97 18.5q66 0 98.5 -18.5t32.5 -77.5v-240h432q47 0 60.5 -26.5t13.5 -77.5t-13.5 -77t-60.5 -26h-432v-862q0 -59 -32.5 -77.5t-98.5 -18.5t-97.5 18.5t-31.5 77.5v862h-117q-47 0 -60 25.5t-13 77.5z" />
<glyph unicode="u" horiz-adv-x="1824" d="M88 356v713q0 59 33 77.5t98 18.5q66 0 97.5 -18.5t31.5 -77.5v-713q0 -63 78 -106t250 -43h473q172 0 250 43t78 106v713q0 59 32.5 77.5t98.5 18.5t97.5 -18.5t31.5 -77.5v-713q0 -356 -580 -356h-489q-580 0 -580 356z" />
<glyph unicode="v" horiz-adv-x="1974" d="M25 1087q0 35 45 56.5t108 21.5q35 0 71 -9t58 -38l686 -860l688 862q20 27 54 36t69 9q57 0 101.5 -20.5t44.5 -54.5q0 -20 -19 -46l-796 -997q-23 -29 -57 -42t-87 -13t-87 13t-56 42l-805 997q-18 20 -18 43z" />
<glyph unicode="w" horiz-adv-x="2424" d="M20 1092q0 35 39 54t103 19q90 0 110 -47l383 -860l430 827q25 47 52.5 63.5t81.5 16.5q31 0 50 -5t32.5 -14t23.5 -24.5t21 -36.5l413 -827l391 860q20 47 113 47q63 0 102 -19.5t39 -53.5q0 -18 -12 -39l-483 -987q-18 -39 -58.5 -56.5t-93.5 -17.5q-51 0 -91 16.5 t-58 52.5l-394 799l-409 -799q-36 -69 -145 -69h-3q-55 0 -95 17.5t-58 56.5l-471 987q-12 20 -13 39z" />
<glyph unicode="x" horiz-adv-x="1742" d="M43 59q0 20 11.5 35t45.5 43l584 453l-565 430q-35 29 -46.5 45t-11.5 35q0 41 36 53t108 12q55 0 82.5 -6t50.5 -22l541 -420l530 420q23 16 49.5 22t91.5 6q63 0 103.5 -11t40.5 -56q0 -20 -12.5 -34.5t-47.5 -43.5l-571 -445l577 -438q35 -29 47.5 -43t12.5 -37 q0 -43 -36 -54t-103 -11q-59 0 -88 6t-52 22l-553 429l-542 -429q-25 -18 -53.5 -23t-82.5 -5q-68 0 -107.5 10t-39.5 57z" />
<glyph unicode="y" horiz-adv-x="1802" d="M88 385v684q0 59 32 77.5t97 18.5q66 0 98.5 -18.5t32.5 -77.5v-686q0 -63 78 -105t250 -42h770v833q0 59 31.5 77.5t97.5 18.5t98.5 -18.5t32.5 -77.5v-1051q0 -178 -136 -266t-394 -88h-283q-47 0 -60.5 26.5t-13.5 78.5q0 51 13.5 76.5t60.5 25.5h283q152 0 211 38 t59 109v11h-778q-580 0 -580 356z" />
<glyph unicode="z" horiz-adv-x="1771" d="M53 106q0 29 11.5 50.5t39.5 44.5l1262 936q23 16 57.5 22t92.5 6q57 0 98 -10t41 -55q0 -25 -14.5 -40.5t-47.5 -37.5l-1118 -815h1135q47 0 60 -26.5t13 -78.5q0 -51 -13 -76.5t-60 -25.5h-1358q-111 0 -155 25.5t-44 80.5z" />
<glyph unicode="{" horiz-adv-x="727" d="M115 709q0 57 10 74.5t35 23.5q23 6 41 12t31.5 19.5t20.5 36t7 59.5v594q0 147 70.5 233t230.5 86q66 0 94.5 -18.5t28.5 -71.5q0 -35 -10 -53t-23.5 -27.5t-29 -12.5t-27.5 -3q-53 -4 -75.5 -40t-22.5 -93v-598q0 -98 -29 -156.5t-88 -64.5q59 -6 88 -65.5t29 -156.5 v-598q0 -57 22.5 -93t75.5 -40q12 0 27.5 -3t29 -12t23.5 -28.5t10 -52.5q0 -53 -28.5 -71.5t-94.5 -18.5q-160 0 -230.5 86t-70.5 233v594q0 37 -7 59.5t-20.5 36t-32 19.5t-40.5 12q-25 6 -35 23.5t-10 75.5z" />
<glyph unicode="|" horiz-adv-x="731" d="M248 -344v2105q0 53 28.5 69.5t88.5 16.5q59 0 88.5 -16t29.5 -70v-2105q0 -53 -29.5 -69.5t-88.5 -16.5t-88 16.5t-29 69.5z" />
<glyph unicode="}" horiz-adv-x="727" d="M43 -340q0 33 10 52.5t23.5 28.5t29 12t27.5 3q53 4 75.5 40t22.5 93v598q0 96 29 155.5t88 66.5q-59 6 -88 64t-29 157v598q0 57 -22.5 93t-75.5 40q-12 0 -27.5 3t-29 12.5t-23.5 27.5t-10 53q0 53 28.5 71.5t94.5 18.5q160 0 230.5 -86t70.5 -233v-594q0 -37 7 -59.5 t20.5 -36t32 -19.5t40.5 -12q25 -6 35 -23.5t10 -74.5t-10 -75t-35 -24q-23 -6 -41 -12t-31.5 -19.5t-20.5 -36t-7 -59.5v-594q0 -147 -70.5 -233t-230.5 -86q-66 0 -94.5 18.5t-28.5 71.5z" />
<glyph unicode="~" d="M78 651q0 63 27.5 115.5t71.5 89.5t101.5 56.5t116.5 19.5q74 0 132.5 -26.5t108.5 -59.5t94 -59.5t87 -26.5q47 0 85 32.5t67 81.5q16 29 34.5 43.5t71.5 14.5q47 0 70.5 -16.5t23.5 -73.5q0 -63 -27.5 -115.5t-71.5 -89.5t-101.5 -56.5t-118.5 -19.5q-76 0 -136.5 26.5 t-109.5 59.5t-92 59.5t-84 26.5q-47 0 -84 -34.5t-65 -80.5q-16 -29 -36 -43t-73 -14q-45 0 -68.5 16.5t-23.5 73.5z" />
<glyph unicode="&#xa1;" horiz-adv-x="516" d="M96 1079q0 66 38 96.5t124 30.5t124 -30.5t38 -96.5t-38 -96.5t-124 -30.5t-124 30.5t-38 96.5zM123 -199v975q0 59 35 77.5t100 18.5q68 0 102.5 -18t34.5 -78v-975q0 -59 -34.5 -77.5t-102.5 -18.5q-66 0 -100.5 18.5t-34.5 77.5z" />
<glyph unicode="&#xa2;" horiz-adv-x="1679" d="M78 500v444q0 356 579 356h140v99q0 53 28.5 69.5t87.5 16.5t89 -16.5t30 -69.5v-99h486q47 0 61 -25.5t14 -78.5q0 -51 -14 -76.5t-61 -25.5h-486v-744h492q47 0 60 -25.5t13 -76.5t-13 -78t-60 -27h-492v-65q0 -53 -29.5 -69.5t-89.5 -16.5q-59 0 -87.5 16.5 t-28.5 69.5v65h-140q-580 0 -579 357zM338 500q0 -61 78 -105.5t250 -44.5h131v744h-131q-172 0 -250 -43t-78 -107v-444z" />
<glyph unicode="&#xa3;" horiz-adv-x="1716" d="M25 111q0 55 15 82.5t64 27.5h207v426h-141q-47 0 -60.5 25.5t-13.5 77.5q0 51 13.5 77.5t60.5 26.5h141v250q0 381 609 381h145q49 0 63.5 -29t14.5 -84q0 -53 -14.5 -80.5t-63.5 -27.5h-139q-180 0 -261 -47.5t-81 -112.5v-250h868q47 0 60.5 -26.5t13.5 -77.5 t-13.5 -77t-60.5 -26h-868v-426h966q49 0 64.5 -27.5t15.5 -82.5t-15.5 -83t-64.5 -28h-1446q-49 0 -64 27.5t-15 83.5z" />
<glyph unicode="&#xa4;" d="M68 295q0 20 8 41.5t28 42.5l142 137q-31 47 -48.5 102.5t-17.5 114.5t17.5 114.5t48.5 102.5l-142 140q-37 37 -36 81q0 45 35.5 78t80.5 33q23 0 44.5 -8t43.5 -31l134 -135q47 31 102 48.5t115 17.5q59 0 114.5 -18.5t102.5 -47.5l135 135q41 41 88 41q45 0 80 -33.5 t35 -79.5q0 -45 -37 -81l-144 -142q31 -47 48.5 -101t17.5 -114q0 -59 -17.5 -113.5t-46.5 -101.5l142 -139q37 -37 37 -84q0 -45 -35 -79t-80 -34q-47 0 -88 41l-133 135q-47 -31 -103.5 -48t-115.5 -17q-61 0 -116.5 17.5t-100.5 47.5l-134 -135q-39 -39 -90 -39 q-45 0 -79.5 32t-34.5 79zM367 733q0 -53 19.5 -100t54 -82t81.5 -54.5t101 -19.5q53 0 100 19.5t82 54.5t54.5 82t19.5 100q0 51 -19.5 98.5t-54.5 81t-82 54t-100 20.5t-100.5 -20.5t-82 -54t-54 -81t-19.5 -98.5z" />
<glyph unicode="&#xa5;" horiz-adv-x="1734" d="M94 1411q0 33 35 57.5t113 24.5q45 0 68.5 -9t45.5 -30l512 -496l510 496q20 20 45 29.5t70 9.5q78 0 112.5 -23.5t34.5 -58.5q0 -43 -43 -82l-575 -553h510q53 0 69.5 -28.5t16.5 -88.5q0 -59 -16.5 -88.5t-69.5 -29.5h-528v-113h528q53 0 69.5 -28.5t16.5 -88.5 q0 -59 -16.5 -88.5t-69.5 -29.5h-528v-105q0 -59 -35 -77.5t-103 -18.5q-66 0 -100.5 18.5t-34.5 77.5v105h-528q-53 0 -69.5 29.5t-16.5 88.5t16.5 88t69.5 29h528v113h-528q-53 0 -69.5 29.5t-16.5 88.5t16.5 88t69.5 29h508l-574 553q-43 39 -43 82z" />
<glyph unicode="&#xa6;" horiz-adv-x="731" d="M248 -262v754q0 53 28.5 69.5t88.5 16.5q59 0 88.5 -16.5t29.5 -69.5v-754q0 -53 -29.5 -69.5t-88.5 -16.5t-88 16.5t-29 69.5zM248 926v753q0 53 28.5 69.5t88.5 16.5q59 0 88.5 -16t29.5 -70v-753q0 -53 -29.5 -69.5t-88.5 -16.5t-88 16t-29 70z" />
<glyph unicode="&#xa7;" horiz-adv-x="1554" d="M104 -236q0 109 103 109h799q209 0 208 172q0 152 -229 152h-330q-537 0 -536 356v100q0 156 164 242q-164 84 -164 248q0 342 512 342h51q109 0 109 -107q0 -102 -109 -102h-104q-229 0 -230 -133q0 -147 256 -148h348q498 0 498 -362v-90q0 -170 -166 -248 q166 -88 166 -250q0 -383 -485 -383h-758q-102 0 -103 102zM348 555q0 -147 268 -147h390q209 0 208 135v90q0 152 -233 151h-403q-229 0 -230 -131v-98z" />
<glyph unicode="&#xa8;" horiz-adv-x="950" d="M78 1427q0 66 38 96.5t124 30.5t123.5 -30.5t37.5 -96.5t-37.5 -96.5t-123.5 -30.5t-124 30.5t-38 96.5zM549 1427q0 66 38 96.5t124 30.5t123.5 -30.5t37.5 -96.5t-37.5 -96.5t-123.5 -30.5t-124 30.5t-38 96.5z" />
<glyph unicode="&#xa9;" horiz-adv-x="1771" d="M96 395v695q0 186 110.5 290.5t358.5 104.5h641q248 0 358.5 -104.5t110.5 -290.5v-695q0 -186 -110.5 -290.5t-358.5 -104.5h-641q-248 0 -358.5 104.5t-110.5 290.5zM225 410q0 -141 85 -209t257 -68h637q172 0 257 67.5t85 209.5v665q0 141 -85 209t-257 68h-637 q-172 0 -257 -67.5t-85 -209.5v-665zM395 563v381q0 201 320 201h530q27 0 34 -14.5t7 -43.5t-7 -44t-34 -15h-526q-94 0 -137 -24.5t-43 -59.5v-381q0 -35 43 -59.5t137 -24.5h526q27 0 34 -15t7 -44t-7 -43.5t-34 -14.5h-530q-319 0 -320 201z" />
<glyph unicode="&#xaa;" horiz-adv-x="1083" d="M51 1028v39q0 213 334 213h467q-4 27 -39 42t-125 15h-106q-37 0 -47.5 19.5t-10.5 54.5t10.5 54.5t47.5 19.5h110q336 0 336 -213v-244q0 -213 -336 -213h-307q-334 0 -334 213zM225 1028q0 -29 39 -47t125 -18h299q86 0 125 18t39 47v109h-463q-86 0 -125 -18.5 t-39 -47.5v-43z" />
<glyph unicode="&#xab;" horiz-adv-x="1171" d="M57 0zM57 578q0 41 9.5 65.5t25.5 40.5l486 467q14 14 28 14q23 0 36 -33.5t13 -80.5q0 -27 -6 -53.5t-24 -43.5l-398 -379l406 -385q16 -14 22.5 -39.5t6.5 -50.5q0 -43 -13.5 -75.5t-34.5 -32.5q-16 0 -30 14l-492 465q-35 31 -35 107zM510 578q0 41 9.5 65.5 t25.5 40.5l486 467q14 14 28 14q23 0 36 -33.5t13 -80.5q0 -27 -6 -53.5t-24 -43.5l-398 -379l406 -385q16 -14 22.5 -39.5t6.5 -50.5q0 -43 -13.5 -75.5t-34.5 -32.5q-16 0 -30 14l-492 465q-35 31 -35 107z" />
<glyph unicode="&#xac;" d="M78 741q0 59 16.5 88t69.5 29h930q41 0 58 -20.5t17 -59.5v-700q0 -53 -29.5 -69.5t-88.5 -16.5t-88 16.5t-29 69.5v545h-770q-53 0 -69.5 29.5t-16.5 88.5z" />
<glyph unicode="&#xad;" horiz-adv-x="966" d="M25 629zM25 731q0 51 13 78t60 27h770q47 0 60.5 -27t13.5 -78t-13.5 -76.5t-60.5 -25.5h-770q-47 0 -60 25.5t-13 76.5z" />
<glyph unicode="&#xae;" horiz-adv-x="1771" d="M96 395v695q0 186 110.5 290.5t358.5 104.5h641q248 0 358.5 -104.5t110.5 -290.5v-695q0 -186 -110.5 -290.5t-358.5 -104.5h-641q-248 0 -358.5 104.5t-110.5 290.5zM225 410q0 -141 85 -209t257 -68h637q172 0 257 67.5t85 209.5v665q0 141 -85 209t-257 68h-637 q-172 0 -257 -67.5t-85 -209.5v-665zM410 410v686q0 49 51 49h606q147 0 232 -48t85 -126v-137q0 -78 -85 -126.5t-232 -48.5h-260l502 -202q35 -10 34 -49q0 -49 -63 -50q-66 0 -94 15l-631 274v-237q0 -31 -19.5 -41.5t-54.5 -10.5t-53 10.5t-18 41.5zM555 774h500 q111 0 149.5 20.5t38.5 49.5v114q0 29 -39 49.5t-149 20.5h-500v-254z" />
<glyph unicode="&#xaf;" horiz-adv-x="1067" d="M78 1438q0 47 12 70.5t55 23.5h777q41 0 54 -23.5t13 -70.5t-13 -71t-54 -24h-777q-43 0 -55 24t-12 71z" />
<glyph unicode="&#xb0;" horiz-adv-x="946" d="M96 1145v360q0 197 289 197h174q291 0 291 -197v-360q0 -199 -291 -199h-174q-289 0 -289 199zM264 1174q0 -29 33 -50.5t104 -21.5h142q72 0 104.5 21.5t32.5 50.5v303q0 29 -33 49t-104 20h-142q-72 0 -104.5 -20.5t-32.5 -48.5v-303z" />
<glyph unicode="&#xb1;" d="M78 0zM78 118q0 59 16.5 88t69.5 29h919q53 0 69.5 -28.5t16.5 -88.5q0 -59 -16 -88.5t-70 -29.5h-919q-53 0 -69.5 29.5t-16.5 88.5zM78 884q0 59 16.5 88t69.5 29h342v344q0 53 28.5 69.5t88.5 16.5q59 0 88.5 -16.5t29.5 -69.5v-344h342q53 0 69.5 -28.5t16.5 -88.5 q0 -59 -16 -88.5t-70 -29.5h-342v-340q0 -53 -29.5 -69.5t-88.5 -16.5t-88 16t-29 70v340h-342q-53 0 -69.5 29.5t-16.5 88.5z" />
<glyph unicode="&#xb2;" horiz-adv-x="1208" d="M61 635zM61 707v198q0 227 351 228h387q90 0 128 20.5t38 48.5v56q0 31 -38 51t-128 20h-174q-39 0 -50.5 19.5t-11.5 58.5t11.5 58.5t50.5 19.5h170q350 0 350 -227v-56q0 -225 -350 -225h-387q-90 0 -127 -20.5t-37 -51.5v-116h841q35 0 47.5 -17.5t12.5 -58.5 q0 -39 -12.5 -58.5t-47.5 -19.5h-954q-70 0 -70 72z" />
<glyph unicode="&#xb3;" horiz-adv-x="1185" d="M59 635zM59 713q0 41 12.5 58.5t47.5 17.5h686q51 0 80.5 5t46 16t21.5 28.5t5 42.5q0 27 -6 46t-24.5 31.5t-51 18.5t-85.5 6h-670q-39 0 -49.5 19.5t-10.5 58.5t10.5 58.5t49.5 19.5h678q92 0 125.5 18.5t33.5 77.5q0 49 -29.5 71.5t-125.5 22.5h-170q-35 0 -47.5 19.5 t-12.5 58.5t12.5 58.5t47.5 19.5h155q76 0 140.5 -11.5t109.5 -40t71 -76.5t26 -124q0 -55 -17.5 -100t-64.5 -76q43 -23 67.5 -61.5t24.5 -110.5q0 -78 -30 -126t-79 -76t-111.5 -38t-127.5 -10h-678q-35 0 -47.5 19.5t-12.5 58.5z" />
<glyph unicode="&#xb4;" horiz-adv-x="888" d="M78 1360q0 55 61 88l416 225q29 14 58.5 20.5t95.5 6.5q41 0 71.5 -21.5t30.5 -66.5q0 -53 -61 -86l-416 -226q-29 -14 -58.5 -20t-95.5 -6q-41 0 -71.5 21.5t-30.5 64.5z" />
<glyph unicode="&#xb6;" horiz-adv-x="1521" d="M47 1151q0 334 432 334h873q74 0 73 -74v-1669q0 -47 -27.5 -63.5t-84.5 -16.5q-55 0 -83 16.5t-28 63.5v1065h-321v-1065q0 -47 -28 -61.5t-85 -14.5q-55 0 -83 14.5t-28 61.5v1065h-165q-444 0 -445 344zM262 1151q0 -166 201 -166h739v322h-751q-189 0 -189 -156z" />
<glyph unicode="&#xb7;" horiz-adv-x="516" d="M96 606zM96 733q0 66 38 96.5t124 30.5t124 -31t38 -96q0 -66 -38 -96.5t-124 -30.5t-124 30.5t-38 96.5z" />
<glyph unicode="&#xb8;" horiz-adv-x="466" d="M78 -356q0 12 2 29.5t6 35.5l31 180q8 47 38.5 64.5t102.5 17.5t101.5 -16t29.5 -64q0 -10 -1 -23t-3 -24l-33 -192q-8 -47 -38.5 -64.5t-100.5 -17.5q-72 0 -103.5 16.5t-31.5 57.5z" />
<glyph unicode="&#xb9;" horiz-adv-x="317" d="M68 631zM68 701v718q0 41 22.5 55.5t67.5 14.5t68.5 -14.5t23.5 -55.5v-718q0 -41 -23.5 -55.5t-68.5 -14.5t-67.5 14.5t-22.5 55.5z" />
<glyph unicode="&#xba;" horiz-adv-x="1030" d="M57 1028v244q0 213 336 213h244q336 0 336 -213v-244q0 -213 -336 -213h-244q-336 0 -336 213zM233 1028q0 -29 39 -47t125 -18h236q86 0 125 18t39 47v244q0 29 -39 47t-125 18h-236q-86 0 -125 -18.5t-39 -46.5v-244z" />
<glyph unicode="&#xbb;" horiz-adv-x="1171" d="M57 0zM57 100q0 25 6.5 50.5t22.5 39.5l406 385l-398 379q-18 16 -24.5 43t-6.5 54q0 47 13.5 80.5t36.5 33.5q14 0 28 -14l486 -467q16 -16 25.5 -40.5t9.5 -65.5q0 -76 -35 -107l-492 -465q-14 -14 -31 -14q-20 0 -33.5 32.5t-13.5 75.5zM510 100q0 25 6.5 50.5 t22.5 39.5l406 385l-398 379q-18 16 -24.5 43t-6.5 54q0 47 13.5 80.5t36.5 33.5q14 0 28 -14l486 -467q16 -16 25.5 -40.5t9.5 -65.5q0 -76 -35 -107l-492 -465q-14 -14 -31 -14q-20 0 -33.5 32.5t-13.5 75.5z" />
<glyph unicode="&#xbc;" horiz-adv-x="2185" d="M78 0zM78 55q0 6 5 20.5t23 41.5l1014 1339q16 23 38.5 30t55.5 7q90 0 90 -63q0 -10 -6 -23.5t-22 -36.5l-1014 -1339q-31 -39 -94 -39q-90 0 -90 63zM230 701v718q0 41 22.5 55.5t67.5 14.5t68.5 -14.5t23.5 -55.5v-718q0 -41 -23.5 -55.5t-68.5 -14.5t-67.5 14.5 t-22.5 55.5zM962 279v505q0 41 24 55.5t69 14.5t67.5 -14.5t22.5 -55.5v-413h780v413q0 41 23.5 55.5t68.5 14.5t67.5 -14.5t22.5 -55.5v-718q0 -41 -22.5 -55.5t-67.5 -14.5t-68.5 14.5t-23.5 55.5v151h-891q-29 0 -50.5 13.5t-21.5 48.5z" />
<glyph unicode="&#xbd;" horiz-adv-x="1857" d="M78 0zM78 55q0 6 5 20.5t23 41.5l1014 1339q16 23 38.5 30t55.5 7q90 0 90 -63q0 -10 -6 -23.5t-22 -36.5l-1014 -1339q-31 -39 -94 -39q-90 0 -90 63zM230 701v718q0 41 22.5 55.5t67.5 14.5t68.5 -14.5t23.5 -55.5v-718q0 -41 -23.5 -55.5t-68.5 -14.5t-67.5 14.5 t-22.5 55.5zM696 72v198q0 227 351 228h387q90 0 128 20.5t38 48.5v56q0 31 -38 51t-128 20h-174q-39 0 -50.5 19.5t-11.5 58.5t11.5 58.5t50.5 19.5h170q350 0 350 -227v-56q0 -225 -350 -225h-387q-90 0 -127 -20.5t-37 -51.5v-116h841q35 0 47.5 -17.5t12.5 -58.5 q0 -39 -12.5 -58.5t-47.5 -19.5h-954q-70 0 -70 72z" />
<glyph unicode="&#xbe;" horiz-adv-x="2869" d="M77 713q0 41 12.5 58.5t47.5 17.5h686q51 0 80.5 5t46 16t21.5 28.5t5 42.5q0 27 -6 46t-24.5 31.5t-51 18.5t-85.5 6h-670q-39 0 -49.5 19.5t-10.5 58.5t10.5 58.5t49.5 19.5h678q92 0 125.5 18.5t33.5 77.5q0 49 -29.5 71.5t-125.5 22.5h-170q-35 0 -47.5 19.5 t-12.5 58.5t12.5 58.5t47.5 19.5h155q76 0 140.5 -11.5t109.5 -40t71 -76.5t26 -124q0 -55 -17.5 -100t-64.5 -76q43 -23 67.5 -61.5t24.5 -110.5q0 -78 -30 -126t-79 -76t-111.5 -38t-127.5 -10h-678q-35 0 -47.5 19.5t-12.5 58.5zM78 0zM762 55q0 6 5 20.5t23 41.5 l1014 1339q16 23 38.5 30t55.5 7q90 0 90 -63q0 -10 -6 -23.5t-22 -36.5l-1014 -1339q-31 -39 -94 -39q-90 0 -90 63zM1646 279v505q0 41 24 55.5t69 14.5t67.5 -14.5t22.5 -55.5v-413h780v413q0 41 23.5 55.5t68.5 14.5t67.5 -14.5t22.5 -55.5v-718q0 -41 -22.5 -55.5 t-67.5 -14.5t-68.5 14.5t-23.5 55.5v151h-891q-29 0 -50.5 13.5t-21.5 48.5z" />
<glyph unicode="&#xbf;" horiz-adv-x="1374" d="M59 94v139q0 193 150.5 284t456.5 91h280q51 0 62.5 18.5t11.5 63.5v88q0 57 33.5 75.5t99.5 18.5t99.5 -18t33.5 -76v-114q0 -76 -29.5 -128.5t-78 -84t-109.5 -45t-125 -13.5h-285q-180 0 -258.5 -47t-78.5 -113v-139q0 -68 78.5 -114t258.5 -46h86q49 0 64.5 -27.5 t15.5 -82.5t-15 -83t-65 -28h-79q-606 0 -607 381zM991 1079q0 66 38 96.5t124 30.5t124 -30.5t38 -96.5t-38 -96.5t-124 -30.5t-124 31t-38 96z" />
<glyph unicode="&#xc0;" horiz-adv-x="2131" d="M25 0zM25 100q0 20 14 45l840 1274q23 35 61.5 53.5t99.5 18.5q59 0 97.5 -18.5t62.5 -53.5l893 -1274q14 -23 14 -47q0 -23 -13 -43t-34.5 -34.5t-48 -22.5t-53.5 -8q-29 0 -51.5 9t-38.5 32l-242 352h-1139l-227 -352q-14 -23 -37.5 -32t-50.5 -9q-25 0 -51.5 8 t-48 23.5t-34.5 35t-13 43.5zM596 1940q0 45 30.5 66.5t71.5 21.5q66 0 95.5 -6t58.5 -21l416 -225q61 -33 61 -88q0 -43 -30.5 -64.5t-71.5 -21.5q-66 0 -95.5 6t-58.5 20l-416 226q-61 33 -61 86zM629 604h846l-435 637z" />
<glyph unicode="&#xc1;" horiz-adv-x="2131" d="M25 0zM25 100q0 20 14 45l840 1274q23 35 61.5 53.5t99.5 18.5q59 0 97.5 -18.5t62.5 -53.5l893 -1274q14 -23 14 -47q0 -23 -13 -43t-34.5 -34.5t-48 -22.5t-53.5 -8q-29 0 -51.5 9t-38.5 32l-242 352h-1139l-227 -352q-14 -23 -37.5 -32t-50.5 -9q-25 0 -51.5 8 t-48 23.5t-34.5 35t-13 43.5zM629 604h846l-435 637zM801 1688q0 55 61 88l416 225q29 14 58.5 20.5t95.5 6.5q41 0 71.5 -21.5t30.5 -66.5q0 -53 -61 -86l-416 -226q-29 -14 -58.5 -20t-95.5 -6q-41 0 -71.5 21.5t-30.5 64.5z" />
<glyph unicode="&#xc2;" horiz-adv-x="2131" d="M25 0zM25 100q0 20 14 45l840 1274q23 35 61.5 53.5t99.5 18.5q59 0 97.5 -18.5t62.5 -53.5l893 -1274q14 -23 14 -47q0 -23 -13 -43t-34.5 -34.5t-48 -22.5t-53.5 -8q-29 0 -51.5 9t-38.5 32l-242 352h-1139l-227 -352q-14 -23 -37.5 -32t-50.5 -9q-25 0 -51.5 8 t-48 23.5t-34.5 35t-13 43.5zM629 604h846l-435 637zM692 1674q0 20 16 38l225 267q20 25 51 37t81 12q49 0 79.5 -12.5t51.5 -36.5l225 -267q16 -18 16 -38q0 -33 -39 -52.5t-92 -19.5q-31 0 -62.5 9t-49.5 32l-129 158l-129 -158q-18 -23 -50 -32t-63 -9q-53 0 -92 19.5 t-39 52.5z" />
<glyph unicode="&#xc3;" horiz-adv-x="2131" d="M25 0zM25 100q0 20 14 45l840 1274q23 35 61.5 53.5t99.5 18.5q59 0 97.5 -18.5t62.5 -53.5l893 -1274q14 -23 14 -47q0 -23 -13 -43t-34.5 -34.5t-48 -22.5t-53.5 -8q-29 0 -51.5 9t-38.5 32l-242 352h-1139l-227 -352q-14 -23 -37.5 -32t-50.5 -9q-25 0 -51.5 8 t-48 23.5t-34.5 35t-13 43.5zM610 1766q0 47 12 70.5t55 23.5h777q41 0 54 -23.5t13 -70.5t-13 -71t-54 -24h-777q-43 0 -55 24t-12 71zM629 604h846l-435 637z" />
<glyph unicode="&#xc4;" horiz-adv-x="2131" d="M25 0zM25 100q0 20 14 45l840 1274q23 35 61.5 53.5t99.5 18.5q59 0 97.5 -18.5t62.5 -53.5l893 -1274q14 -23 14 -47q0 -23 -13 -43t-34.5 -34.5t-48 -22.5t-53.5 -8q-29 0 -51.5 9t-38.5 32l-242 352h-1139l-227 -352q-14 -23 -37.5 -32t-50.5 -9q-25 0 -51.5 8 t-48 23.5t-34.5 35t-13 43.5zM629 604h846l-435 637zM668 1755q0 66 38 96.5t124 30.5t123.5 -30.5t37.5 -96.5t-37.5 -96.5t-123.5 -30.5t-124 30.5t-38 96.5zM1139 1755q0 66 38 96.5t124 30.5t123.5 -30.5t37.5 -96.5t-37.5 -96.5t-123.5 -30.5t-124 30.5t-38 96.5z" />
<glyph unicode="&#xc5;" horiz-adv-x="2131" d="M25 0zM25 100q0 20 14 45l840 1274q23 35 61.5 53.5t99.5 18.5q59 0 97.5 -18.5t62.5 -53.5l893 -1274q14 -23 14 -47q0 -23 -13 -43t-34.5 -34.5t-48 -22.5t-53.5 -8q-29 0 -51.5 9t-38.5 32l-242 352h-1139l-227 -352q-14 -23 -37.5 -32t-50.5 -9q-25 0 -51.5 8 t-48 23.5t-34.5 35t-13 43.5zM629 604h846l-435 637zM791 1745v74q0 63 13 104t42 64.5t75 32t111 8.5h66q66 0 112 -8.5t74.5 -32t42 -64.5t13.5 -104v-74q0 -66 -13.5 -105.5t-42 -63t-74.5 -32t-112 -8.5h-66q-66 0 -111.5 8.5t-74.5 32t-42 63.5t-13 105zM926 1745 q0 -59 20.5 -75.5t98.5 -16.5h41q78 0 98.5 16.5t20.5 75.5v74q0 59 -20.5 75.5t-98.5 16.5h-41q-78 0 -98.5 -16.5t-20.5 -75.5v-74z" />
<glyph unicode="&#xc6;" horiz-adv-x="2959" d="M25 100q0 20 14 45l835 1268q23 35 62 53.5t100 18.5h1127q47 0 62.5 -27.5t15.5 -83.5q0 -55 -15.5 -82.5t-62.5 -27.5h-559v-422h1206q49 0 64.5 -28t15.5 -83t-15.5 -82.5t-64.5 -27.5h-1206v-240q0 -66 81.5 -113t262.5 -47h856q49 0 64.5 -27.5t15.5 -82.5 q0 -53 -15.5 -82t-64.5 -29h-865q-606 0 -606 381v2h-846l-227 -352q-14 -23 -37.5 -32t-50.5 -9q-25 0 -51.5 8t-48 23.5t-34.5 35t-13 43.5zM629 604h704v660h-278z" />
<glyph unicode="&#xc7;" horiz-adv-x="1835" d="M78 0zM78 381v723q0 381 606 381h1004q49 0 64 -27.5t15 -83.5q0 -55 -15 -82.5t-64 -27.5h-996q-180 0 -262 -46.5t-82 -113.5v-723q0 -66 82 -113t262 -47h998q49 0 63 -27.5t14 -82.5q0 -53 -14 -82t-63 -29h-1006q-606 0 -606 381zM762 -356q0 12 2 29.5t6 35.5 l31 180q8 47 38.5 64.5t102.5 17.5t101.5 -16t29.5 -64q0 -10 -1 -23t-3 -24l-33 -192q-8 -47 -38.5 -64.5t-100.5 -17.5q-72 0 -103.5 16.5t-31.5 57.5z" />
<glyph unicode="&#xc8;" horiz-adv-x="1826" d="M78 0zM78 381v723q0 381 606 381h305q47 0 62.5 -27.5t15.5 -83.5q0 -55 -15.5 -82.5t-62.5 -27.5h-297q-180 0 -262 -46.5t-82 -113.5v-262h1329q49 0 64.5 -28t15.5 -83t-15.5 -82.5t-64.5 -27.5h-1329v-240q0 -66 82 -113t262 -47h979q49 0 64.5 -27.5t15.5 -82.5 q0 -53 -15.5 -82t-64.5 -29h-987q-606 0 -606 381zM383 1940q0 45 30.5 66.5t71.5 21.5q66 0 95.5 -6t58.5 -21l416 -225q61 -33 61 -88q0 -43 -30.5 -64.5t-71.5 -21.5q-66 0 -95.5 6t-58.5 20l-416 226q-61 33 -61 86z" />
<glyph unicode="&#xc9;" horiz-adv-x="1826" d="M78 0zM78 381v723q0 381 606 381h305q47 0 62.5 -27.5t15.5 -83.5q0 -55 -15.5 -82.5t-62.5 -27.5h-297q-180 0 -262 -46.5t-82 -113.5v-262h1329q49 0 64.5 -28t15.5 -83t-15.5 -82.5t-64.5 -27.5h-1329v-240q0 -66 82 -113t262 -47h979q49 0 64.5 -27.5t15.5 -82.5 q0 -53 -15.5 -82t-64.5 -29h-987q-606 0 -606 381zM588 1688q0 55 61 88l416 225q29 14 58.5 20.5t95.5 6.5q41 0 71.5 -21.5t30.5 -66.5q0 -53 -61 -86l-416 -226q-29 -14 -58.5 -20t-95.5 -6q-41 0 -71.5 21.5t-30.5 64.5z" />
<glyph unicode="&#xca;" horiz-adv-x="1826" d="M78 0zM78 381v723q0 381 606 381h305q47 0 62.5 -27.5t15.5 -83.5q0 -55 -15.5 -82.5t-62.5 -27.5h-297q-180 0 -262 -46.5t-82 -113.5v-262h1329q49 0 64.5 -28t15.5 -83t-15.5 -82.5t-64.5 -27.5h-1329v-240q0 -66 82 -113t262 -47h979q49 0 64.5 -27.5t15.5 -82.5 q0 -53 -15.5 -82t-64.5 -29h-987q-606 0 -606 381zM479 1674q0 20 16 38l225 267q20 25 51 37t81 12q49 0 79.5 -12.5t51.5 -36.5l225 -267q16 -18 16 -38q0 -33 -39 -52.5t-92 -19.5q-31 0 -62.5 9t-49.5 32l-129 158l-129 -158q-18 -23 -50 -32t-63 -9q-53 0 -92 19.5 t-39 52.5z" />
<glyph unicode="&#xcb;" horiz-adv-x="1826" d="M78 0zM78 381v723q0 381 606 381h305q47 0 62.5 -27.5t15.5 -83.5q0 -55 -15.5 -82.5t-62.5 -27.5h-297q-180 0 -262 -46.5t-82 -113.5v-262h1329q49 0 64.5 -28t15.5 -83t-15.5 -82.5t-64.5 -27.5h-1329v-240q0 -66 82 -113t262 -47h979q49 0 64.5 -27.5t15.5 -82.5 q0 -53 -15.5 -82t-64.5 -29h-987q-606 0 -606 381zM455 1755q0 66 38 96.5t124 30.5t123.5 -30.5t37.5 -96.5t-37.5 -96.5t-123.5 -30.5t-124 30.5t-38 96.5zM926 1755q0 66 38 96.5t124 30.5t123.5 -30.5t37.5 -96.5t-37.5 -96.5t-123.5 -30.5t-124 30.5t-38 96.5z" />
<glyph unicode="&#xcc;" horiz-adv-x="579" d="M-121 1940q0 45 30.5 66.5t71.5 21.5q66 0 95.5 -6t58.5 -21l416 -225q61 -33 61 -88q0 -43 -30.5 -64.5t-71.5 -21.5q-66 0 -95.5 6t-58.5 20l-416 226q-61 33 -61 86zM0 0zM211 88v1309q0 59 35 77.5t100 18.5q68 0 103 -18.5t35 -77.5v-1309q0 -59 -35 -77.5 t-103 -18.5q-66 0 -100.5 18.5t-34.5 77.5z" />
<glyph unicode="&#xcd;" horiz-adv-x="583" d="M-31 1688q0 55 61 88l416 225q29 14 58.5 20.5t95.5 6.5q41 0 71.5 -21.5t30.5 -66.5q0 -53 -61 -86l-416 -226q-29 -14 -58.5 -20t-95.5 -6q-41 0 -71.5 21.5t-30.5 64.5zM0 0zM96 88v1309q0 59 35 77.5t100 18.5q68 0 103 -18.5t35 -77.5v-1309q0 -59 -35 -77.5 t-103 -18.5q-66 0 -100.5 18.5t-34.5 77.5z" />
<glyph unicode="&#xce;" horiz-adv-x="573" d="M-86 1674q0 20 16 38l225 267q20 25 51 37t81 12q49 0 79.5 -12.5t51.5 -36.5l225 -267q16 -18 16 -38q0 -33 -39 -52.5t-92 -19.5q-31 0 -62.5 9t-49.5 32l-129 158l-129 -158q-18 -23 -50 -32t-63 -9q-53 0 -92 19.5t-39 52.5zM0 0zM149 88v1309q0 59 35 77.5t100 18.5 q68 0 103 -18.5t35 -77.5v-1309q0 -59 -35 -77.5t-103 -18.5q-66 0 -100.5 18.5t-34.5 77.5z" />
<glyph unicode="&#xcf;" horiz-adv-x="567" d="M-112 1755q0 66 38 96.5t124 30.5t123.5 -30.5t37.5 -96.5t-37.5 -96.5t-123.5 -30.5t-124 30.5t-38 96.5zM0 0zM147 88v1309q0 59 35 77.5t100 18.5q68 0 103 -18.5t35 -77.5v-1309q0 -59 -35 -77.5t-103 -18.5q-66 0 -100.5 18.5t-34.5 77.5zM359 1755q0 66 38 96.5 t124 30.5t123.5 -30.5t37.5 -96.5t-37.5 -96.5t-123.5 -30.5t-124 30.5t-38 96.5z" />
<glyph unicode="&#xd0;" horiz-adv-x="2119" d="M20 731q0 55 15.5 83t64.5 28h80v549q0 94 94 94h1162q606 0 606 -381v-723q0 -381 -606 -381h-1162q-94 0 -94 96v525h-80q-49 0 -64.5 27.5t-15.5 82.5zM453 221h974q180 0 263.5 47t83.5 113v723q0 68 -83 114t-264 46h-974v-422h837q49 0 64.5 -28t15.5 -83 t-15.5 -82.5t-64.5 -27.5h-837v-400z" />
<glyph unicode="&#xd1;" horiz-adv-x="2041" d="M96 0zM96 88v1309q0 57 33 76.5t96 19.5q68 0 107 -17.5t86 -58.5l1255 -1069v1049q0 59 35 77.5t100 18.5q68 0 103 -18.5t35 -77.5v-1309q0 -59 -35 -77.5t-107 -18.5q-29 0 -47 2t-34.5 10t-35 21.5t-45.5 35.5l-1273 1074v-1047q0 -59 -35 -77.5t-103 -18.5 q-66 0 -100.5 18.5t-34.5 77.5zM565 1766q0 47 12 70.5t55 23.5h777q41 0 54 -23.5t13 -70.5t-13 -71t-54 -24h-777q-43 0 -55 24t-12 71z" />
<glyph unicode="&#xd2;" horiz-adv-x="1964" d="M78 0zM78 381v723q0 381 606 381h596q606 0 606 -381v-723q0 -381 -606 -381h-596q-606 0 -606 381zM348 381q0 -66 82 -113t262 -47h580q180 0 262 47t82 113v723q0 68 -82 114t-262 46h-580q-180 0 -262 -46.5t-82 -113.5v-723zM512 1940q0 45 30.5 66.5t71.5 21.5 q66 0 95.5 -6t58.5 -21l416 -225q61 -33 61 -88q0 -43 -30.5 -64.5t-71.5 -21.5q-66 0 -95.5 6t-58.5 20l-416 226q-61 33 -61 86z" />
<glyph unicode="&#xd3;" horiz-adv-x="1964" d="M78 0zM78 381v723q0 381 606 381h596q606 0 606 -381v-723q0 -381 -606 -381h-596q-606 0 -606 381zM348 381q0 -66 82 -113t262 -47h580q180 0 262 47t82 113v723q0 68 -82 114t-262 46h-580q-180 0 -262 -46.5t-82 -113.5v-723zM717 1688q0 55 61 88l416 225 q29 14 58.5 20.5t95.5 6.5q41 0 71.5 -21.5t30.5 -66.5q0 -53 -61 -86l-416 -226q-29 -14 -58.5 -20t-95.5 -6q-41 0 -71.5 21.5t-30.5 64.5z" />
<glyph unicode="&#xd4;" horiz-adv-x="1964" d="M78 0zM78 381v723q0 381 606 381h596q606 0 606 -381v-723q0 -381 -606 -381h-596q-606 0 -606 381zM348 381q0 -66 82 -113t262 -47h580q180 0 262 47t82 113v723q0 68 -82 114t-262 46h-580q-180 0 -262 -46.5t-82 -113.5v-723zM608 1674q0 20 16 38l225 267 q20 25 51 37t81 12q49 0 79.5 -12.5t51.5 -36.5l225 -267q16 -18 16 -38q0 -33 -39 -52.5t-92 -19.5q-31 0 -62.5 9t-49.5 32l-129 158l-129 -158q-18 -23 -50 -32t-63 -9q-53 0 -92 19.5t-39 52.5z" />
<glyph unicode="&#xd5;" horiz-adv-x="1964" d="M78 0zM78 381v723q0 381 606 381h596q606 0 606 -381v-723q0 -381 -606 -381h-596q-606 0 -606 381zM348 381q0 -66 82 -113t262 -47h580q180 0 262 47t82 113v723q0 68 -82 114t-262 46h-580q-180 0 -262 -46.5t-82 -113.5v-723zM527 1766q0 47 12 70.5t55 23.5h777 q41 0 54 -23.5t13 -70.5t-13 -71t-54 -24h-777q-43 0 -55 24t-12 71z" />
<glyph unicode="&#xd6;" horiz-adv-x="1964" d="M78 0zM78 381v723q0 381 606 381h596q606 0 606 -381v-723q0 -381 -606 -381h-596q-606 0 -606 381zM348 381q0 -66 82 -113t262 -47h580q180 0 262 47t82 113v723q0 68 -82 114t-262 46h-580q-180 0 -262 -46.5t-82 -113.5v-723zM584 1755q0 66 38 96.5t124 30.5 t123.5 -30.5t37.5 -96.5t-37.5 -96.5t-123.5 -30.5t-124 30.5t-38 96.5zM1055 1755q0 66 38 96.5t124 30.5t123.5 -30.5t37.5 -96.5t-37.5 -96.5t-123.5 -30.5t-124 30.5t-38 96.5z" />
<glyph unicode="&#xd7;" d="M184 1036q0 18 15.5 43t37 46.5t46 37t43.5 15.5q27 0 55 -29l242 -242l243 242q31 31 56 31q18 0 42.5 -15.5t46 -37t36 -46t14.5 -43.5q0 -27 -29 -55l-244 -244l242 -241q12 -12 21.5 -26.5t9.5 -31.5q0 -18 -15.5 -42.5t-38 -45t-46 -35t-41.5 -14.5q-27 0 -56 29 l-241 241l-240 -239q-12 -12 -26.5 -21.5t-30.5 -9.5q-18 0 -43 15.5t-46.5 37t-36 47t-14.5 43.5q0 25 29 54l242 239l-242 242q-31 31 -31 55z" />
<glyph unicode="&#xd8;" horiz-adv-x="1964" d="M78 381v723q0 381 606 381h596q68 0 133 -6l96 129q18 25 45 35t66 10q109 0 109 -76q0 -27 -35 -74l-54 -69q246 -86 246 -330v-723q0 -381 -606 -381h-596h-59.5t-57.5 4l-100 -133q-20 -27 -46 -35t-61 -8q-113 0 -112 72q0 16 6 31.5t27 43.5l53 72q-256 86 -256 334 zM348 381q0 -43 33 -78t102 -57l766 1018h-557q-180 0 -262 -46.5t-82 -113.5v-723zM729 221h543q180 0 262 47t82 113v723q0 41 -30 74.5t-95 56.5z" />
<glyph unicode="&#xd9;" horiz-adv-x="2019" d="M88 0zM88 381v1016q0 59 35 77.5t100 18.5q68 0 102.5 -18.5t34.5 -77.5v-1016q0 -66 81 -113t261 -47h615q180 0 261 47t81 113v1016q0 59 35 77.5t102 18.5q66 0 100.5 -18.5t34.5 -77.5v-1016q0 -381 -606 -381h-631q-606 0 -606 381zM541 1940q0 45 30.5 66.5 t71.5 21.5q66 0 95.5 -6t58.5 -21l416 -225q61 -33 61 -88q0 -43 -30.5 -64.5t-71.5 -21.5q-66 0 -95.5 6t-58.5 20l-416 226q-61 33 -61 86z" />
<glyph unicode="&#xda;" horiz-adv-x="2019" d="M88 0zM88 381v1016q0 59 35 77.5t100 18.5q68 0 102.5 -18.5t34.5 -77.5v-1016q0 -66 81 -113t261 -47h615q180 0 261 47t81 113v1016q0 59 35 77.5t102 18.5q66 0 100.5 -18.5t34.5 -77.5v-1016q0 -381 -606 -381h-631q-606 0 -606 381zM746 1688q0 55 61 88l416 225 q29 14 58.5 20.5t95.5 6.5q41 0 71.5 -21.5t30.5 -66.5q0 -53 -61 -86l-416 -226q-29 -14 -58.5 -20t-95.5 -6q-41 0 -71.5 21.5t-30.5 64.5z" />
<glyph unicode="&#xdb;" horiz-adv-x="2019" d="M88 0zM88 381v1016q0 59 35 77.5t100 18.5q68 0 102.5 -18.5t34.5 -77.5v-1016q0 -66 81 -113t261 -47h615q180 0 261 47t81 113v1016q0 59 35 77.5t102 18.5q66 0 100.5 -18.5t34.5 -77.5v-1016q0 -381 -606 -381h-631q-606 0 -606 381zM637 1674q0 20 16 38l225 267 q20 25 51 37t81 12q49 0 79.5 -12.5t51.5 -36.5l225 -267q16 -18 16 -38q0 -33 -39 -52.5t-92 -19.5q-31 0 -62.5 9t-49.5 32l-129 158l-129 -158q-18 -23 -50 -32t-63 -9q-53 0 -92 19.5t-39 52.5z" />
<glyph unicode="&#xdc;" horiz-adv-x="2019" d="M88 0zM88 381v1016q0 59 35 77.5t100 18.5q68 0 102.5 -18.5t34.5 -77.5v-1016q0 -66 81 -113t261 -47h615q180 0 261 47t81 113v1016q0 59 35 77.5t102 18.5q66 0 100.5 -18.5t34.5 -77.5v-1016q0 -381 -606 -381h-631q-606 0 -606 381zM613 1755q0 66 38 96.5t124 30.5 t123.5 -30.5t37.5 -96.5t-37.5 -96.5t-123.5 -30.5t-124 30.5t-38 96.5zM1084 1755q0 66 38 96.5t124 30.5t123.5 -30.5t37.5 -96.5t-37.5 -96.5t-123.5 -30.5t-124 30.5t-38 96.5z" />
<glyph unicode="&#xdd;" horiz-adv-x="1882" d="M23 0zM23 1411q0 33 34.5 57.5t112.5 24.5q45 0 68.5 -9t46.5 -30l657 -639l655 639q20 20 45 29.5t70 9.5q78 0 113 -23.5t35 -58.5q0 -43 -43 -82l-740 -715v-526q0 -59 -34.5 -77.5t-102.5 -18.5q-66 0 -100.5 18.5t-34.5 77.5v526l-739 715q-43 39 -43 82zM676 1688 q0 55 61 88l416 225q29 14 58.5 20.5t95.5 6.5q41 0 71.5 -21.5t30.5 -66.5q0 -53 -61 -86l-416 -226q-29 -14 -58.5 -20t-95.5 -6q-41 0 -71.5 21.5t-30.5 64.5z" />
<glyph unicode="&#xde;" horiz-adv-x="2015" d="M96 88v1309q0 59 34.5 77.5t100.5 18.5q68 0 103 -18.5t35 -77.5v-211h985q139 0 250.5 -23.5t189.5 -66.5t120 -104.5t42 -137.5v-223q0 -76 -42 -137.5t-120 -104.5t-189.5 -66.5t-250.5 -23.5h-985v-211q0 -59 -35 -77.5t-103 -18.5q-66 0 -100.5 18.5t-34.5 77.5z M369 520h960q104 0 173 10.5t110 27.5t57.5 41t16.5 52v183q0 27 -16.5 51t-57.5 41.5t-109.5 28t-173.5 10.5h-960v-445z" />
<glyph unicode="&#xdf;" horiz-adv-x="1890" d="M88 88v1051q0 88 34 154.5t91 110.5t135 66.5t166 22.5t164 -22.5t133 -66.5t90 -110.5t33 -154.5v-207q0 -47 62.5 -76t213.5 -29h66q281 0 411 -81.5t130 -229.5v-203q0 -74 -33 -132t-102.5 -98t-180 -61.5t-264.5 -21.5h-522q-47 0 -61.5 25.5t-14.5 78.5 q0 51 14.5 77t61.5 26h561q156 0 217 27.5t61 74.5v211q0 47 -59 76t-211 29h-65q-283 0 -413 81.5t-130 229.5v203q0 72 -35 109.5t-127 37.5q-94 0 -130 -39t-36 -108v-1051q0 -59 -32.5 -77.5t-98.5 -18.5t-97.5 18.5t-31.5 77.5z" />
<glyph unicode="&#xe0;" horiz-adv-x="1859" d="M66 0zM66 356v109q0 356 579 356h877v2q0 59 -77 93t-251 34h-193q-47 0 -61 25.5t-14 77.5q0 53 14 78.5t61 25.5h201q580 0 580 -356v-445q0 -356 -580 -356h-557q-580 0 -579 356zM326 356q0 -61 77.5 -105t249.5 -44h541q172 0 250 44t78 105v267h-869 q-172 0 -249.5 -43t-77.5 -107v-117zM645 1612q0 45 30.5 66.5t71.5 21.5q66 0 95.5 -6t58.5 -21l416 -225q61 -33 61 -88q0 -43 -30.5 -64.5t-71.5 -21.5q-66 0 -95.5 6t-58.5 20l-416 226q-61 33 -61 86z" />
<glyph unicode="&#xe1;" horiz-adv-x="1859" d="M66 0zM66 356v109q0 356 579 356h877v2q0 59 -77 93t-251 34h-193q-47 0 -61 25.5t-14 77.5q0 53 14 78.5t61 25.5h201q580 0 580 -356v-445q0 -356 -580 -356h-557q-580 0 -579 356zM326 356q0 -61 77.5 -105t249.5 -44h541q172 0 250 44t78 105v267h-869 q-172 0 -249.5 -43t-77.5 -107v-117zM850 1360q0 55 61 88l416 225q29 14 58.5 20.5t95.5 6.5q41 0 71.5 -21.5t30.5 -66.5q0 -53 -61 -86l-416 -226q-29 -14 -58.5 -20t-95.5 -6q-41 0 -71.5 21.5t-30.5 64.5z" />
<glyph unicode="&#xe2;" horiz-adv-x="1859" d="M66 0zM66 356v109q0 356 579 356h877v2q0 59 -77 93t-251 34h-193q-47 0 -61 25.5t-14 77.5q0 53 14 78.5t61 25.5h201q580 0 580 -356v-445q0 -356 -580 -356h-557q-580 0 -579 356zM326 356q0 -61 77.5 -105t249.5 -44h541q172 0 250 44t78 105v267h-869 q-172 0 -249.5 -43t-77.5 -107v-117zM742 1346q0 20 16 38l225 267q20 25 51 37t81 12q49 0 79.5 -12.5t51.5 -36.5l225 -267q16 -18 16 -38q0 -33 -39 -52.5t-92 -19.5q-31 0 -62.5 9t-49.5 32l-129 158l-129 -158q-18 -23 -50 -32t-63 -9q-53 0 -92 19.5t-39 52.5z" />
<glyph unicode="&#xe3;" horiz-adv-x="1859" d="M66 0zM66 356v109q0 356 579 356h877v2q0 59 -77 93t-251 34h-193q-47 0 -61 25.5t-14 77.5q0 53 14 78.5t61 25.5h201q580 0 580 -356v-445q0 -356 -580 -356h-557q-580 0 -579 356zM326 356q0 -61 77.5 -105t249.5 -44h541q172 0 250 44t78 105v267h-869 q-172 0 -249.5 -43t-77.5 -107v-117zM658 1438q0 47 12 70.5t55 23.5h777q41 0 54 -23.5t13 -70.5t-13 -71t-54 -24h-777q-43 0 -55 24t-12 71z" />
<glyph unicode="&#xe4;" horiz-adv-x="1859" d="M66 0zM66 356v109q0 356 579 356h877v2q0 59 -77 93t-251 34h-193q-47 0 -61 25.5t-14 77.5q0 53 14 78.5t61 25.5h201q580 0 580 -356v-445q0 -356 -580 -356h-557q-580 0 -579 356zM326 356q0 -61 77.5 -105t249.5 -44h541q172 0 250 44t78 105v267h-869 q-172 0 -249.5 -43t-77.5 -107v-117zM717 1427q0 66 38 96.5t124 30.5t123.5 -30.5t37.5 -96.5t-37.5 -96.5t-123.5 -30.5t-124 30.5t-38 96.5zM1188 1427q0 66 38 96.5t124 30.5t123.5 -30.5t37.5 -96.5t-37.5 -96.5t-123.5 -30.5t-124 30.5t-38 96.5z" />
<glyph unicode="&#xe5;" horiz-adv-x="1859" d="M66 0zM66 356v109q0 356 579 356h877v2q0 59 -77 93t-251 34h-193q-47 0 -61 25.5t-14 77.5q0 53 14 78.5t61 25.5h201q580 0 580 -356v-445q0 -356 -580 -356h-557q-580 0 -579 356zM326 356q0 -61 77.5 -105t249.5 -44h541q172 0 250 44t78 105v267h-869 q-172 0 -249.5 -43t-77.5 -107v-117zM840 1417v74q0 63 13 104t42 64.5t75 32t111 8.5h66q66 0 112 -8.5t74.5 -32t42 -64.5t13.5 -104v-74q0 -66 -13.5 -105.5t-42 -63t-74.5 -32t-112 -8.5h-66q-66 0 -111.5 8.5t-74.5 32t-42 63.5t-13 105zM975 1417q0 -59 20.5 -75.5 t98.5 -16.5h41q78 0 98.5 16.5t20.5 75.5v74q0 59 -20.5 75.5t-98.5 16.5h-41q-78 0 -98.5 -16.5t-20.5 -75.5v-74z" />
<glyph unicode="&#xe6;" horiz-adv-x="3215" d="M66 356v109q0 356 579 356h877v2q0 59 -77 93t-251 34h-193q-47 0 -61 25.5t-14 77.5q0 53 14 78.5t61 25.5h201q303 0 449 -98q143 98 450 98h473q307 0 443.5 -88t136.5 -268v-236q0 -59 -22.5 -81.5t-100.5 -22.5h-1249v-105q0 -61 77.5 -105t249.5 -44h236 q47 0 60.5 -25.5t13.5 -77.5q0 -51 -13.5 -77.5t-60.5 -26.5h-244q-307 0 -450 98q-145 -98 -449 -98h-557q-580 0 -579 356zM326 356q0 -61 77.5 -105t249.5 -44h541q172 0 250 44t78 105v267h-869q-172 0 -249.5 -43t-77.5 -107v-117zM1782 664h1112v137q0 72 -77 110.5 t-251 38.5h-457q-172 0 -249.5 -43t-77.5 -106v-137z" />
<glyph unicode="&#xe7;" horiz-adv-x="1828" d="M78 0zM78 356v445q0 356 579 356h1024q47 0 61.5 -25.5t14.5 -78.5q0 -51 -14 -77t-62 -26h-1015q-172 0 -250 -43t-78 -106v-445q0 -61 78 -105t250 -44h1022q47 0 60 -25.5t13 -77.5q0 -51 -13 -77.5t-60 -26.5h-1031q-580 0 -579 356zM758 -356q0 12 2 29.5t6 35.5 l31 180q8 47 38.5 64.5t102.5 17.5t101.5 -16t29.5 -64q0 -10 -1 -23t-3 -24l-33 -192q-8 -47 -38.5 -64.5t-100.5 -17.5q-72 0 -103.5 16.5t-31.5 57.5z" />
<glyph unicode="&#xe8;" horiz-adv-x="1771" d="M78 0zM78 356v445q0 356 579 356h473q307 0 443.5 -88t136.5 -268v-236q0 -59 -22.5 -81.5t-100.5 -22.5h-1249v-105q0 -61 78 -105t250 -44h235q47 0 60.5 -25.5t13.5 -77.5q0 -51 -13.5 -77.5t-60.5 -26.5h-244q-580 0 -579 356zM338 664h1112v137q0 72 -77 110.5 t-251 38.5h-456q-172 0 -250 -43t-78 -106v-137zM416 1612q0 45 30.5 66.5t71.5 21.5q66 0 95.5 -6t58.5 -21l416 -225q61 -33 61 -88q0 -43 -30.5 -64.5t-71.5 -21.5q-66 0 -95.5 6t-58.5 20l-416 226q-61 33 -61 86z" />
<glyph unicode="&#xe9;" horiz-adv-x="1771" d="M78 0zM78 356v445q0 356 579 356h473q307 0 443.5 -88t136.5 -268v-236q0 -59 -22.5 -81.5t-100.5 -22.5h-1249v-105q0 -61 78 -105t250 -44h235q47 0 60.5 -25.5t13.5 -77.5q0 -51 -13.5 -77.5t-60.5 -26.5h-244q-580 0 -579 356zM338 664h1112v137q0 72 -77 110.5 t-251 38.5h-456q-172 0 -250 -43t-78 -106v-137zM621 1360q0 55 61 88l416 225q29 14 58.5 20.5t95.5 6.5q41 0 71.5 -21.5t30.5 -66.5q0 -53 -61 -86l-416 -226q-29 -14 -58.5 -20t-95.5 -6q-41 0 -71.5 21.5t-30.5 64.5z" />
<glyph unicode="&#xea;" horiz-adv-x="1771" d="M78 0zM78 356v445q0 356 579 356h473q307 0 443.5 -88t136.5 -268v-236q0 -59 -22.5 -81.5t-100.5 -22.5h-1249v-105q0 -61 78 -105t250 -44h235q47 0 60.5 -25.5t13.5 -77.5q0 -51 -13.5 -77.5t-60.5 -26.5h-244q-580 0 -579 356zM338 664h1112v137q0 72 -77 110.5 t-251 38.5h-456q-172 0 -250 -43t-78 -106v-137zM512 1346q0 20 16 38l225 267q20 25 51 37t81 12q49 0 79.5 -12.5t51.5 -36.5l225 -267q16 -18 16 -38q0 -33 -39 -52.5t-92 -19.5q-31 0 -62.5 9t-49.5 32l-129 158l-129 -158q-18 -23 -50 -32t-63 -9q-53 0 -92 19.5 t-39 52.5z" />
<glyph unicode="&#xeb;" horiz-adv-x="1771" d="M78 0zM78 356v445q0 356 579 356h473q307 0 443.5 -88t136.5 -268v-236q0 -59 -22.5 -81.5t-100.5 -22.5h-1249v-105q0 -61 78 -105t250 -44h235q47 0 60.5 -25.5t13.5 -77.5q0 -51 -13.5 -77.5t-60.5 -26.5h-244q-580 0 -579 356zM338 664h1112v137q0 72 -77 110.5 t-251 38.5h-456q-172 0 -250 -43t-78 -106v-137zM488 1427q0 66 38 96.5t124 30.5t123.5 -30.5t37.5 -96.5t-37.5 -96.5t-123.5 -30.5t-124 30.5t-38 96.5zM959 1427q0 66 38 96.5t124 30.5t123.5 -30.5t37.5 -96.5t-37.5 -96.5t-123.5 -30.5t-124 30.5t-38 96.5z" />
<glyph unicode="&#xec;" horiz-adv-x="694" d="M0 0zM0 1612q0 45 30.5 66.5t71.5 21.5q66 0 95.5 -6t58.5 -21l416 -225q61 -33 61 -88q0 -43 -30.5 -64.5t-71.5 -21.5q-66 0 -95.5 6t-58.5 20l-416 226q-61 33 -61 86zM338 88v981q0 59 32 77.5t97 18.5q66 0 98.5 -18.5t32.5 -77.5v-981q0 -59 -32.5 -77.5 t-98.5 -18.5t-97.5 18.5t-31.5 77.5z" />
<glyph unicode="&#xed;" horiz-adv-x="696" d="M-37 1360q0 55 61 88l416 225q29 14 58.5 20.5t95.5 6.5q41 0 71.5 -21.5t30.5 -66.5q0 -53 -61 -86l-416 -226q-29 -14 -58.5 -20t-95.5 -6q-41 0 -71.5 21.5t-30.5 64.5zM0 0zM96 88v981q0 59 32 77.5t97 18.5q66 0 98.5 -18.5t32.5 -77.5v-981q0 -59 -32.5 -77.5 t-98.5 -18.5t-97.5 18.5t-31.5 77.5z" />
<glyph unicode="&#xee;" horiz-adv-x="745" d="M0 0zM0 1346q0 20 16 38l225 267q20 25 51 37t81 12q49 0 79.5 -12.5t51.5 -36.5l225 -267q16 -18 16 -38q0 -33 -39 -52.5t-92 -19.5q-31 0 -62.5 9t-49.5 32l-129 158l-129 -158q-18 -23 -50 -32t-63 -9q-53 0 -92 19.5t-39 52.5zM241 88v981q0 59 32 77.5t97 18.5 q66 0 98.5 -18.5t32.5 -77.5v-981q0 -59 -32.5 -77.5t-98.5 -18.5t-97.5 18.5t-31.5 77.5z" />
<glyph unicode="&#xef;" horiz-adv-x="794" d="M0 0zM0 1427q0 66 38 96.5t124 30.5t123.5 -30.5t37.5 -96.5t-37.5 -96.5t-123.5 -30.5t-124 30.5t-38 96.5zM266 88v981q0 59 32 77.5t97 18.5q66 0 98.5 -18.5t32.5 -77.5v-981q0 -59 -32.5 -77.5t-98.5 -18.5t-97.5 18.5t-31.5 77.5zM471 1427q0 66 38 96.5t124 30.5 t123.5 -30.5t37.5 -96.5t-37.5 -96.5t-123.5 -30.5t-124 30.5t-38 96.5z" />
<glyph unicode="&#xf0;" horiz-adv-x="1816" d="M78 356v260q0 356 579 357h811v239q0 66 -55 66h-375q-47 0 -60 25.5t-13 76.5t13 78t60 27h375q164 0 240 -72t76 -201v-856q0 -356 -580 -356h-492q-580 0 -579 356zM338 356q0 -61 78 -105t250 -44h475q172 0 249.5 44t77.5 105v410h-802q-172 0 -250 -43t-78 -107 v-260z" />
<glyph unicode="&#xf1;" horiz-adv-x="1781" d="M88 0zM88 88v713q0 356 580 356h446q580 0 580 -356v-713q0 -59 -33 -77.5t-98 -18.5q-66 0 -97.5 18.5t-31.5 77.5v713q0 63 -78 106t-250 43h-430q-172 0 -250 -43t-78 -106v-713q0 -59 -32.5 -77.5t-98.5 -18.5t-97.5 18.5t-31.5 77.5zM434 1438q0 47 12 70.5t55 23.5 h777q41 0 54 -23.5t13 -70.5t-13 -71t-54 -24h-777q-43 0 -55 24t-12 71z" />
<glyph unicode="&#xf2;" horiz-adv-x="1761" d="M78 0zM78 356v445q0 356 579 356h447q580 0 579 -356v-445q0 -356 -579 -356h-447q-580 0 -579 356zM338 356q0 -61 78 -105t250 -44h430q172 0 249.5 44t77.5 105v445q0 63 -77.5 106t-249.5 43h-430q-172 0 -250 -43t-78 -106v-445zM412 1612q0 45 30.5 66.5t71.5 21.5 q66 0 95.5 -6t58.5 -21l416 -225q61 -33 61 -88q0 -43 -30.5 -64.5t-71.5 -21.5q-66 0 -95.5 6t-58.5 20l-416 226q-61 33 -61 86z" />
<glyph unicode="&#xf3;" horiz-adv-x="1761" d="M78 0zM78 356v445q0 356 579 356h447q580 0 579 -356v-445q0 -356 -579 -356h-447q-580 0 -579 356zM338 356q0 -61 78 -105t250 -44h430q172 0 249.5 44t77.5 105v445q0 63 -77.5 106t-249.5 43h-430q-172 0 -250 -43t-78 -106v-445zM617 1360q0 55 61 88l416 225 q29 14 58.5 20.5t95.5 6.5q41 0 71.5 -21.5t30.5 -66.5q0 -53 -61 -86l-416 -226q-29 -14 -58.5 -20t-95.5 -6q-41 0 -71.5 21.5t-30.5 64.5z" />
<glyph unicode="&#xf4;" horiz-adv-x="1761" d="M78 0zM78 356v445q0 356 579 356h447q580 0 579 -356v-445q0 -356 -579 -356h-447q-580 0 -579 356zM338 356q0 -61 78 -105t250 -44h430q172 0 249.5 44t77.5 105v445q0 63 -77.5 106t-249.5 43h-430q-172 0 -250 -43t-78 -106v-445zM508 1346q0 20 16 38l225 267 q20 25 51 37t81 12q49 0 79.5 -12.5t51.5 -36.5l225 -267q16 -18 16 -38q0 -33 -39 -52.5t-92 -19.5q-31 0 -62.5 9t-49.5 32l-129 158l-129 -158q-18 -23 -50 -32t-63 -9q-53 0 -92 19.5t-39 52.5z" />
<glyph unicode="&#xf5;" horiz-adv-x="1761" d="M78 0zM78 356v445q0 356 579 356h447q580 0 579 -356v-445q0 -356 -579 -356h-447q-580 0 -579 356zM338 356q0 -61 78 -105t250 -44h430q172 0 249.5 44t77.5 105v445q0 63 -77.5 106t-249.5 43h-430q-172 0 -250 -43t-78 -106v-445zM424 1438q0 47 12 70.5t55 23.5h777 q41 0 54 -23.5t13 -70.5t-13 -71t-54 -24h-777q-43 0 -55 24t-12 71z" />
<glyph unicode="&#xf6;" horiz-adv-x="1761" d="M78 0zM78 356v445q0 356 579 356h447q580 0 579 -356v-445q0 -356 -579 -356h-447q-580 0 -579 356zM338 356q0 -61 78 -105t250 -44h430q172 0 249.5 44t77.5 105v445q0 63 -77.5 106t-249.5 43h-430q-172 0 -250 -43t-78 -106v-445zM484 1427q0 66 38 96.5t124 30.5 t123.5 -30.5t37.5 -96.5t-37.5 -96.5t-123.5 -30.5t-124 30.5t-38 96.5zM955 1427q0 66 38 96.5t124 30.5t123.5 -30.5t37.5 -96.5t-37.5 -96.5t-123.5 -30.5t-124 30.5t-38 96.5z" />
<glyph unicode="&#xf7;" d="M78 205zM78 741q0 59 16.5 88t69.5 29h919q53 0 69.5 -28.5t16.5 -88.5q0 -59 -16 -88.5t-70 -29.5h-919q-53 0 -69.5 29.5t-16.5 88.5zM461 332q0 66 38 96.5t124 30.5t124 -31t38 -96q0 -66 -38 -96.5t-124 -30.5t-124 30.5t-38 96.5zM461 1149q0 66 38 96.5t124 30.5 t124 -31t38 -96q0 -66 -38 -96.5t-124 -30.5t-124 30.5t-38 96.5z" />
<glyph unicode="&#xf8;" horiz-adv-x="1761" d="M78 356v445q0 356 579 356h447q41 0 80 -2t73 -6l121 135q35 37 105 37q102 0 102 -57q0 -14 -7 -26.5t-26 -35.5l-88 -98q219 -84 219 -303v-445q0 -356 -579 -356h-447q-47 0 -90 2t-82 6l-96 -106q-18 -23 -44 -29t-56 -6q-106 0 -107 57q0 12 6.5 24.5t24.5 35.5 l68 75q-203 86 -203 297zM338 356q0 -35 25.5 -65.5t78.5 -52.5l637 712h-413q-172 0 -250 -43t-78 -106v-445zM662 207h434q172 0 249.5 44t77.5 105v445q0 39 -28.5 70.5t-91.5 52.5z" />
<glyph unicode="&#xf9;" horiz-adv-x="1824" d="M88 0zM88 356v713q0 59 33 77.5t98 18.5q66 0 97.5 -18.5t31.5 -77.5v-713q0 -63 78 -106t250 -43h473q172 0 250 43t78 106v713q0 59 32.5 77.5t98.5 18.5t97.5 -18.5t31.5 -77.5v-713q0 -356 -580 -356h-489q-580 0 -580 356zM443 1612q0 45 30.5 66.5t71.5 21.5 q66 0 95.5 -6t58.5 -21l416 -225q61 -33 61 -88q0 -43 -30.5 -64.5t-71.5 -21.5q-66 0 -95.5 6t-58.5 20l-416 226q-61 33 -61 86z" />
<glyph unicode="&#xfa;" horiz-adv-x="1824" d="M88 0zM88 356v713q0 59 33 77.5t98 18.5q66 0 97.5 -18.5t31.5 -77.5v-713q0 -63 78 -106t250 -43h473q172 0 250 43t78 106v713q0 59 32.5 77.5t98.5 18.5t97.5 -18.5t31.5 -77.5v-713q0 -356 -580 -356h-489q-580 0 -580 356zM647 1360q0 55 61 88l416 225 q29 14 58.5 20.5t95.5 6.5q41 0 71.5 -21.5t30.5 -66.5q0 -53 -61 -86l-416 -226q-29 -14 -58.5 -20t-95.5 -6q-41 0 -71.5 21.5t-30.5 64.5z" />
<glyph unicode="&#xfb;" horiz-adv-x="1824" d="M88 0zM88 356v713q0 59 33 77.5t98 18.5q66 0 97.5 -18.5t31.5 -77.5v-713q0 -63 78 -106t250 -43h473q172 0 250 43t78 106v713q0 59 32.5 77.5t98.5 18.5t97.5 -18.5t31.5 -77.5v-713q0 -356 -580 -356h-489q-580 0 -580 356zM539 1346q0 20 16 38l225 267q20 25 51 37 t81 12q49 0 79.5 -12.5t51.5 -36.5l225 -267q16 -18 16 -38q0 -33 -39 -52.5t-92 -19.5q-31 0 -62.5 9t-49.5 32l-129 158l-129 -158q-18 -23 -50 -32t-63 -9q-53 0 -92 19.5t-39 52.5z" />
<glyph unicode="&#xfc;" horiz-adv-x="1824" d="M88 0zM88 356v713q0 59 33 77.5t98 18.5q66 0 97.5 -18.5t31.5 -77.5v-713q0 -63 78 -106t250 -43h473q172 0 250 43t78 106v713q0 59 32.5 77.5t98.5 18.5t97.5 -18.5t31.5 -77.5v-713q0 -356 -580 -356h-489q-580 0 -580 356zM514 1427q0 66 38 96.5t124 30.5 t123.5 -30.5t37.5 -96.5t-37.5 -96.5t-123.5 -30.5t-124 30.5t-38 96.5zM985 1427q0 66 38 96.5t124 30.5t123.5 -30.5t37.5 -96.5t-37.5 -96.5t-123.5 -30.5t-124 30.5t-38 96.5z" />
<glyph unicode="&#xfd;" horiz-adv-x="1802" d="M88 0zM88 385v684q0 59 32 77.5t97 18.5q66 0 98.5 -18.5t32.5 -77.5v-686q0 -63 78 -105t250 -42h770v833q0 59 31.5 77.5t97.5 18.5t98.5 -18.5t32.5 -77.5v-1051q0 -178 -136 -266t-394 -88h-283q-47 0 -60.5 26.5t-13.5 78.5q0 51 13.5 76.5t60.5 25.5h283 q152 0 211 38t59 109v11h-778q-580 0 -580 356zM637 1360q0 55 61 88l416 225q29 14 58.5 20.5t95.5 6.5q41 0 71.5 -21.5t30.5 -66.5q0 -53 -61 -86l-416 -226q-29 -14 -58.5 -20t-95.5 -6q-41 0 -71.5 21.5t-30.5 64.5z" />
<glyph unicode="&#xfe;" horiz-adv-x="1806" d="M96 -256v1653q0 59 32 77.5t97 18.5q66 0 98.5 -18.5t32.5 -77.5v-240h793q580 0 580 -356v-445q0 -356 -580 -356h-793v-256q0 -59 -32.5 -77.5t-98.5 -18.5t-97.5 18.5t-31.5 77.5zM356 207h785q172 0 249.5 44t77.5 105v445q0 63 -77.5 106t-249.5 43h-785v-743z" />
<glyph unicode="&#xff;" horiz-adv-x="1802" d="M88 0zM88 385v684q0 59 32 77.5t97 18.5q66 0 98.5 -18.5t32.5 -77.5v-686q0 -63 78 -105t250 -42h770v833q0 59 31.5 77.5t97.5 18.5t98.5 -18.5t32.5 -77.5v-1051q0 -178 -136 -266t-394 -88h-283q-47 0 -60.5 26.5t-13.5 78.5q0 51 13.5 76.5t60.5 25.5h283 q152 0 211 38t59 109v11h-778q-580 0 -580 356zM504 1427q0 66 38 96.5t124 30.5t123.5 -30.5t37.5 -96.5t-37.5 -96.5t-123.5 -30.5t-124 30.5t-38 96.5zM975 1427q0 66 38 96.5t124 30.5t123.5 -30.5t37.5 -96.5t-37.5 -96.5t-123.5 -30.5t-124 30.5t-38 96.5z" />
<glyph unicode="&#x152;" horiz-adv-x="3254" d="M78 381v723q0 381 606 381h526q322 0 471 -107q150 106 471 107h285q47 0 62.5 -27.5t15.5 -83.5q0 -55 -15.5 -82.5t-62.5 -27.5h-276q-176 0 -260 -44t-84 -110v-268h1288q49 0 64.5 -28t15.5 -83t-15.5 -82.5t-64.5 -27.5h-1288v-240q0 -66 81.5 -113t262.5 -47h938 q49 0 64 -27.5t15 -82.5q0 -53 -15 -82t-64 -29h-947q-322 0 -471 106q-150 -106 -471 -106h-526q-606 0 -606 381zM348 381q0 -66 82 -113t262 -47h510q180 0 262 47t82 113v723q0 68 -82 114t-262 46h-510q-180 0 -262 -46.5t-82 -113.5v-723z" />
<glyph unicode="&#x153;" horiz-adv-x="3117" d="M78 356v445q0 356 579 356h447q303 0 448 -98q143 98 451 98h473q307 0 443.5 -88t136.5 -268v-236q0 -59 -22.5 -81.5t-100.5 -22.5h-1250v-105q0 -61 78 -105t250 -44h236q47 0 60 -25.5t13 -77.5q0 -51 -13 -77.5t-60 -26.5h-244q-307 0 -451 98q-145 -98 -448 -98 h-447q-580 0 -579 356zM338 356q0 -61 78 -105t250 -44h430q172 0 249.5 44t77.5 105v445q0 63 -77.5 106t-249.5 43h-430q-172 0 -250 -43t-78 -106v-445zM1683 664h1113v137q0 72 -77 110.5t-251 38.5h-457q-172 0 -250 -43t-78 -106v-137z" />
<glyph unicode="&#x178;" horiz-adv-x="1882" d="M23 0zM23 1411q0 33 34.5 57.5t112.5 24.5q45 0 68.5 -9t46.5 -30l657 -639l655 639q20 20 45 29.5t70 9.5q78 0 113 -23.5t35 -58.5q0 -43 -43 -82l-740 -715v-526q0 -59 -34.5 -77.5t-102.5 -18.5q-66 0 -100.5 18.5t-34.5 77.5v526l-739 715q-43 39 -43 82zM543 1755 q0 66 38 96.5t124 30.5t123.5 -30.5t37.5 -96.5t-37.5 -96.5t-123.5 -30.5t-124 30.5t-38 96.5zM1014 1755q0 66 38 96.5t124 30.5t123.5 -30.5t37.5 -96.5t-37.5 -96.5t-123.5 -30.5t-124 30.5t-38 96.5z" />
<glyph unicode="&#x2c6;" horiz-adv-x="901" d="M78 1346q0 20 16 38l225 267q20 25 51 37t81 12q49 0 79.5 -12.5t51.5 -36.5l225 -267q16 -18 16 -38q0 -33 -39 -52.5t-92 -19.5q-31 0 -62.5 9t-49.5 32l-129 158l-129 -158q-18 -23 -50 -32t-63 -9q-53 0 -92 19.5t-39 52.5z" />
<glyph unicode="&#x2dc;" horiz-adv-x="1067" d="M78 1438q0 47 12 70.5t55 23.5h777q41 0 54 -23.5t13 -70.5t-13 -71t-54 -24h-777q-43 0 -55 24t-12 71z" />
<glyph unicode="&#x2000;" horiz-adv-x="1014" />
<glyph unicode="&#x2001;" horiz-adv-x="2028" />
<glyph unicode="&#x2002;" horiz-adv-x="1014" />
<glyph unicode="&#x2003;" horiz-adv-x="2028" />
<glyph unicode="&#x2004;" horiz-adv-x="676" />
<glyph unicode="&#x2005;" horiz-adv-x="507" />
<glyph unicode="&#x2006;" horiz-adv-x="338" />
<glyph unicode="&#x2007;" horiz-adv-x="338" />
<glyph unicode="&#x2008;" horiz-adv-x="253" />
<glyph unicode="&#x2009;" horiz-adv-x="405" />
<glyph unicode="&#x200a;" horiz-adv-x="112" />
<glyph unicode="&#x2010;" horiz-adv-x="966" d="M25 731q0 51 13 78t60 27h770q47 0 60.5 -27t13.5 -78t-13.5 -76.5t-60.5 -25.5h-770q-47 0 -60 25.5t-13 76.5z" />
<glyph unicode="&#x2011;" horiz-adv-x="966" d="M25 731q0 51 13 78t60 27h770q47 0 60.5 -27t13.5 -78t-13.5 -76.5t-60.5 -25.5h-770q-47 0 -60 25.5t-13 76.5z" />
<glyph unicode="&#x2012;" horiz-adv-x="966" d="M25 731q0 51 13 78t60 27h770q47 0 60.5 -27t13.5 -78t-13.5 -76.5t-60.5 -25.5h-770q-47 0 -60 25.5t-13 76.5z" />
<glyph unicode="&#x2013;" horiz-adv-x="1202" d="M25 731q0 51 13 78t60 27h1006q47 0 60.5 -27t13.5 -78t-13.5 -76.5t-60.5 -25.5h-1006q-47 0 -60 25.5t-13 76.5z" />
<glyph unicode="&#x2014;" horiz-adv-x="1552" d="M6 731q0 51 13.5 78t60.5 27h1393q47 0 60 -27t13 -78t-13 -76.5t-60 -25.5h-1393q-47 0 -60.5 25.5t-13.5 76.5z" />
<glyph unicode="&#x2018;" horiz-adv-x="399" d="M33 1436q0 47 29.5 63.5t101.5 16.5t102.5 -17.5t38.5 -64.5l53 -330q4 -18 6.5 -35.5t2.5 -30.5q0 -41 -32 -57t-102 -16q-72 0 -102.5 17t-38.5 65l-55 342q-2 10 -3 23t-1 24z" />
<glyph unicode="&#x2019;" horiz-adv-x="399" d="M33 1038q0 12 2 29.5t6 36.5l53 330q8 47 39 64.5t103 17.5t101.5 -16.5t29.5 -63.5q0 -10 -1 -23.5t-4 -23.5l-55 -342q-8 -47 -38.5 -64.5t-102.5 -17.5q-70 0 -101.5 16t-31.5 57z" />
<glyph unicode="&#x201a;" horiz-adv-x="399" d="M33 -119q0 12 2 29.5t6 36.5l53 329q8 47 39 64.5t103 17.5t101.5 -16t29.5 -63q0 -10 -1 -23.5t-4 -24.5l-55 -342q-8 -47 -38.5 -64.5t-102.5 -17.5q-70 0 -101.5 16.5t-31.5 57.5zM33 -119q0 12 2 29.5t6 36.5l53 329q8 47 39 64.5t103 17.5t101.5 -16t29.5 -63 q0 -10 -1 -23.5t-4 -24.5l-55 -342q-8 -47 -38.5 -64.5t-102.5 -17.5q-70 0 -101.5 16.5t-31.5 57.5z" />
<glyph unicode="&#x201c;" horiz-adv-x="768" d="M33 1436q0 47 29.5 63.5t101.5 16.5t102.5 -17.5t38.5 -64.5l53 -330q4 -18 6.5 -35.5t2.5 -30.5q0 -41 -32 -57t-102 -16q-72 0 -102.5 17t-38.5 65l-55 342q-2 10 -3 23t-1 24zM401 1436q0 47 30 63.5t101 16.5q72 0 103 -17.5t39 -64.5l53 -330q4 -18 6 -35.5t2 -30.5 q0 -41 -31.5 -57t-101.5 -16q-72 0 -102.5 17t-38.5 65l-55 342q-2 10 -3.5 23t-1.5 24z" />
<glyph unicode="&#x201d;" horiz-adv-x="768" d="M33 1038q0 12 2 29.5t6 36.5l53 330q8 47 39 64.5t103 17.5t101.5 -16.5t29.5 -63.5q0 -10 -1 -23.5t-4 -23.5l-55 -342q-8 -47 -38.5 -64.5t-102.5 -17.5q-70 0 -101.5 16t-31.5 57zM401 1038q0 12 2.5 29.5t6.5 36.5l53 330q8 47 38.5 64.5t102.5 17.5t101.5 -16.5 t29.5 -63.5q0 -10 -1 -23.5t-3 -23.5l-55 -342q-8 -47 -39 -64.5t-102 -17.5q-70 0 -102 16t-32 57z" />
<glyph unicode="&#x201e;" horiz-adv-x="768" d="M33 -119q0 12 2 29.5t6 36.5l53 329q8 47 39 64.5t103 17.5t101.5 -16t29.5 -63q0 -10 -1 -23.5t-4 -24.5l-55 -342q-8 -47 -38.5 -64.5t-102.5 -17.5q-70 0 -101.5 16.5t-31.5 57.5zM401 -119q0 12 2.5 29.5t6.5 36.5l53 329q8 47 38.5 64.5t102.5 17.5t101.5 -16 t29.5 -63q0 -10 -1 -23.5t-3 -24.5l-55 -342q-8 -47 -39 -64.5t-102 -17.5q-70 0 -102 16.5t-32 57.5z" />
<glyph unicode="&#x2022;" horiz-adv-x="1007" d="M96 492v419q0 59 64.5 100.5t208.5 41.5h270q143 0 207.5 -41t64.5 -101v-419q0 -59 -64.5 -100.5t-207.5 -41.5h-270q-143 0 -208 41t-65 101z" />
<glyph unicode="&#x2026;" horiz-adv-x="2009" d="M137 0zM137 119q0 66 38 96.5t124 30.5t124 -31t38 -96q0 -66 -38 -96.5t-124 -30.5t-124 30.5t-38 96.5zM841 119q0 66 38 96.5t124 30.5t124 -31t38 -96q0 -66 -38 -96.5t-124 -30.5t-124 30.5t-38 96.5zM1546 119q0 66 38 96.5t124 30.5t124 -31t38 -96 q0 -66 -38 -96.5t-124 -30.5t-124 30.5t-38 96.5z" />
<glyph unicode="&#x202f;" horiz-adv-x="405" />
<glyph unicode="&#x2039;" horiz-adv-x="718" d="M57 578q0 41 9.5 65.5t25.5 40.5l486 467q14 14 28 14q23 0 36 -33.5t13 -80.5q0 -27 -6 -53.5t-24 -43.5l-398 -379l406 -385q16 -14 22.5 -39.5t6.5 -50.5q0 -43 -13.5 -75.5t-34.5 -32.5q-16 0 -30 14l-492 465q-35 31 -35 107z" />
<glyph unicode="&#x203a;" horiz-adv-x="718" d="M57 100q0 25 6.5 50.5t22.5 39.5l406 385l-398 379q-18 16 -24.5 43t-6.5 54q0 47 13.5 80.5t36.5 33.5q14 0 28 -14l486 -467q16 -16 25.5 -40.5t9.5 -65.5q0 -76 -35 -107l-492 -465q-14 -14 -31 -14q-20 0 -33.5 32.5t-13.5 75.5z" />
<glyph unicode="&#x205f;" horiz-adv-x="507" />
<glyph unicode="&#x20ac;" horiz-adv-x="1894" d="M51 549q0 55 15.5 82.5t64.5 27.5h88v189h-88q-49 0 -64.5 27.5t-15.5 82.5t15.5 83t64.5 28h88v35q0 381 606 381h901q49 0 64.5 -27.5t15.5 -83.5q0 -55 -15 -82.5t-65 -27.5h-892q-180 0 -262.5 -46.5t-82.5 -113.5v-35h869q49 0 64.5 -27.5t15.5 -83.5 q0 -55 -15.5 -82.5t-64.5 -27.5h-869v-189h525q49 0 64.5 -27.5t15.5 -82.5t-15.5 -83t-64.5 -28h-525v-57q0 -66 82 -113t263 -47h895q49 0 63 -27.5t14 -82.5q0 -53 -14 -82t-63 -29h-904q-606 0 -606 381v57h-88q-49 0 -64.5 28t-15.5 83z" />
<glyph unicode="&#x2122;" horiz-adv-x="2285" d="M45 1419q0 33 9 49.5t38 16.5h692q29 0 39.5 -16.5t10.5 -49.5q0 -35 -10.5 -50t-39.5 -15h-264v-701q0 -35 -20.5 -46t-61.5 -11t-61.5 11t-20.5 46v701h-264q-29 0 -38 15t-9 50zM922 653v746q0 84 90 84q31 0 55.5 -10.5t40.5 -32.5l438 -660l443 660q16 25 41.5 34 t54.5 9q90 0 90 -84v-746q0 -35 -20.5 -46t-61.5 -11t-61.5 11t-20.5 46v543l-362 -553q-18 -29 -41 -38t-56 -9q-37 0 -61.5 10t-40.5 37l-365 553v-543q0 -35 -20.5 -46t-60.5 -11q-41 0 -61.5 11t-20.5 46z" />
<glyph unicode="&#x25fc;" horiz-adv-x="1167" d="M0 0v1167h1167v-1167h-1167z" />
</font>
</defs>
</svg>
