<?xml version="1.0" standalone="no"?>
<!DOCTYPE svg PUBLIC "-//W3C//DTD SVG 1.1//EN" "http://www.w3.org/Graphics/SVG/1.1/DTD/svg11.dtd" >
<svg xmlns="http://www.w3.org/2000/svg">
<metadata></metadata>
<defs>
<font id="xenotron_broadstrokenormal" horiz-adv-x="1945" >
<font-face units-per-em="2048" ascent="1638" descent="-410" />
<missing-glyph horiz-adv-x="1024" />
<glyph horiz-adv-x="0" />
<glyph unicode="&#xd;" horiz-adv-x="1024" />
<glyph unicode=" "  horiz-adv-x="1024" />
<glyph unicode="&#x09;" horiz-adv-x="1024" />
<glyph unicode="&#xa0;" horiz-adv-x="1024" />
<glyph unicode="!" horiz-adv-x="614" d="M0 0v203h410v-203h-410zM0 412v612h410v-612h-410z" />
<glyph unicode="&#x22;" horiz-adv-x="1126" d="M0 819q0 86 59.5 145.5t145.5 59.5t145.5 -59.5t59.5 -145.5t-59.5 -145.5t-145.5 -59.5v205h-205zM512 819q0 86 59.5 145.5t145.5 59.5t145.5 -59.5t59.5 -145.5t-59.5 -145.5t-145.5 -59.5v205h-205z" />
<glyph unicode="#" horiz-adv-x="1638" d="M0 203v207h205v204h-205v205h205v205h409v-205h205v205h410v-205h205v-205h-205v-204h205v-205h-205v-205h-410v205h-205v-205h-409v205zM614 410h205v204h-205v-204z" />
<glyph unicode="$" d="M0 205h666v205h-461q-96 0 -156 75q-49 63 -49 129v205q0 100 74 158q59 47 131 47h461v102h409v-102h461q98 0 156 -74q49 -61 49 -131h-666v-205h461q98 0 156 -73q49 -61 49 -131v-205q0 -96 -76 -156q-63 -49 -129 -49h-461v-102h-409v102h-461q-100 0 -158 76 q-47 61 -47 129zM410 614h256v205h-256v-205zM1075 205h256v205h-256v-205z" />
<glyph unicode="%" d="M0 614v205q0 100 74 158q59 47 131 47h205q98 0 155 -74q49 -61 49 -131v-205q0 -96 -75 -155q-63 -49 -129 -49h-205q-98 0 -156 73q-49 61 -49 131zM205 614h205v205h-205v-205zM563 0l205 1024h410l-205 -1024h-410zM1126 205v205q0 100 74 157q59 47 131 47h205 q98 0 156 -73q49 -61 49 -131v-205q0 -96 -76 -156q-63 -49 -129 -49h-205q-98 0 -155 74q-49 61 -50 131zM1331 205h205v205h-205v-205z" />
<glyph unicode="&#x26;" horiz-adv-x="1484" d="M0 203v616q0 98 74 156q61 49 131 49h409l-102 -205h-102v-205h256v205h409v-205h205v-204h-205v-410h-870q-96 0 -156 74q-49 61 -49 129zM410 205h256v205h-256v-205z" />
<glyph unicode="'" horiz-adv-x="614" d="M0 819q0 86 59.5 145.5t145.5 59.5t145.5 -59.5t59.5 -145.5t-59.5 -145.5t-145.5 -59.5v205h-205z" />
<glyph unicode="(" horiz-adv-x="1024" d="M0 203v616q0 98 74 156q61 49 131 49h409q98 0 156 -74q49 -61 49 -131h-409v-614h409q0 -98 -74 -156q-61 -49 -131 -49h-409q-96 0 -156 74q-49 61 -49 129z" />
<glyph unicode=")" horiz-adv-x="1024" d="M0 205h410v614h-410q0 70 47 129q59 76 158 76h409q70 0 129 -47q76 -59 76 -158v-616q0 -68 -47 -127q-59 -76 -158 -76h-409q-70 0 -129 47q-76 59 -76 158z" />
<glyph unicode="*" horiz-adv-x="1843" d="M0 205l307 307l-307 307h410l204 -205v308h410v-308l205 205h409l-286 -307l286 -307h-409l-205 205v-312h-410v312l-204 -205h-410z" />
<glyph unicode="+" horiz-adv-x="1433" d="M-6 410v204h416v410h409v-410h410v-204h-410v-410h-409v410h-416z" />
<glyph unicode="," horiz-adv-x="614" d="M0 205q0 86 59.5 145.5t145.5 59.5t145.5 -59.5t59.5 -145.5t-59.5 -145.5t-145.5 -59.5v205h-205z" />
<glyph unicode="-" horiz-adv-x="972" d="M0 410v204h768v-204h-768z" />
<glyph unicode="." horiz-adv-x="614" d="M0 205q0 86 59.5 145.5t145.5 59.5t145.5 -59.5t59.5 -145.5t-59.5 -145.5t-145.5 -59.5t-145.5 59.5t-59.5 145.5z" />
<glyph unicode="/" horiz-adv-x="819" d="M0 0l205 1024h409l-204 -1024h-410z" />
<glyph unicode="0" d="M0 205v614q0 100 74 158q59 47 131 47h1331q98 0 156 -74q49 -61 49 -131v-614q0 -96 -76 -156q-63 -49 -129 -49h-1331q-98 0 -156 74q-49 61 -49 131zM410 205h194l123 614h-317v-614zM1014 205h317v614h-194z" />
<glyph unicode="1" horiz-adv-x="819" d="M0 819q0 96 76 156q63 49 129 49h409v-1024h-409v819h-205z" />
<glyph unicode="2" d="M0 0v410q0 70 47 129q59 76 158 75h1126v205h-1331q0 70 47 129q59 76 158 76h1331q70 0 129 -47q76 -59 76 -158v-205q0 -68 -47 -129q-59 -76 -158 -75h-1126v-205h1331q0 -68 -45 -127q-59 -78 -160 -78h-1536z" />
<glyph unicode="3" d="M0 0v205h1331v205h-1331v204h1331v205h-1331v205h1536q70 0 129 -47q76 -59 76 -158v-614q0 -70 -47 -129q-59 -76 -158 -76h-1536z" />
<glyph unicode="4" d="M0 614v410h410v-410h921v410h410v-1024h-410v410h-1126q-98 0 -156 73q-49 61 -49 131z" />
<glyph unicode="5" d="M0 205h1331v205h-1331v614h1536q98 0 156 -74q49 -61 49 -131h-1331v-205h1126q98 0 156 -73q49 -61 49 -131v-205q0 -96 -76 -156q-63 -49 -129 -49h-1331q-100 0 -158 76q-47 61 -47 129z" />
<glyph unicode="6" d="M0 205v614q0 72 47 131q59 74 158 74h307l102 -205h-204v-205h1126q68 0 129 -47q76 -59 76 -157v-205q0 -68 -47 -129q-59 -76 -158 -76h-1331q-68 0 -129 47q-76 59 -76 158zM410 205h921v205h-921v-205z" />
<glyph unicode="7" d="M0 819q0 96 76 156q63 49 129 49h1331q98 0 156 -74q49 -61 49 -131v-819h-410v819h-1331z" />
<glyph unicode="8" d="M0 205v614q0 100 74 158q59 47 131 47h1331q98 0 156 -74q49 -61 49 -131v-614q0 -96 -76 -156q-63 -49 -129 -49h-1331q-98 0 -156 74q-49 61 -49 131zM410 205h921v205h-921v-205zM410 614h921v205h-921v-205z" />
<glyph unicode="9" d="M0 614v205q0 68 47 129q59 76 158 76h1331q68 0 129 -47q76 -59 76 -158v-614q0 -72 -47 -131q-59 -74 -158 -74h-922l-102 205h819v205h-1126q-68 0 -129 47q-76 59 -76 157zM410 614h921v205h-921v-205z" />
<glyph unicode=":" horiz-adv-x="614" d="M0 205q0 86 59.5 145.5t145.5 59.5t145.5 -59.5t59.5 -145.5t-59.5 -145.5t-145.5 -59.5t-145.5 59.5t-59.5 145.5zM0 819q0 86 59.5 145.5t145.5 59.5t145.5 -59.5t59.5 -145.5t-59.5 -145.5t-145.5 -59.5t-145.5 59.5t-59.5 145.5z" />
<glyph unicode=";" horiz-adv-x="614" d="M0 205q0 86 59.5 145.5t145.5 59.5t145.5 -59.5t59.5 -145.5t-59.5 -145.5t-145.5 -59.5v205h-205zM0 819q0 86 59.5 145.5t145.5 59.5t145.5 -59.5t59.5 -145.5t-59.5 -145.5t-145.5 -59.5t-145.5 59.5t-59.5 145.5z" />
<glyph unicode="&#x3c;" horiz-adv-x="1069" d="M-10 219l295 295l-289 289l143 145l291 -291l289 291l145 -145l-291 -289l291 -291l-145 -143l-289 289l-295 -295z" />
<glyph unicode="=" horiz-adv-x="972" d="M0 203v209h768v-209h-768zM0 614v205h768v-205h-768z" />
<glyph unicode="&#x3e;" horiz-adv-x="1069" d="M-10 219l295 295l-289 289l143 145l291 -291l289 291l145 -145l-291 -289l291 -291l-145 -143l-289 289l-295 -295z" />
<glyph unicode="?" d="M0 819q0 70 47 129q59 76 158 76h1331q70 0 129 -47q76 -59 76 -158v-205q0 -68 -47 -129q-59 -76 -158 -75h-461v-105h-409v105q0 70 47 129q59 76 157 75h461v205h-1331zM666 0v203h409v-203h-409z" />
<glyph unicode="@" horiz-adv-x="1589" d="M0 205v614q0 96 76 156q63 49 129 49h973q96 0 155 -76q49 -63 49 -129v-205q0 -96 -75 -155q-63 -49 -129 -49h-283v-131h-209q-96 0 -163.5 67.5t-67.5 163.5t67.5 163.5t163.5 67.5q68 0 122 -33.5t85 -93.5h182v205h-768v-616h1075q0 -96 -75 -156q-61 -47 -129 -47 h-973q-96 0 -156 76q-49 63 -49 129zM586 512q0 -43 28.5 -71.5t71.5 -28.5t71.5 28.5t28.5 71.5q0 41 -28.5 71.5t-71.5 30.5q-41 0 -70.5 -29.5t-29.5 -72.5z" />
<glyph unicode="A" d="M0 203v616q0 96 76 156q63 49 129 49h1331q96 0 156 -76q49 -63 49 -129v-614q0 -96 -76 -156q-63 -49 -129 -49h-205v410h-921v-410h-205q-100 0 -158 74q-47 59 -47 129zM410 614h921v205h-921v-205z" />
<glyph unicode="B" d="M0 0v1024h1536q96 0 154 -76q47 -61 47 -129v-614q0 -96 -74 -156q-61 -49 -127 -49h-1536zM410 205h921v205h-921v-205zM410 614h921v205h-921v-205z" />
<glyph unicode="C" d="M0 203v616q0 98 74 156q61 49 131 49h1331q98 0 156 -74q49 -61 49 -131h-1331v-614h1331q0 -98 -74 -156q-61 -49 -131 -49h-1331q-96 0 -156 74q-49 61 -49 129z" />
<glyph unicode="D" d="M0 0v1024h1536q96 0 154 -74q47 -61 47 -129v-616q0 -96 -74 -156q-61 -49 -127 -49h-1536zM410 205h921v616h-921v-616z" />
<glyph unicode="E" d="M0 0v1024h1536q96 0 156 -76q49 -63 49 -129h-1331v-205h1331v-204h-1331v-205h1331q0 -96 -74 -156q-61 -49 -129 -49h-1538z" />
<glyph unicode="F" d="M0 0v1024h1536q96 0 156 -76q49 -63 49 -129h-1331v-205h1331v-204h-1331v-410h-410z" />
<glyph unicode="G" d="M0 205v614q0 96 76 156q63 49 129 49h1331q96 0 156 -76q49 -63 49 -129h-1331v-614h921v207h-717l-102 202h1024q96 0 156 -73q49 -61 49 -129v-207q0 -96 -76 -156q-63 -49 -129 -49h-1331q-96 0 -156 76q-49 63 -49 129z" />
<glyph unicode="H" d="M0 205v819h410v-410h921v410h410v-819q0 -88 -63.5 -146.5t-141.5 -58.5h-205v410h-921v-410h-205q-86 0 -145.5 59.5t-59.5 145.5z" />
<glyph unicode="I" horiz-adv-x="614" d="M0 0v1024h410v-1024h-410z" />
<glyph unicode="J" d="M0 205v207h410v-207h921v819h410v-819q0 -70 -47 -129q-59 -76 -158 -76h-1331q-68 0 -129 47q-76 59 -76 158z" />
<glyph unicode="K" d="M0 0v1024h410v-410h716l205 410h410l-205 -410q86 -12 141 -59q63 -55 64 -145v-410h-410v410h-921v-410h-410z" />
<glyph unicode="L" d="M0 205v819h410v-819h1331q0 -96 -76 -156q-63 -49 -129 -49h-1331q-98 0 -156 74q-49 61 -49 131z" />
<glyph unicode="M" d="M0 205v614q0 96 76 156q63 49 129 49h1331q98 0 156 -74q49 -61 49 -131v-614q0 -98 -74 -156q-61 -49 -131 -49h-205v819h-256v-819h-409v819h-256v-819h-205q-98 0 -156 74q-49 61 -49 131z" />
<glyph unicode="N" d="M0 205v614q0 96 76 156q63 49 129 49h1331q98 0 156 -74q49 -61 49 -131v-614q0 -98 -74 -156q-61 -49 -131 -49h-205v819h-921v-819h-205q-98 0 -156 74q-49 61 -49 131z" />
<glyph unicode="O" d="M0 205v614q0 100 74 158q59 47 131 47h1331q98 0 156 -74q49 -61 49 -131v-614q0 -96 -76 -156q-63 -49 -129 -49h-1331q-98 0 -156 74q-49 61 -49 131zM410 205h921v614h-921v-614z" />
<glyph unicode="P" d="M0 0v819q0 96 76 156q63 49 129 49h1331q96 0 156 -76q49 -63 49 -129v-205q0 -96 -76 -155q-63 -49 -129 -49h-1126v-410h-410zM410 614h921v205h-921v-205z" />
<glyph unicode="Q" d="M0 205v614q0 100 74 158q59 47 131 47h1331q98 0 156 -74q49 -61 49 -131v-614q0 -96 -76 -154q-59 -45 -129 -51h-205v819h-921v-614h358l-102 207h409l205 -412h-1075q-98 0 -156 74q-49 61 -49 131z" />
<glyph unicode="R" d="M0 0v819q0 86 59.5 145.5t145.5 59.5h1331q96 0 156 -76q49 -63 49 -129v-205q0 -92 -60.5 -148t-144.5 -56l205 -410h-410l-205 410h-716v-410h-410zM410 614h921v205h-921v-205z" />
<glyph unicode="S" d="M0 205h1331v205h-1126q-96 0 -156 75q-49 63 -49 129v205q0 100 74 158q59 47 131 47h1331q98 0 156 -74q49 -61 49 -131h-1331v-205h1126q98 0 156 -73q49 -61 49 -131v-205q0 -96 -76 -156q-63 -49 -129 -49h-1331q-100 0 -158 76q-47 61 -47 129z" />
<glyph unicode="T" d="M0 819q0 96 76 156q63 49 129 49h1331q98 0 156 -74q49 -61 49 -131h-666v-819h-409v819h-666z" />
<glyph unicode="U" d="M0 205v614q0 100 72 158q59 47 133 47h205v-819h921v819h205q98 0 156 -74q49 -61 49 -131v-614q0 -96 -76 -156q-63 -49 -129 -49h-1331q-98 0 -156 74q-49 61 -49 131z" />
<glyph unicode="V" d="M0 205v614q0 102 68 158q57 47 137 47h205v-819h634l287 819h410l-287 -819q-35 -100 -91 -152.5t-114 -52.5h-1044q-98 0 -156 74q-49 61 -49 131z" />
<glyph unicode="W" d="M0 203v614q0 70 47 129q59 76 158 76l205 2v-821h256v819h409v-819h256v821l205 -2q70 0 129 -47q76 -59 76 -158v-614q0 -70 -47 -129q-59 -76 -158 -76h-1331q-68 0 -129 47q-76 59 -76 158z" />
<glyph unicode="X" d="M0 0l205 410q-86 12 -142 59q-63 55 -63 145v410h410v-410h716l205 410h410l-205 -410q86 -12 141 -59q63 -55 64 -145v-410h-410v410h-717l-204 -410h-410z" />
<glyph unicode="Y" d="M0 614v205q0 123 102 176q33 16 103 29h205v-410h921v410h205q98 0 156 -74q49 -61 49 -131v-205q0 -96 -76 -155q-63 -49 -129 -49h-461v-410h-409v410h-461q-98 0 -156 73q-49 61 -49 131z" />
<glyph unicode="Z" d="M0 0v410q0 70 47 129q58 75 155 75h3h1126v205h-1331q0 70 47 129q59 76 158 76h1536v-410q0 -68 -47 -129q-58 -75 -155 -75h-3h-1126v-205h1331q0 -68 -45 -127q-59 -78 -160 -78h-1536z" />
<glyph unicode="[" horiz-adv-x="819" d="M0 0v1024h614v-205h-204v-616h204v-203h-614z" />
<glyph unicode="\" horiz-adv-x="819" d="M0 1024h410l204 -1024h-409z" />
<glyph unicode="]" horiz-adv-x="819" d="M0 0v203h205v616h-205v205h614v-1024h-614z" />
<glyph unicode="^" horiz-adv-x="1069" d="M-10 219l295 295l-289 289l143 145l291 -291l289 291l145 -145l-291 -289l291 -291l-145 -143l-289 289l-295 -295z" />
<glyph unicode="_" d="M0 0v205h1741v-205h-1741z" />
<glyph unicode="`" horiz-adv-x="614" d="M0 819q0 86 59.5 145.5t145.5 59.5t145.5 -59.5t59.5 -145.5h-205v-205q-86 0 -145.5 59.5t-59.5 145.5z" />
<glyph unicode="a" d="M0 203v616q0 96 76 156q63 49 129 49h1331q96 0 156 -76q49 -63 49 -129v-614q0 -96 -76 -156q-63 -49 -129 -49h-205v410h-921v-207h204l-102 -203h-307q-100 0 -158 74q-47 59 -47 129zM410 614h921v205h-921v-205z" />
<glyph unicode="b" d="M0 0v1024h1536q96 0 154 -76q47 -61 47 -129v-614q0 -96 -74 -156q-61 -49 -127 -49h-1536zM410 205h921v205h-921v-205zM410 614h921v205h-921v-205z" />
<glyph unicode="c" d="M0 203v616q0 98 74 156q61 49 131 49h1331q98 0 156 -74q49 -61 49 -131h-1331v-614h1331q0 -98 -74 -156q-61 -49 -131 -49h-1331q-96 0 -156 74q-49 61 -49 129z" />
<glyph unicode="d" d="M0 0v1024h1536q96 0 154 -74q47 -61 47 -129v-616q0 -96 -74 -156q-61 -49 -127 -49h-1536zM410 205h921v616h-921v-616z" />
<glyph unicode="e" d="M0 205v614q0 96 76 156q63 49 129 49h1331q96 0 156 -76q49 -63 49 -129v-205q0 -96 -76 -155q-63 -49 -129 -49h-1126v-205h819l-103 -205h-921q-98 0 -156 72q-49 61 -49 133zM410 614h921v205h-921v-205z" />
<glyph unicode="f" d="M0 0v1024h1536q96 0 156 -76q49 -63 49 -129h-1331v-205h1331v-204h-1331v-410h-410z" />
<glyph unicode="g" d="M0 205v614q0 96 76 156q63 49 129 49h1331q96 0 156 -76q49 -63 49 -129h-1331v-614h921v207h-717l-102 202h1024q96 0 156 -73q49 -61 49 -129v-207q0 -96 -76 -156q-63 -49 -129 -49h-1331q-96 0 -156 76q-49 63 -49 129z" />
<glyph unicode="h" d="M0 205v819h410v-410h921v410h410v-819q0 -88 -63.5 -146.5t-141.5 -58.5h-205v410h-921v-410h-205q-86 0 -145.5 59.5t-59.5 145.5z" />
<glyph unicode="i" horiz-adv-x="614" d="M0 0v1024h410v-1024h-410z" />
<glyph unicode="j" d="M0 205v207h410v-207h921v819h410v-819q0 -70 -47 -129q-59 -76 -158 -76h-1331q-68 0 -129 47q-76 59 -76 158z" />
<glyph unicode="k" d="M0 0v1024h410v-410h716l205 410h410l-205 -410q86 -12 141 -59q63 -55 64 -145v-410h-410v410h-921v-410h-410z" />
<glyph unicode="l" d="M0 205v819h410v-819h1331q0 -96 -76 -156q-63 -49 -129 -49h-1331q-98 0 -156 74q-49 61 -49 131z" />
<glyph unicode="m" d="M0 205v614q0 96 76 156q63 49 129 49h1331q98 0 156 -74q49 -61 49 -131v-614q0 -98 -74 -156q-61 -49 -131 -49h-205v819h-256v-819h-409v819h-256v-819h-205q-98 0 -156 74q-49 61 -49 131z" />
<glyph unicode="n" d="M0 205v614q0 96 76 156q63 49 129 49h1331q98 0 156 -74q49 -61 49 -131v-614q0 -98 -74 -156q-61 -49 -131 -49h-205v819h-921v-819h-205q-98 0 -156 74q-49 61 -49 131z" />
<glyph unicode="o" d="M0 205v614q0 100 74 158q59 47 131 47h1331q98 0 156 -74q49 -61 49 -131v-614q0 -96 -76 -156q-63 -49 -129 -49h-1331q-98 0 -156 74q-49 61 -49 131zM410 205h921v614h-921v-614z" />
<glyph unicode="p" d="M0 205v614q0 96 76 156q63 49 129 49h1331q96 0 156 -76q49 -63 49 -129v-205q0 -96 -76 -155q-63 -49 -129 -49h-1126v-205h204l-102 -205h-307q-98 0 -156 72q-49 61 -49 133zM410 614h921v205h-921v-205z" />
<glyph unicode="q" d="M0 205v614q0 100 74 158q59 47 131 47h1331q98 0 156 -74q49 -61 49 -131v-614q0 -96 -76 -154q-59 -45 -129 -51h-205v819h-921v-614h358l-102 207h409l205 -412h-1075q-98 0 -156 74q-49 61 -49 131z" />
<glyph unicode="r" d="M0 0v819q0 86 59.5 145.5t145.5 59.5h1331q96 0 156 -76q49 -63 49 -129v-205q0 -92 -60.5 -148t-144.5 -56l205 -410h-410l-205 410h-716v-410h-410zM410 614h921v205h-921v-205z" />
<glyph unicode="s" d="M0 205h1331v205h-1126q-96 0 -156 75q-49 63 -49 129v205q0 100 74 158q59 47 131 47h1331q98 0 156 -74q49 -61 49 -131h-1331v-205h1126q98 0 156 -73q49 -61 49 -131v-205q0 -96 -76 -156q-63 -49 -129 -49h-1331q-100 0 -158 76q-47 61 -47 129z" />
<glyph unicode="t" d="M0 819q0 96 76 156q63 49 129 49h1331q98 0 156 -74q49 -61 49 -131h-666v-819h-409v819h-666z" />
<glyph unicode="u" d="M0 205v614q0 100 72 158q59 47 133 47h205v-819h921v819h205q98 0 156 -74q49 -61 49 -131v-614q0 -96 -76 -156q-63 -49 -129 -49h-1331q-98 0 -156 74q-49 61 -49 131z" />
<glyph unicode="v" d="M0 205v614q0 102 68 158q57 47 137 47h205v-819h634l287 819h410l-287 -819q-35 -100 -91 -152.5t-114 -52.5h-1044q-98 0 -156 74q-49 61 -49 131z" />
<glyph unicode="w" d="M0 203v614q0 70 47 129q59 76 158 76l205 2v-821h256v819h409v-819h256v821l205 -2q70 0 129 -47q76 -59 76 -158v-614q0 -70 -47 -129q-59 -76 -158 -76h-1331q-68 0 -129 47q-76 59 -76 158z" />
<glyph unicode="x" d="M0 0l205 410q-86 12 -142 59q-63 55 -63 145v410h410v-410h716l205 410h410l-205 -410q86 -12 141 -59q63 -55 64 -145v-410h-410v410h-717l-204 -410h-410z" />
<glyph unicode="y" d="M0 614v205q0 123 102 176q33 16 103 29h205v-410h921v410h205q98 0 156 -74q49 -61 49 -131v-205q0 -96 -76 -155q-63 -49 -129 -49h-461v-410h-409v410h-461q-98 0 -156 73q-49 61 -49 131z" />
<glyph unicode="z" d="M0 0v410q0 70 47 129q58 75 155 75h3h1126v205h-1331q0 70 47 129q59 76 158 76h1536v-410q0 -68 -47 -129q-58 -75 -155 -75h-3h-1126v-205h1331q0 -68 -45 -127q-59 -78 -160 -78h-1536z" />
<glyph unicode="{" horiz-adv-x="1069" d="M-10 219l295 295l-289 289l143 145l291 -291l289 291l145 -145l-291 -289l291 -291l-145 -143l-289 289l-295 -295z" />
<glyph unicode="|" horiz-adv-x="1069" d="M-10 219l295 295l-289 289l143 145l291 -291l289 291l145 -145l-291 -289l291 -291l-145 -143l-289 289l-295 -295z" />
<glyph unicode="}" horiz-adv-x="1069" d="M-10 219l295 295l-289 289l143 145l291 -291l289 291l145 -145l-291 -289l291 -291l-145 -143l-289 289l-295 -295z" />
<glyph unicode="~" horiz-adv-x="1536" d="M0 410v204q0 68 47 129q59 76 158 76h409q70 0 129 -47q76 -59 76 -158v-204h205v409h102q70 0 129 -47q76 -59 76 -158v-204q0 -70 -47 -129q-59 -76 -158 -76h-409q-68 0 -129 47q-76 59 -76 158v204h-205v-409h-102q-68 0 -127 45q-78 59 -78 160z" />
<glyph unicode="&#xa6;" horiz-adv-x="614" d="M0 -102v514h410v-514h-410zM0 614v512h410v-512h-410z" />
<glyph unicode="&#xa9;" horiz-adv-x="2052" d="M0 307v512h205v-205h358l103 205h204l-102 -205q41 -4 71.5 -29.5t30.5 -72.5v-205h-204v205h-461v-205h-205zM973 410v307q0 49 33.5 75.5t68.5 26.5h666q49 0 75.5 -33.5t26.5 -66.5l-665 -2v-307h460v104h-358l-51 100h512q49 0 75.5 -33.5t26.5 -66.5v-104 q0 -49 -33.5 -76t-68.5 -27h-666q-49 0 -75.5 34t-26.5 69z" />
<glyph unicode="&#xad;" horiz-adv-x="972" d="M0 410v204h768v-204h-768z" />
<glyph unicode="&#xae;" horiz-adv-x="2052" d="M0 307v512h205v-205h358l103 205h204l-102 -205q41 -4 71.5 -29.5t30.5 -72.5v-205h-204v205h-461v-205h-205zM973 410v307q0 49 33.5 75.5t68.5 26.5h666q49 0 75.5 -33.5t26.5 -66.5l-665 -2v-307h460v104h-358l-51 100h512q49 0 75.5 -33.5t26.5 -66.5v-104 q0 -49 -33.5 -76t-68.5 -27h-666q-49 0 -75.5 34t-26.5 69z" />
<glyph unicode="&#xb0;" horiz-adv-x="819" d="M0 614v205q0 100 74 158q59 47 131 47h205q98 0 155 -74q49 -61 49 -131v-205q0 -96 -75 -155q-63 -49 -129 -49h-205q-98 0 -156 73q-49 61 -49 131zM205 614h205v205h-205v-205z" />
<glyph unicode="&#xd8;" d="M0 205v614q0 100 74 158q59 47 131 47h1331q98 0 156 -74q49 -61 49 -131v-614q0 -96 -76 -156q-63 -49 -129 -49h-1331q-98 0 -156 74q-49 61 -49 131zM410 205h194l123 614h-317v-614zM1014 205h317v614h-194z" />
<glyph unicode="&#xf8;" d="M0 205v614q0 100 74 158q59 47 131 47h1331q98 0 156 -74q49 -61 49 -131v-614q0 -96 -76 -156q-63 -49 -129 -49h-1331q-98 0 -156 74q-49 61 -49 131zM410 205h194l123 614h-317v-614zM1014 205h317v614h-194z" />
<glyph unicode="&#x2dc;" horiz-adv-x="1536" d="M0 410v204q0 68 47 129q59 76 158 76h409q70 0 129 -47q76 -59 76 -158v-204h205v409h102q70 0 129 -47q76 -59 76 -158v-204q0 -70 -47 -129q-59 -76 -158 -76h-409q-68 0 -129 47q-76 59 -76 158v204h-205v-409h-102q-68 0 -127 45q-78 59 -78 160z" />
<glyph unicode="&#x2000;" horiz-adv-x="682" />
<glyph unicode="&#x2001;" horiz-adv-x="1365" />
<glyph unicode="&#x2002;" horiz-adv-x="682" />
<glyph unicode="&#x2003;" horiz-adv-x="1365" />
<glyph unicode="&#x2004;" horiz-adv-x="455" />
<glyph unicode="&#x2005;" horiz-adv-x="341" />
<glyph unicode="&#x2006;" horiz-adv-x="227" />
<glyph unicode="&#x2007;" horiz-adv-x="227" />
<glyph unicode="&#x2008;" horiz-adv-x="170" />
<glyph unicode="&#x2009;" horiz-adv-x="273" />
<glyph unicode="&#x200a;" horiz-adv-x="75" />
<glyph unicode="&#x2010;" horiz-adv-x="972" d="M0 410v204h768v-204h-768z" />
<glyph unicode="&#x2011;" horiz-adv-x="972" d="M0 410v204h768v-204h-768z" />
<glyph unicode="&#x2012;" horiz-adv-x="972" d="M0 410v204h768v-204h-768z" />
<glyph unicode="&#x2013;" horiz-adv-x="972" d="M0 410v204h768v-204h-768z" />
<glyph unicode="&#x2014;" horiz-adv-x="972" d="M0 410v204h768v-204h-768z" />
<glyph unicode="&#x2018;" horiz-adv-x="614" d="M0 819q0 86 59.5 145.5t145.5 59.5t145.5 -59.5t59.5 -145.5t-59.5 -145.5t-145.5 -59.5v205h-205z" />
<glyph unicode="&#x2019;" horiz-adv-x="614" d="M0 819q0 86 59.5 145.5t145.5 59.5t145.5 -59.5t59.5 -145.5t-59.5 -145.5t-145.5 -59.5v205h-205z" />
<glyph unicode="&#x201a;" horiz-adv-x="614" d="M0 205q0 86 59.5 145.5t145.5 59.5t145.5 -59.5t59.5 -145.5t-59.5 -145.5t-145.5 -59.5v205h-205z" />
<glyph unicode="&#x201c;" horiz-adv-x="1126" d="M0 819q0 86 59.5 145.5t145.5 59.5t145.5 -59.5t59.5 -145.5t-59.5 -145.5t-145.5 -59.5v205h-205zM512 819q0 86 59.5 145.5t145.5 59.5t145.5 -59.5t59.5 -145.5t-59.5 -145.5t-145.5 -59.5v205h-205z" />
<glyph unicode="&#x201d;" horiz-adv-x="1126" d="M0 819q0 86 59.5 145.5t145.5 59.5t145.5 -59.5t59.5 -145.5t-59.5 -145.5t-145.5 -59.5v205h-205zM512 819q0 86 59.5 145.5t145.5 59.5t145.5 -59.5t59.5 -145.5t-59.5 -145.5t-145.5 -59.5v205h-205z" />
<glyph unicode="&#x201e;" horiz-adv-x="1126" d="M0 205q0 86 59.5 145.5t145.5 59.5t145.5 -59.5t59.5 -145.5t-59.5 -145.5t-145.5 -59.5v205h-205zM512 205q0 86 59.5 145.5t145.5 59.5t145.5 -59.5t59.5 -145.5t-59.5 -145.5t-145.5 -59.5v205h-205z" />
<glyph unicode="&#x202f;" horiz-adv-x="273" />
<glyph unicode="&#x205f;" horiz-adv-x="341" />
<glyph unicode="&#x2122;" horiz-adv-x="2052" d="M0 307v512h205v-205h358l103 205h204l-102 -205q41 -4 71.5 -29.5t30.5 -72.5v-205h-204v205h-461v-205h-205zM973 410v307q0 49 33.5 75.5t68.5 26.5h666q49 0 75.5 -33.5t26.5 -66.5l-665 -2v-307h460v104h-358l-51 100h512q49 0 75.5 -33.5t26.5 -66.5v-104 q0 -49 -33.5 -76t-68.5 -27h-666q-49 0 -75.5 34t-26.5 69z" />
<glyph unicode="&#x25fc;" horiz-adv-x="1024" d="M0 0v1024h1024v-1024h-1024z" />
</font>
</defs>
</svg>
